<svg xmlns="http://www.w3.org/2000/svg" width="36" height="36"><g fill="none" fill-rule="evenodd"><path d="M0 0h36v36H0z"/><path fill="#0073B0" d="M29.544 4.5H6.535c-1.1 0-2.035.87-2.035 1.942v23.114c0 1.074.613 1.944 1.714 1.944h23.01c1.101 0 2.276-.87 2.276-1.944V6.442A1.936 1.936 0 0029.544 4.5z"/><path fill="#FFF" d="M12.213 14.785v12.858H8.356V14.785h3.857zm10.46-.16c3.886 0 4.97 2.062 4.97 5.881v7.137h-3.856v-6.432c0-1.71-.684-3.211-2.28-3.211-1.94 0-2.864 1.312-2.864 3.468v6.175h-3.856V14.785h3.633v1.853h.04c.555-1 2.192-2.013 4.214-2.013zm-12.386-6.75a2.41 2.41 0 11-.001 4.82 2.409 2.409 0 11.001-4.82z"/></g></svg>