<svg xmlns="http://www.w3.org/2000/svg" width="36" height="36"><g fill="none" fill-rule="evenodd"><path fill="#FFF" fill-opacity="0" d="M0 0h36v36H0z"/><path fill="#1DA1F2" d="M12.981 30c10.189 0 15.764-8.659 15.764-16.155 0-.244 0-.487-.01-.731a11.445 11.445 0 002.765-2.945 10.99 10.99 0 01-3.187.896 5.69 5.69 0 002.442-3.144 10.882 10.882 0 01-3.523 1.373 5.467 5.467 0 00-4.04-1.794c-3.058 0-5.543 2.547-5.543 5.68 0 .443.054.875.14 1.296-4.602-.233-8.686-2.503-11.42-5.935a5.79 5.79 0 00-.745 2.857c0 1.97.983 3.709 2.463 4.728a5.497 5.497 0 01-2.507-.709v.078c0 2.746 1.913 5.049 4.441 5.57a5.31 5.31 0 01-1.459.199c-.356 0-.702-.034-1.037-.1.702 2.259 2.755 3.898 5.175 3.942a10.94 10.94 0 01-6.882 2.436c-.443 0-.886-.022-1.318-.078A15.47 15.47 0 0012.981 30"/></g></svg>