<svg xmlns="http://www.w3.org/2000/svg" width="120" height="108"><g fill="none" fill-rule="evenodd"><path fill="#FFF" d="M114 54v-2c0-8.8-7.2-16-16-16s-16 7.2-16 16v2c-2.2 0-4 1.8-4 4s1.8 4 4 4v2c0 8.8 7.2 16 16 16s16-7.2 16-16v-2c2.2 0 4-1.8 4-4s-1.8-4-4-4m-76 0v-2c0-8.8-7.2-16-16-16S6 43.2 6 52v2c-2.2 0-4 1.8-4 4s1.8 4 4 4v2c0 8.8 7.2 16 16 16s16-7.2 16-16v-2c2.2 0 4-1.8 4-4s-1.8-4-4-4m38 26v-2c0-8.8-7.2-16-16-16s-16 7.2-16 16v2c-2.2 0-4 1.8-4 4s1.8 4 4 4v2c0 8.8 7.2 16 16 16s16-7.2 16-16v-2c2.2 0 4-1.8 4-4s-1.8-4-4-4m0-56v-2c0-8.8-7.2-16-16-16s-16 7.2-16 16v2c-2.2 0-4 1.8-4 4s1.8 4 4 4v2c0 8.8 7.2 16 16 16s16-7.2 16-16v-2c2.2 0 4-1.8 4-4s-1.8-4-4-4"/><path fill="#DCDBE9" d="M114 56c-1.2 0-2-.8-2-2v-2c0-7.8-6.2-14-14-14 .6 0 1 0 1.6.2 4.8.8 8.4 4.8 8.4 9.8v20c0 5-3.6 9-8.4 9.8-.6.2-1 .2-1.6.2 7.8 0 14-6.2 14-14v-2c0-1.2.8-2 2-2s2-.8 2-2-.8-2-2-2M76 26c-1.2 0-2-.8-2-2v-2c0-7.8-6.2-14-14-14 .6 0 1 0 1.6.2C66.4 9 70 13 70 18v20c0 5-3.6 9-8.4 9.8-.6.2-1 .2-1.6.2 7.8 0 14-6.2 14-14v-2c0-1.2.8-2 2-2s2-.8 2-2-.8-2-2-2M38 56c-1.2 0-2-.8-2-2v-2c0-7.8-6.2-14-14-14 .6 0 1 0 1.6.2C28.4 39 32 43 32 48v20c0 5-3.6 9-8.4 9.8-.6.2-1 .2-1.6.2 7.8 0 14-6.2 14-14v-2c0-1.2.8-2 2-2s2-.8 2-2-.8-2-2-2"/><path fill="#282366" d="M22 73c-1.8 0-3.6-.8-4.8-2.4-.4-.4-.2-1 .2-1.4.4-.4 1-.2 1.4.2 1.8 2.2 4.8 2.2 6.4 0 .4-.4 1-.4 1.4-.2.4.4.4 1 .2 1.4-1.4 1.6-3 2.4-4.8 2.4m-6-15a2 2 0 11.001 3.999A2 2 0 0116 58m12 0a2 2 0 11.001 3.999A2 2 0 0128 58m70 15c-1.8 0-3.6-.8-4.8-2.4-.4-.4-.2-1 .2-1.4.4-.4 1-.2 1.4.2 1.8 2.2 4.8 2.2 6.4 0 .4-.4 1-.4 1.4-.2.4.4.4 1 .2 1.4-1.2 1.6-3 2.4-4.8 2.4"/><path fill="#80CAF0" d="M114 52h-12.4c-3.6 0-7-1.4-9.6-4 0 2.2-1.8 4-4 4h-6c0-8.8 7.2-16 16-16s16 7.2 16 16"/><path fill="#282366" d="M92 46c.6 0 1 .2 1.4.6 2.2 2.2 5.2 3.4 8.2 3.4h10.2c-1-6.8-6.8-12-13.8-12-7.2 0-13 5.2-14 12h4c1.2 0 2-.8 2-2 0-.8.4-1.6 1.2-1.8.4-.2.6-.2.8-.2m22 8h-12.4c-3.2 0-6.2-1-8.6-2.6-1 1.6-3 2.6-5 2.6h-6c-1.2 0-2-.8-2-2 0-10 8-18 18-18s18 8 18 18c0 1-.8 2-2 2"/><path fill="#FFF" d="M100.2 38.2c-.8-.2-1.4-.2-2.2-.2-7.199 0-13 5.2-14 12h4.2c1-6.2 5.8-11 12-11.8"/><path fill="#282366" d="M60 99c-1.8 0-3.6-.8-4.8-2.4-.4-.4-.2-1 .2-1.4.4-.4 1-.2 1.4.2 1.8 2.2 4.8 2.2 6.4 0 .4-.4 1-.4 1.4-.2.4.4.4 1 .2 1.4-1.2 1.6-3 2.4-4.8 2.4m-6-15a2 2 0 11.001 3.999A2 2 0 0154 84m12 0c1.106 0 2 .894 2 2 0 1.106-.894 2-2 2-1.106 0-2-.894-2-2 0-1.106.894-2 2-2"/><path fill="#80CAF0" d="M42 2a8 8 0 110 16 8 8 0 010-16"/><path fill="#282366" d="M42 4c-3.4 0-6 2.6-6 6s2.6 6 6 6 6-2.6 6-6-2.6-6-6-6m0 16c-5.6 0-10-4.4-10-10S36.4 0 42 0s10 4.4 10 10-4.4 10-10 10"/><path fill="#FFF" d="M38 12c0-3.4 2.6-6 6-6 1.2 0 2.2.4 3.2.8C46 5.2 44.2 4 42 4c-3.4 0-6 2.6-6 6 0 2.2 1.2 4 2.8 5.2-.4-1-.8-2-.8-3.2"/><path fill="#80CAF0" d="M78 2a8 8 0 110 16 8 8 0 010-16"/><path fill="#282366" d="M78 4c-3.4 0-6 2.6-6 6s2.6 6 6 6 6-2.6 6-6-2.6-6-6-6m0 16c-5.6 0-10-4.4-10-10S72.4 0 78 0s10 4.4 10 10-4.4 10-10 10M60 43c-1.8 0-3.6-.8-4.8-2.4-.4-.4-.2-1 .2-1.4.4-.4 1-.2 1.4.2 1.8 2.2 4.8 2.2 6.4 0 .4-.4 1-.4 1.4-.2.4.4.4 1 .2 1.4-1.2 1.6-3 2.4-4.8 2.4"/><path fill="#80CAF0" d="M76 22H66c-2.8 0-5.2-1.6-6.4-4-1.2 2.4-3.8 4-6.4 4H44c0-8.8 7.2-16 16-16s16 7.2 16 16"/><path fill="#282366" d="M59.6 16c.8 0 1.4.4 1.8 1.2.8 1.6 2.6 2.8 4.6 2.8h7.802C72.802 13.2 67 8 60 8c-7.2 0-13 5.2-14 12h7c2 0 3.8-1.2 4.6-2.8.4-.8 1.2-1.2 2-1.2M76 24H66c-2.4 0-4.8-1-6.4-2.6-1.6 1.6-4 2.6-6.4 2.6H44c-1.2 0-2-.8-2-2 0-10 8-18 18-18s18 8 18 18c0 1-.8 2-2 2"/><path fill="#FFF" d="M62.2 8.2C61.4 8 60.8 8 60 8c-7.2 0-13 5.2-14 12h4.2c1-6.2 5.8-11 12-11.8M92 52a6 6 0 110 12 6 6 0 010-12"/><path fill="#282366" d="M92 53c-2.8 0-5 2.2-5 5s2.2 5 5 5 5-2.2 5-5-2.2-5-5-5m0 12c-3.8 0-7-3.2-7-7s3.2-7 7-7 7 3.2 7 7-3.2 7-7 7"/><path fill="#FFF" d="M104 52a6 6 0 110 12 6 6 0 010-12"/><path fill="#282366" d="M104 53c-2.8 0-5 2.2-5 5s2.2 5 5 5 5-2.2 5-5-2.2-5-5-5m0 12c-3.8 0-7-3.2-7-7s3.2-7 7-7 7 3.2 7 7-3.2 7-7 7"/><path fill="#FFF" d="M74 12c0-3.4 2.6-6 6-6 1.2 0 2.2.4 3.2.8C82 5.2 80.2 4 78 4c-3.4 0-6 2.6-6 6 0 2.2 1.2 4 2.8 5.2-.4-1-.8-2-.8-3.2"/><path fill="#282366" d="M54 28a2 2 0 11-.001 4.001A2 2 0 0154 28m12 0a2 2 0 11.001 3.999A2 2 0 0166 28m32 10c-7.8 0-14 6.2-14 14v2c0 1.2-.8 2-2 2s-2 .8-2 2 .8 2 2 2 2 .8 2 2v2c0 7.8 6.2 14 14 14s14-6.2 14-14v-2c0-1.2.8-2 2-2s2-.8 2-2-.8-2-2-2-2-.8-2-2v-2c0-7.8-6.2-14-14-14m0 44c-10 0-18-8-18-18v-.4c-2.4-.8-4-3-4-5.6 0-2.6 1.6-4.8 4-5.6V52c0-10 8-18 18-18s18 8 18 18v.4c2.4.8 4 3 4 5.6 0 2.6-1.6 4.8-4 5.6v.4c0 10-8 18-18 18M22 38c-7.8 0-14 6.2-14 14v2c0 1.2-.8 2-2 2s-2 .8-2 2 .8 2 2 2 2 .8 2 2v2c0 7.8 6.2 14 14 14s14-6.2 14-14v-2c0-1.2.8-2 2-2s2-.8 2-2-.8-2-2-2-2-.8-2-2v-2c0-7.8-6.2-14-14-14m0 44C12 82 4 74 4 64v-.4c-2.4-.8-4-3-4-5.6 0-2.6 1.6-4.8 4-5.6V52c0-10 8-18 18-18s18 8 18 18v.4c2.4.8 4 3 4 5.6 0 2.6-1.6 4.8-4 5.6v.4c0 10-8 18-18 18m38-18c-7.8 0-14 6.2-14 14v2c0 1.2-.8 2-2 2s-2 .8-2 2 .8 2 2 2 2 .8 2 2v2c0 7.8 6.2 14 14 14s14-6.2 14-14v-2c0-1.2.8-2 2-2s2-.8 2-2-.8-2-2-2-2-.8-2-2v-2c0-7.8-6.2-14-14-14m0 44c-10 0-18-8-18-18v-.4c-2.4-.8-4-3-4-5.6 0-2.6 1.6-4.8 4-5.6V78c0-10 8-18 18-18s18 8 18 18v.4c2.4.8 4 3 4 5.6 0 2.6-1.6 4.8-4 5.6v.4c0 10-8 18-18 18"/><path fill="#80CAF0" d="M44 90v-2c-1.2 0-2.2-.6-3-1.4-.6 1-1 2.2-1 3.4 0 1 .4 2 .8 3-1.6 1-2.8 2.8-2.8 5 0 3.4 2.6 6 6 6 2 0 3.8-1 4.8-2.6-3-2.8-4.8-6.8-4.8-11.4"/><path fill="#282366" d="M42.4 94l-.6.6c-1.2.8-1.8 2-1.8 3.4 0 2.2 1.8 4 4 4 .8 0 1.4-.2 2-.6-1.6-2.2-3-4.6-3.6-7.4zm1.6 12c-4.4 0-8-3.6-8-8 0-2.2.8-4.2 2.4-5.6-.2-.8-.4-1.6-.4-2.4 0-1.6.4-3.2 1.4-4.4.4-.6 1-.8 1.6-.8.6 0 1.2.2 1.6.6.4.4 1 .6 1.4.6.6 0 1 .2 1.4.6.4.4.6.8.6 1.4v2c0 3.8 1.6 7.4 4.2 10 .8.6.8 1.8.2 2.6-1.4 2.2-3.8 3.4-6.4 3.4zM60 8c-7.8 0-14 6.2-14 14v2c0 1.2-.8 2-2 2s-2 .8-2 2 .8 2 2 2 2 .8 2 2v2c0 7.8 6.2 14 14 14s14-6.2 14-14v-2c0-1.2.8-2 2-2s2-.8 2-2-.8-2-2-2-2-.8-2-2v-2c0-7.8-6.2-14-14-14m0 44c-10 0-18-8-18-18v-.4c-2.4-.8-4-3-4-5.6 0-2.6 1.6-4.8 4-5.6V22c0-10 8-18 18-18s18 8 18 18v.4c2.4.8 4 3 4 5.6 0 2.6-1.6 4.8-4 5.6v.4c0 10-8 18-18 18m35 7c-.4 0-.6-.2-.8-.4-1.2-2-3-2-4.4 0-.2.4-1 .6-1.4.4-.4-.2-.6-1-.4-1.4 1-1.6 2.4-2.4 3.8-2.4s2.8.8 3.8 2.4c.2.4.2 1-.4 1.4H95zm12 0c-.4 0-.6-.2-.8-.4-1.2-2-3-2-4.4 0-.2.4-1 .6-1.4.4-.4-.2-.6-1-.4-1.4 1-1.6 2.4-2.4 3.8-2.4s2.8.8 3.8 2.4c.2.4.2 1-.4 1.4h-.2z"/><path fill="#DCDBE9" d="M76 82c-1.2 0-2-.8-2-2v-2c0-7.8-6.2-14-14-14 .6 0 1 0 1.6.2C66.4 65 70 69 70 74v20c0 5-3.6 9-8.4 9.8-.6.2-1 .2-1.6.2 7.8 0 14-6.2 14-14v-2c0-1.2.8-2 2-2s2-.8 2-2-.8-2-2-2"/><path fill="#80CAF0" d="M76 71v-1c0-3.4-2.6-6-6-6 0-3.4-2.6-6-6-6-2.2 0-4 1.2-5 2.8-1-.4-2-.8-3-.8-3.4 0-6 2.6-6 6v.4c-.6-.2-1.4-.4-2-.4-3.4 0-6 2.6-6 6s2.6 6 6 6c1 0 2-.4 3-.8 1 1.6 2.8 2.8 5 2.8 1.6 0 3-.6 4-1.6 1 1 2.4 1.6 4 1.6 2 0 3.6-1 4.8-2.4.8 1.4 2.4 2.4 4.2 2.4 2.8 0 5-2.2 5-5 0-1.6-.8-3.2-2-4"/><path fill="#282366" d="M68.8 75.6c.799 0 1.399.4 1.799 1 .6.8 1.6 1.4 2.6 1.4 1.602 0 3-1.4 3-3 0-1-.398-1.8-1.198-2.4-.6-.4-1-1.2-.802-2V70c0-2.198-1.798-4-4-4-1.198 0-2-.8-2-2 0-2.198-1.798-4-4-4-1.398 0-2.6.6-3.398 1.802-.6.798-1.8 1.198-2.6.598-.602-.4-1.2-.598-2-.598-2.2 0-4 1.798-4 4V66c0 .6-.2 1.4-.8 1.802-.6.398-1.2.598-1.802.198H48c-2.2 0-4 1.802-4 4 0 2.2 1.8 4 4 4 .598 0 1.4-.198 2-.6 1-.598 2.2-.2 2.598.6 1.202 2 4.202 2.4 6 .802.802-.602 2-.602 2.602 0C63 78.4 65.599 78 67 76.2c.598-.2 1.198-.6 1.8-.6M73 82c-1.6 0-3.2-.6-4.402-1.6-2.4 1.8-6 2-8.598.402C57 82.6 52.8 82 50.4 79.6c-.802.202-1.6.4-2.4.4-4.402 0-8-3.6-8-8s3.8-8.198 8.2-8c.8-3.4 4-6 7.8-6 .8 0 1.598.2 2.4.4C59.8 56.802 62 56 64 56c3.8 0 7 2.6 7.8 6.2 3.6.8 6.2 4 6.2 7.8v.2c1.198 1.2 2 3 2 4.8 0 3.802-3.2 7-7 7"/><path fill="#FFF" d="M51.4 68.2c.6.201 1.4.201 1.8-.2.6-.4.8-1 .8-1.8V66c0-1.8 1.2-3.4 3-3.8-.4-.2-.6-.2-1-.2-2.2 0-4 1.801-4 4v.2c0 .601-.2 1.4-.8 1.8 0 0-.2.2-.4.2h.6zm8.6-5.6c1 .6 2.2.202 2.6-.6.6-.8 1.4-1.4 2.4-1.8-.4-.2-.6-.2-1-.2-1.4 0-2.6.6-3.4 1.802-.2.398-.4.598-.6.798M46 72c0-1.8 1.2-3.4 3-3.8-.4-.2-.6-.2-1-.2-2.2 0-4 1.8-4 4s1.8 4 4 4c.4 0 .6 0 1-.2-1.8-.4-3-2-3-3.8"/><path fill="#80CAF0" d="M76 88v2c0 3.4-1 6.6-3 9.2 1 .4 2 .8 3 .8 3.4 0 6-2.6 6-6s-2.6-6-6-6"/><path fill="#282366" d="M78 90.6c0 2.6-.8 5.202-1.8 7.4 2.2 0 3.8-1.8 3.8-4 0-1.4-.8-2.8-2-3.4M76 102c-1.4 0-2.6-.4-4-1-.4-.198-.8-.8-1-1.4-.2-.6 0-1.2.4-1.6 1.6-2.4 2.6-5.198 2.6-8v-2c0-1.198.8-2 2-2 4.4 0 8 3.6 8 8s-3.6 8-8 8"/><path fill="#80CAF0" d="M39.8 52C37 42.6 32 36 22 36S7 42.6 4.2 52l6-1.2c4-.8 8-1.2 12-1.2s8 .4 12 1.2l5.6 1.2z"/><path fill="#282366" d="M22 47.8c4.2 0 8.2.4 12.4 1.2l2.4.4C33.8 41.6 29 38 22 38c-7.2 0-11.8 3.6-14.8 11.4l2.6-.4c4-.8 8-1.2 12.2-1.2M39.8 54h-.4l-5.8-1.2c-7.6-1.4-15.4-1.4-23 0l-6 1.2c-.6.2-1.4-.2-1.8-.6-.4-.6-.6-1.2-.4-2C6 39.6 12.4 34 22.2 34S38.4 39.6 42 51.4c.2.6 0 1.4-.4 2-.6.4-1.2.6-1.8.6"/><path fill="#FFF" d="M22 38c-7 0-11.8 3.6-14.8 11.4l2.6-.4c.8-.2 1.8-.4 2.6-.4 2-7.2 5-10.6 9.6-10.6"/></g></svg>