<svg xmlns="http://www.w3.org/2000/svg" width="135" height="40"><path d="M6 .5h123a5.5 5.5 0 015.5 5.5v28a5.5 5.5 0 01-5.5 5.5H6A5.5 5.5 0 01.5 34V6A5.5 5.5 0 016 .5z"/><path fill="#B6B6B6" d="M129 1c1.326 0 2.598.527 3.536 1.464A5.004 5.004 0 01134 6v28a5 5 0 01-5 5H6a5.004 5.004 0 01-3.536-1.464A5.004 5.004 0 011 34V6a5 5 0 015-5h123m0-1H6a6 6 0 00-6 6v28a6 6 0 006 6h123a6 6 0 006-6V6a6 6 0 00-6-6z"/><path fill="#FFF" d="M24.77 20.3a4.92 4.92 0 012.36-4.15 5.078 5.078 0 00-4-2.16c-1.67-.18-3.3 1-4.16 1-.86 0-2.19-1-3.61-1a5.308 5.308 0 00-4.47 2.73C9 20.11 10.4 25 12.25 27.74c.93 1.33 2 2.81 3.43 2.75 1.43-.06 1.9-.88 3.58-.88 1.68 0 2.14.88 3.59.85 1.45-.03 2.43-1.33 3.32-2.67a11.115 11.115 0 001.52-3.09 4.772 4.772 0 01-2.92-4.4zM22 12.21a4.891 4.891 0 001.11-3.49 5.002 5.002 0 00-3.21 1.66 4.646 4.646 0 00-1.14 3.36A4.112 4.112 0 0022 12.21zm20.3 14.93h-4.73l-1.14 3.36h-2l4.48-12.42H41l4.48 12.42h-2l-1.18-3.36zm-4.24-1.55h3.75L40 20.14h-.05l-1.89 5.45zm17.1.41c0 2.81-1.51 4.62-3.78 4.62A3.09 3.09 0 0148.53 29v4.48h-1.9v-12h1.8V23a3.22 3.22 0 012.89-1.6c2.33-.05 3.84 1.76 3.84 4.6zm-1.91 0c0-1.83-1-3-2.39-3-1.39 0-2.38 1.23-2.38 3s1 3.05 2.38 3.05 2.39-1.23 2.39-3.05zm11.87 0c0 2.81-1.5 4.62-3.77 4.62A3.08 3.08 0 0158.5 29v4.48h-1.9v-12h1.8V23a3.222 3.222 0 012.88-1.6c2.33-.05 3.84 1.76 3.84 4.6zm-1.91 0c0-1.83-.94-3-2.39-3-1.45 0-2.37 1.23-2.37 3s.95 3 2.37 3c1.42 0 2.39-1.18 2.39-3zm8.5 1c.14 1.23 1.33 2 3 2s2.69-.81 2.69-1.92c0-1.11-.68-1.54-2.29-1.94l-1.61-.39c-2.28-.55-3.33-1.61-3.33-3.34 0-2.15 1.86-3.62 4.51-3.62 2.65 0 4.43 1.47 4.49 3.62h-1.91c-.11-1.24-1.14-2-2.63-2s-2.52.75-2.52 1.86c0 .87.65 1.39 2.25 1.79l1.37.33c2.55.6 3.61 1.63 3.61 3.44 0 2.33-1.86 3.78-4.8 3.78-2.75 0-4.61-1.42-4.73-3.66l1.9.05zm11.64-7.7v2.14h1.72v1.47h-1.72v5c0 .77.34 1.13 1.1 1.13.203.012.407.012.61 0v1.46c-.33.062-.665.092-1 .09-1.84 0-2.55-.69-2.55-2.45v-5.23h-1.35v-1.47h1.32V19.3h1.87zm2.71 6.7c0-2.85 1.68-4.64 4.3-4.64s4.29 1.79 4.29 4.64c0 2.85-1.65 4.61-4.29 4.61s-4.3-1.78-4.3-4.61zm6.7 0c0-1.95-.9-3.11-2.4-3.11S88 24 88 26c0 2 .89 3.11 2.4 3.11 1.51 0 2.36-1.18 2.36-3.11zm3.43-4.56H98V23c.25-.99 1.16-1.67 2.18-1.63.215-.003.43.02.64.07v1.74A2.358 2.358 0 00100 23a1.882 1.882 0 00-2 2.13v5.37h-1.81v-9.06zm13.19 6.4c-.25 1.64-1.85 2.77-3.89 2.77-2.64 0-4.27-1.77-4.27-4.6 0-2.83 1.64-4.68 4.19-4.68 2.55 0 4.08 1.72 4.08 4.47v.63h-6.4v.12a2.359 2.359 0 002.44 2.56 2.05 2.05 0 002.09-1.27h1.76zm-6.28-2.71h4.53a2.167 2.167 0 00-2.22-2.29 2.3 2.3 0 00-2.31 2.29zM37.83 8.73a2.642 2.642 0 012.8 3c0 1.9-1 3-2.8 3h-2.16v-6h2.16zm-1.23 5.12h1.12a1.87 1.87 0 002-2.14 1.877 1.877 0 00-2-2.14H36.6v4.28zm5.08-1.41a2.132 2.132 0 013.232-1.966 2.132 2.132 0 011.018 1.966 2.132 2.132 0 01-3.232 1.966 2.132 2.132 0 01-1.018-1.966zm3.33 0c0-1-.43-1.54-1.2-1.54s-1.21.57-1.21 1.54c0 .97.4 1.56 1.21 1.56.81 0 1.19-.58 1.19-1.56h.01zm6.56 2.26h-.92l-.93-3.32h-.07l-.93 3.32h-.91l-1.24-4.51h.9l.81 3.44h.06l.93-3.44h.85l.93 3.44h.07l.8-3.44h.89zm2.28-4.51h.86v.72h.07a1.33 1.33 0 011.34-.8 1.462 1.462 0 011.56 1.67v2.92h-.89V12c0-.73-.32-1.09-1-1.09a.998.998 0 00-1.08 1.14v2.65h-.89l.03-4.51zm5.24-1.75H60v6.26h-.89zm2.13 4a2.132 2.132 0 013.232-1.966 2.132 2.132 0 011.018 1.966 2.132 2.132 0 01-3.232 1.966 2.132 2.132 0 01-1.018-1.966zm3.33 0c0-1-.44-1.54-1.21-1.54s-1.2.57-1.2 1.54c0 .97.43 1.56 1.2 1.56s1.21-.58 1.21-1.56zm1.85.98c0-.81.6-1.27 1.68-1.34L69.3 12v-.39c0-.47-.32-.74-.93-.74-.61 0-.84.18-.93.5h-.87c.1-.78.82-1.27 1.84-1.27s1.77.56 1.77 1.51v3.09h-.86v-.64h-.07c-.286.467-.804.74-1.35.71a1.36 1.36 0 01-1.5-1.35zm2.9-.42v-.38l-1.1.07c-.62 0-.91.26-.91.65s.36.64.84.64c.286.03.573-.057.793-.241.22-.185.357-.452.377-.739zm2.05-.56c0-1.42.73-2.32 1.87-2.32a1.49 1.49 0 011.38.79h.06V8.44h.89v6.26h-.85V14h-.07a1.56 1.56 0 01-1.41.78c-1.15-.01-1.87-.91-1.87-2.34zm.92 0c0 1 .45 1.53 1.2 1.53s1.21-.58 1.21-1.52c0-.94-.47-1.53-1.21-1.53s-1.2.58-1.2 1.52zm6.96 0a2.132 2.132 0 013.232-1.966 2.132 2.132 0 011.018 1.966 2.132 2.132 0 01-3.232 1.966 2.132 2.132 0 01-1.018-1.966zm3.33 0c0-1-.44-1.54-1.2-1.54s-1.21.57-1.21 1.54c0 .97.43 1.56 1.21 1.56s1.2-.58 1.2-1.56zm2.11-2.25h.85v.72h.07a1.36 1.36 0 011.35-.8 1.46 1.46 0 011.55 1.67v2.92h-.88V12c0-.73-.32-1.09-1-1.09a1 1 0 00-1.07 1.14v2.65h-.89l.02-4.51zm8.85-1.12v1.15h1V11h-1v2.32c0 .47.19.68.63.68h.34v.74c-.16.011-.32.011-.48 0-1 0-1.38-.34-1.38-1.21V11h-.72v-.74h.72V9.07h.89zm2.18-.63h.89v2.48h.07a1.37 1.37 0 011.34-.81 1.481 1.481 0 011.55 1.68v2.91h-.89V12c0-.72-.33-1.08-1-1.08a1.061 1.061 0 00-1.14 1.14v2.64h-.82V8.44zm9.06 5.04a1.82 1.82 0 01-2 1.3 1.998 1.998 0 01-2.08-2.32 2.08 2.08 0 012.08-2.35c1.25 0 2 .85 2 2.27v.31h-3.17v.05a1.183 1.183 0 001.24 1.26c.438.05.863-.167 1.08-.55l.85.03zM101.64 12h2.27a1.088 1.088 0 00-1.11-1.17 1.152 1.152 0 00-1.16 1.17z"/></svg>