<?xml version="1.0" encoding="UTF-8"?>
<svg id="a" data-name="Layer 1" viewBox="0 0 200 200" xmlns="http://www.w3.org/2000/svg">
<defs>
<style>.cls-1{fill:#f0f0f0;}.cls-2{fill:#63a444;}.cls-2,.cls-3{fill-rule:evenodd;}.cls-3{fill:#186db6;}.cls-4{fill:#fff;}</style>
</defs>
<title>appolicious</title>
<rect class="cls-1" width="200" height="200"/>
<path class="cls-2" d="M74.417,82.128H178.836A1.168,1.168,0,0,1,180,83.292v33.416a1.168,1.168,0,0,1-1.164,1.164H21.165A1.168,1.168,0,0,1,20,116.708V83.292a1.168,1.168,0,0,1,1.165-1.164Z"/>
<path class="cls-3" d="M178.836,82.128H74.417v35.745H178.836A1.168,1.168,0,0,0,180,116.708V83.292a1.168,1.168,0,0,0-1.164-1.164"/>
<path class="cls-4" d="M31.957,103.626c0-1.726,2.588-1.972,4.215-1.972h.567V102c0,1.528-1.158,3.3-2.884,3.3a1.724,1.724,0,0,1-1.9-1.676m-3.106.32c0,2.342,1.923,3.747,4.166,3.747a4.283,4.283,0,0,0,3.895-2.219h.049v.542c0,.739.419,1.381,1.578,1.381h2.835V104.76h-.986a.493.493,0,0,1-.542-.542V99.534c0-2.859-1.232-5-5.522-5-1.208,0-4.536.271-4.536,2.589v1.331h2.934v-.666c0-.69,1.109-.838,1.676-.838,1.6,0,2.317.666,2.317,2.391v.172H36.32C34.274,99.509,28.851,99.731,28.851,103.947Z"/>
<path class="cls-4" d="M47.207,101.186c0-2.785,1.528-3.969,3.18-3.969,1.824,0,3.106,1.553,3.106,3.944,0,2.49-1.43,3.9-3.155,3.9-2.071,0-3.131-1.923-3.131-3.87m-3.032,11.142h3.131v-5.2c0-.641-.049-1.085-.049-1.085h.049a4.387,4.387,0,0,0,3.6,1.652c3.3,0,5.744-2.588,5.744-6.582,0-3.9-2.17-6.582-5.571-6.582a4.437,4.437,0,0,0-3.993,2h-.05v-.493c0-.69-.419-1.208-1.578-1.208h-2.81v2.662h.986a.482.482,0,0,1,.542.542Z"/>
<path class="cls-4" d="M62.551,101.186c0-2.785,1.528-3.969,3.18-3.969,1.824,0,3.106,1.553,3.106,3.944,0,2.49-1.43,3.9-3.155,3.9-2.071,0-3.131-1.923-3.131-3.87m-3.032,11.142H62.65v-5.2c0-.641-.049-1.085-.049-1.085h.049a4.387,4.387,0,0,0,3.6,1.652c3.3,0,5.744-2.588,5.744-6.582,0-3.9-2.169-6.582-5.571-6.582a4.437,4.437,0,0,0-3.993,2h-.049v-.493c0-.69-.419-1.208-1.578-1.208h-2.81v2.662h.986a.482.482,0,0,1,.542.542Z"/>
<path class="cls-4" d="M79.973,101.112a3.739,3.739,0,1,1,3.747,3.919,3.757,3.757,0,0,1-3.747-3.919m-3.156,0A6.9,6.9,0,1,0,83.7,94.53,6.581,6.581,0,0,0,76.817,101.112Z"/>
<path class="cls-4" d="M93.6,105.721c0,1.183.493,1.676,1.652,1.676h2.983V104.76h-.986a.493.493,0,0,1-.542-.542V91.571c0-1.158-.493-1.676-1.652-1.676H92.069v2.662h.986a.483.483,0,0,1,.543.542Z"/>
<path class="cls-4" d="M101.244,105.721c0,1.183.493,1.676,1.652,1.676h2.983V104.76h-.986a.493.493,0,0,1-.542-.542V96.5c0-1.158-.493-1.676-1.652-1.676H99.716v2.662h.986a.482.482,0,0,1,.542.542Zm.148-12.942H104.1V89.9h-2.712Z"/>
<path class="cls-4" d="M107.345,101.112a6.463,6.463,0,0,0,6.828,6.582,7.1,7.1,0,0,0,5.275-2.268l-1.282-2.169a5.755,5.755,0,0,1-3.722,1.7,3.9,3.9,0,0,1-.222-7.79c.764,0,1.824.3,1.824.986v.69h2.736V97.365c0-2.169-2.933-2.835-4.561-2.835a6.476,6.476,0,0,0-6.878,6.582"/>
<path class="cls-4" d="M122.574,105.721c0,1.183.493,1.676,1.652,1.676h2.983V104.76h-.986a.493.493,0,0,1-.543-.542V96.5c0-1.158-.493-1.676-1.652-1.676h-2.983v2.662h.986a.482.482,0,0,1,.542.542Zm.148-12.942h2.712V89.9h-2.712Z"/>
<path class="cls-4" d="m131.6 101.11a3.739 3.739 0 1 1 3.747 3.919 3.757 3.757 0 0 1 -3.747 -3.919m-3.156 0a6.9 6.9 0 1 0 6.878 -6.582 6.581 6.581 0 0 0 -6.881 6.582z"/>
<path class="cls-4" d="M145.15,102.911c0,3.426,1.652,4.782,4.339,4.782a4.748,4.748,0,0,0,4.338-2.613h.049s-.025.271-.025.567v.345c0,.887.567,1.405,1.652,1.405h2.884V104.76H157.4a.493.493,0,0,1-.542-.542V94.825h-3.131v5.768c0,2.243-1.257,4.24-3.525,4.24-1.528,0-1.947-1.035-1.947-2.564V96.477c0-1.134-.493-1.652-1.652-1.652h-2.983v2.662h.986a.483.483,0,0,1,.542.542Z"/>
<path class="cls-4" d="M159.969,105.45a6.893,6.893,0,0,0,5.226,2.243c2.737,0,4.832-1.479,4.832-3.846,0-4.191-6.656-3.8-6.656-5.768,0-.74.764-1.134,1.849-1.134.69,0,1.6.3,1.6.887v.616h2.736V97.143c0-2.046-2.687-2.613-4.413-2.613-2.588,0-4.856,1.159-4.856,3.673,0,4.068,6.607,4.043,6.607,5.818,0,.838-.74,1.233-1.676,1.233a5.641,5.641,0,0,1-3.772-1.849Z"/>
<polygon class="cls-4" points="170.34 93.338 169.7 93.338 169.7 91.124 168.9 91.124 168.9 90.679 171.06 90.679 171.06 91.124 170.34 91.124"/>
<polygon class="cls-4" points="173.16 92.009 173.84 90.683 174.57 90.683 174.57 93.338 173.97 93.338 173.97 91.695 173.42 92.653 172.88 92.653 172.34 91.692 172.34 93.338 171.73 93.338 171.73 90.683 172.47 90.683 173.15 92.009"/>
</svg>
