<?xml version="1.0" encoding="UTF-8"?>
<svg id="a" data-name="Layer 1" viewBox="0 0 200 200" xmlns="http://www.w3.org/2000/svg">
<defs>
<style>.cls-1,.cls-2{fill:#fff;}.cls-2{opacity:0.8;isolation:isolate;}</style>
</defs>
<title>chemistryworld</title>
<rect width="200" height="200"/>
<path class="cls-1" d="M140.2,106.648A6.648,6.648,0,1,1,146.846,100a6.655,6.655,0,0,1-6.646,6.648Zm0-11.094A4.445,4.445,0,1,0,144.643,100a4.45,4.45,0,0,0-4.444-4.445Z"/>
<path class="cls-2" d="M43.363,106.436V93.563h7.518V95.6H45.618v3.08h4.521V100.7H45.618v3.676h5.353v2.057Zm16.342.435-3.726-7.6L54.6,106.436H52.451l2.636-13.29h.193l4.554,9.327,4.536-9.327h.194l2.617,13.29H64.906l-1.378-7.16-3.582,7.6H59.7Zm9.607-.435V93.563h2.328v12.874Zm8.46.435a8.015,8.015,0,0,1-3.468-.763l-.018-.008-.206-2.6.057.037a6.642,6.642,0,0,0,3.526,1.3c1.311,0,2.227-.723,2.227-1.757,0-.886-.488-1.489-1.864-2.3l-.959-.579c-1.627-.963-2.711-1.952-2.711-3.647,0-2.011,1.613-3.416,3.922-3.416a7.1,7.1,0,0,1,3.234.781l.02.01-.075,2.12-.048-.026A6.588,6.588,0,0,0,78.441,95c-1.15,0-1.865.549-1.865,1.432,0,.793.611,1.3,1.737,1.96l.923.543c2.145,1.272,2.982,2.416,2.982,4.081,0,2.3-1.787,3.85-4.446,3.85Zm9.623-.435V95.584H83.072V93.563H94.026v2.021h-4.3v10.853H87.394Zm15.423,0-3.888-5.317H97.895v5.317H95.621V93.563h3a6.547,6.547,0,0,1,4.016.893,3.369,3.369,0,0,1,1.515,2.759,3.7,3.7,0,0,1-2.783,3.581l4.153,5.642h-2.706Zm-3.925-7.031c1.93,0,2.95-.7,2.95-2.01,0-1.34-.971-1.938-3.148-1.938h-.8v3.948h1Zm10.5,7.031v-5.858L104.6,93.563h2.722l3.383,5.039,3.671-5.039h2.507l-5.175,7,.007,5.874H109.39Z"/>
<path class="cls-1" d="M155.484,106.436l-3.888-5.317h-1.034v5.317h-2.274V93.563h3a6.548,6.548,0,0,1,4.016.893,3.367,3.367,0,0,1,1.515,2.759,3.7,3.7,0,0,1-2.782,3.581l4.153,5.642h-2.706Zm-3.925-7.031c1.93,0,2.95-.7,2.95-2.01,0-1.34-.971-1.938-3.149-1.938h-.8v3.948h1Zm8.193,7.031V93.563h2.31v10.8h5.5v2.075h-7.807Zm9.421,0V93.563H172.3c4.75,0,7.7,2.466,7.7,6.437a6.022,6.022,0,0,1-3.182,5.474,8.75,8.75,0,0,1-4.519.963h-3.126Zm3.415-2.111c3.161,0,5.048-1.617,5.048-4.326s-1.887-4.326-5.048-4.326h-1.124v8.651ZM117.763,93.564h2.649l6.917,10.373-1.095,2.543Zm5.506,0h2.649l6.917,10.373-1.094,2.543-8.471-12.917Z"/>
<path class="cls-2" d="M38.873,106.436V100.7H32.829v5.734H30.537V93.563h2.292v5.1h6.045v-5.1h2.274v12.874Zm-12.227.211a6.6,6.6,0,0,0,1.526-.179v-2.3a4.4,4.4,0,0,1-1.526.274,4.445,4.445,0,0,1,0-8.891,4.384,4.384,0,0,1,1.526.274v-2.3a6.647,6.647,0,1,0-1.526,13.117Z"/>
</svg>
