<?xml version="1.0" encoding="UTF-8"?>
<svg id="a" data-name="Layer 1" viewBox="0 0 200 200" xmlns="http://www.w3.org/2000/svg">
<defs>
<style>.cls-1{fill:#ec272c;}.cls-2{fill:#fff;fill-rule:evenodd;}</style>
</defs>
<title>c&amp;amp;en</title>
<rect class="cls-1" width="200" height="200"/>
<path class="cls-2" d="M84.086,92.234c2.776-1.9,3.657-6.825.138-6.825-3.063,0-1.8,5.3-.138,6.825m1.7,14.174c-.238-.508-7.085-9-8.016-10.375-1.728,1.409-2.4,5.149-1.043,7.872C77.927,106.325,80.722,107.942,85.785,106.408Zm-9.138-12.18c-6.088.943-8.847,4.744-8.81,8.35.041,3.975,3.392,7.854,10.092,7.854a17.983,17.983,0,0,0,9.834-2.073c3.981,3.9,10.353,2.324,11.944-.206V106.8c-4.172,0-4.9-1.2-6.66-3.352A27.836,27.836,0,0,0,97,96.193l2.936-.226.218-2.041-9.637-.041.234,2.09c.271.005,2.1.235,2.335.238a12.05,12.05,0,0,1-1.671,5.214L85.392,94c8.715-3.179,7.217-11.334-1.236-11.4C72.778,83.136,75.739,93.342,76.647,94.228Z"/>
<path class="cls-2" d="M136.222,85.573h-2.032l-8.756,3.558v1.355l3.746,1.7,0,5.95,0,6.628v2.71l-3.338.387.007,2.459,13.3.05,0-1.265,0-1.265-2.745-.484v-2.936c-.043-2.078,0-7.14,0-9.224,0-.876-.242-3.961,4.561-4.872,1.862-.353,3.849.45,3.849,1.767v15.322l-2.513.425-.02,2.531H155l-.006-2.531-3.108-.328V99.826c0-3.179.416-8.008-.74-10.6a7.168,7.168,0,0,0-7.7-3.806,10.86,10.86,0,0,0-7.662,5.462l-.2-.053Z"/>
<path class="cls-2" d="M108.863,94.742h7.852c.312-9.771-8.1-8.72-7.852,0m14.3,11.973c-.3-.309-.777-1.212-1.083-1.36-1.305.75-4.58,1.161-6.281,1.262-3.923.232-7.4-.789-6.911-8.9h14.874l.406-.485c-.145-6.244-3.438-11.037-9.269-12.008-7.048-1.135-12.355,2.931-13.762,8.7a16.762,16.762,0,0,0,.723,10.1c1.9,4.255,5.577,6.117,9.535,6.5A15.15,15.15,0,0,0,123.159,106.716Z"/>
<path class="cls-2" d="M66.733,107.137c-.3-.285-1-1.325-1.309-1.461a9.716,9.716,0,0,1-5.013,1.159c-3.807.058-5.7-.67-6.91-4.626a16.761,16.761,0,0,1-.657-4.349c-.187-6.574,2.485-11.875,9.416-9.586,0,.275-2.145,1.652-2.26,3.708a3.24,3.24,0,0,0,2.119,3.461,3.546,3.546,0,0,0,4.357-1.516A5.606,5.606,0,0,0,64.857,87.1a11.469,11.469,0,0,0-8.894-1.894c-5,.822-8.625,3.3-10.256,8.3-1.777,5.44-.2,12.144,4.694,15.122,5.024,3.054,12.378,2.333,16.331-1.489"/>
<path class="cls-2" d="M59.343,113.287a3.849,3.849,0,0,1,.545.156l0,3.524a4.51,4.51,0,0,1-.542.159l0,.207,1.477.006,0-.214-.489-.148L60.2,113.7l.35.837c.126.29.247.587.361.879l.724,1.784h.4l1.317-3.579.006,3.362-.466.145-.017.219h1.949l0-.22-.544-.138v-3.549l.546-.146,0-.209H63.139l-1.057,2.93-1.146-2.927-1.587,0Z"/>
<polygon class="cls-2" points="50.025 113.3 50.567 113.43 50.57 116.98 50.033 117.12 50.026 117.34 52.002 117.34 51.998 117.12 51.485 116.98 51.485 115.37 53.339 115.36 53.347 116.98 52.822 117.13 52.82 117.33 54.804 117.34 54.801 117.12 54.257 116.98 54.256 113.43 54.803 113.29 54.8 113.08 52.824 113.08 52.819 113.28 53.338 113.43 53.347 115.02 51.489 115.03 51.485 113.43 51.999 113.29 51.997 113.08 50.034 113.08"/>
<path class="cls-2" d="M73.068,115.455h1.2l-.59-1.509Zm-1.586,1.666-.005.22H73l0-.22-.531-.139.47-1.185h1.483l.468,1.182-.541.144-.007.218h1.972l0-.221-.467-.174-1.646-3.914-.438-.02-1.769,3.96Z"/>
<path class="cls-2" d="M55.178,113.287a3.85,3.85,0,0,1,.545.156l0,3.524-.542.159,0,.207,3.713.006.165-1.508-.256,0-.641,1.159-1.523.083V115.3l.7.027.277.6.148,0,.012-1.592-.164,0-.266.639-.7.057,0-1.708,1.324.1c.219.315.431.644.643.964l.17.007-.123-1.295-3.465-.014Z"/>
<path class="cls-2" d="M76.662,113.3l.54.133.009,3.552-.54.143-.008.218H80.1c.084-.052.055-.009.073-.142l.17-1.429-.149-.03-.749,1.231-1.317.126-.007-3.662.572-.145,0-.21H76.672Z"/>
<path class="cls-2" d="M49.679,116.418l-.2-.158a1.606,1.606,0,0,1-1.88.706c-.554-.247-.754-1.021-.745-1.842.01-.884.32-1.784,1.2-1.784.853-.02,1.264.837,1.39,1.18l.156-.031-.137-1.4-.176-.012-.16.285A1.607,1.607,0,0,0,47.88,113a2.206,2.206,0,0,0-1.932,2.753,2.082,2.082,0,0,0,1.58,1.583,2.125,2.125,0,0,0,1.343-.133,1.8,1.8,0,0,0,.807-.785"/>
<path class="cls-2" d="M65.2,113.279l.576.149.011,3.556a4.114,4.114,0,0,0-.583.152l0,.19,2.094.016,0-.219-.588-.14v-3.557l.588-.136v-.209H65.206Z"/>
<path class="cls-2" d="M119.045,115.12l.469.01c.734,0,.869-.22.869-.917,0-.357-.056-.641-.33-.746a3.336,3.336,0,0,0-1.009-.048Zm-1.455-1.854.543.163v3.55l-.544.145.007.209h2l.007-.2-.551-.154-.005-1.519c1-.114.987.307,1.388,1.465.164.472.353.415.432.413l1-.005c.019-.262,0-.209-.264-.3-.176-.063-.153-.091-.226-.247a4.436,4.436,0,0,0-.667-1.164c-.239-.227-.342-.172-.626-.287.219-.1,1.227-.161,1.227-1.086,0-1.308-1.705-1.165-2.477-1.165h-1.254Z"/>
<polygon class="cls-2" points="92.59 113.29 93.125 113.43 93.134 116.94 92.59 117.12 92.596 117.34 93.396 117.34 94.196 117.34 94.106 117.09 93.601 116.97 93.431 113.68 96.128 117.39 96.553 117.39 96.561 113.42 97.022 113.28 97.053 113.08 96.279 113.08 95.504 113.08 95.52 113.28 96.086 113.43 96.224 116.03 94.114 113.09 92.59 113.08"/>
<polygon class="cls-2" points="144.64 113.27 145.09 113.42 146.55 117.38 146.96 117.39 147.92 114.63 148.94 117.39 149.39 117.39 150.77 113.43 151.24 113.28 151.24 113.08 149.76 113.07 149.76 113.27 150.27 113.43 149.42 116.34 148.36 113.42 148.91 113.28 148.91 113.08 147.04 113.07 147.04 113.29 147.45 113.42 147.71 114.1 147.04 116.32 146.03 113.44 146.52 113.28 146.53 113.07 144.64 113.07"/>
<path class="cls-2" d="M151.527,115.73l-.179.033.139,1.562.173.009.207-.343a1.93,1.93,0,0,0,1.152.385,2.006,2.006,0,0,0,.682-.1,1.257,1.257,0,0,0,.792-1.5c-.184-.822-1.187-1-1.852-1.25a1.033,1.033,0,0,1-.481-.287.572.572,0,0,1,.534-.873c.857-.051,1.232.771,1.359,1.009l.13-.036-.111-1.248h-.2l-.145.228a4.353,4.353,0,0,0-.527-.24,1.37,1.37,0,0,0-1.639.615,1.243,1.243,0,0,0,.123,1.227c.54.632,1.8.675,2.063,1.1a.647.647,0,0,1-.408.99c-.844.214-1.543-.567-1.813-1.274"/>
<path class="cls-2" d="M71.48,116.418l-.2-.158a1.606,1.606,0,0,1-1.88.706c-.554-.247-.754-1.021-.745-1.842.01-.884.42-1.741,1.2-1.741.966-.02,1.258.9,1.347,1.313l.18-.029-.119-1.577-.176-.012-.16.285a1.626,1.626,0,0,0-1.251-.334,2.188,2.188,0,0,0-1.932,2.724,2.082,2.082,0,0,0,1.58,1.583,2.126,2.126,0,0,0,1.343-.133,1.8,1.8,0,0,0,.807-.785"/>
<path class="cls-2" d="M88.425,113.292a3.863,3.863,0,0,1,.545.156l0,3.524-.542.159,0,.207,3.713.006.165-1.508-.256,0-.641,1.159-1.523.083v-1.765l.7.027.277.6.148,0,.012-1.593-.164,0-.266.639-.7.057,0-1.709,1.323.1c.22.315.431.644.643.964l.17.007L91.9,113.1l-3.465-.014Z"/>
<path class="cls-2" d="M100.726,116.828l.3.5.193,0,0-.8,0-.8.444-.18v-.17H99.807l0,.16.546.183.012,1.075a1.236,1.236,0,0,1-1.683-.2,2.793,2.793,0,0,1-.306-1.425c0-.9.307-1.853,1.346-1.808.709.031,1.074.742,1.237,1.17l.156-.031-.137-1.4-.176-.012-.16.284a1.6,1.6,0,0,0-1.13-.373,2.04,2.04,0,0,0-1.141.353,2.238,2.238,0,0,0,.141,3.786,1.956,1.956,0,0,0,1.1.221,1.893,1.893,0,0,0,1.112-.554"/>
<path class="cls-2" d="M101.98,113.275l.576.149.011,3.556a4.113,4.113,0,0,0-.583.152l0,.19,2.094.015,0-.219-.588-.141v-3.557l.588-.136v-.209h-2.087Z"/>
<polygon class="cls-2" points="104.45 113.28 104.98 113.42 104.99 116.94 104.45 117.12 104.45 117.33 105.25 117.33 106.05 117.33 105.96 117.08 105.46 116.96 105.29 113.68 107.98 117.39 108.41 117.39 108.42 113.42 108.88 113.28 108.91 113.07 108.14 113.07 107.36 113.07 107.38 113.27 107.94 113.43 108.08 116.02 105.97 113.08 104.45 113.07"/>
<path class="cls-2" d="M109.257,113.289a3.86,3.86,0,0,1,.545.156l0,3.524-.542.159,0,.207,3.713.006.165-1.508-.256,0-.641,1.159-1.523.083v-1.765l.7.027.277.6.148,0,.012-1.592-.164,0-.266.639-.7.057,0-1.708,1.323.1c.22.315.431.644.643.964l.17.007-.123-1.295-3.465-.014Z"/>
<path class="cls-2" d="M113.422,113.289a3.869,3.869,0,0,1,.545.156l0,3.524-.542.159,0,.207,3.713.006.165-1.508-.256,0-.641,1.159-1.523.083v-1.765l.7.027.277.6.148,0,.012-1.592-.164,0-.266.639-.7.057,0-1.708,1.324.1c.219.315.431.644.643.964l.17.007-.123-1.295-3.465-.014Z"/>
<path class="cls-2" d="M122.095,113.275l.576.149.01,3.556a4.114,4.114,0,0,0-.583.152l0,.19,2.094.015,0-.219-.588-.141v-3.557l.588-.136v-.209H122.1Z"/>
<polygon class="cls-2" points="124.68 113.29 125.22 113.43 125.23 116.94 124.68 117.12 124.69 117.34 125.49 117.34 126.29 117.34 126.2 117.09 125.7 116.97 125.53 113.68 128.22 117.39 128.65 117.39 128.66 113.42 129.12 113.28 129.15 113.08 128.37 113.08 127.6 113.08 127.61 113.28 128.18 113.43 128.32 116.03 126.21 113.09 124.68 113.08"/>
<path class="cls-2" d="M132.821,116.828l.3.5.193,0,0-.8,0-.8.444-.18v-.17H131.9l0,.16.546.183.012,1.075a1.236,1.236,0,0,1-1.683-.2,2.79,2.79,0,0,1-.306-1.425c0-.9.307-1.853,1.346-1.808.709.031,1.074.742,1.237,1.17l.156-.031-.137-1.4-.176-.012-.16.284a1.6,1.6,0,0,0-1.13-.373,2.039,2.039,0,0,0-1.141.353,2.238,2.238,0,0,0,.141,3.786,1.956,1.956,0,0,0,1.1.221,1.893,1.893,0,0,0,1.112-.554"/>
<path class="cls-2" d="M140.682,113.274a3.866,3.866,0,0,1,.545.156l0,3.524-.542.159,0,.207,3.712.006.165-1.508-.256,0-.641,1.159-1.523.083v-1.765l.7.027.277.6.148,0,.012-1.592-.164,0-.266.639-.7.057,0-1.709,1.323.1c.22.315.431.644.643.964l.17.007-.123-1.295-3.465-.014Z"/>
<polygon class="cls-2" points="135.9 113.29 136.43 113.43 136.44 116.94 135.9 117.12 135.9 117.34 136.7 117.34 137.5 117.34 137.41 117.09 136.91 116.97 136.74 113.68 139.43 117.39 139.86 117.39 139.87 113.42 140.33 113.28 140.36 113.08 139.58 113.08 138.81 113.08 138.82 113.28 139.39 113.43 139.53 116.03 137.42 113.09 135.9 113.08"/>
<path class="cls-2" d="M84.366,114.491c.479-.229.493-1.157.085-1.209-.565-.072-.392.954-.085,1.209m.632,2.2c-.591-.732-1.135-1.518-1.312-1.749-.307.106-.52.726-.424,1.25a.842.842,0,0,0,.77.756A1.616,1.616,0,0,0,85,116.687Zm-1.424-1.957a1.392,1.392,0,0,0-1.183,1.706,1.453,1.453,0,0,0,1.487.9,2.253,2.253,0,0,0,1.285-.439c.174.113.278.4.8.434.266.017.847-.04.847-.383-.367,0-.488.126-1.089-.686.328-.559.539-1.189.621-1.306l.492-.151,0-.168H85.445l.009.164a4.486,4.486,0,0,0,.426.153,2.8,2.8,0,0,1-.361,1.028,16.23,16.23,0,0,1-1.02-1.3c.2-.09.689-.32.783-.761a.783.783,0,0,0-.759-.945,1.043,1.043,0,0,0-1.026.448C83.218,113.911,83.39,114.27,83.575,114.731Z"/>
</svg>
