<?xml version="1.0" encoding="UTF-8"?>
<svg id="a" data-name="Layer 1" viewBox="0 0 200 200" xmlns="http://www.w3.org/2000/svg">
<defs>
<style>.cls-1{fill:#fff;}.cls-2,.cls-3{fill:#ee7211;}.cls-3{fill-rule:evenodd;}</style>
</defs>
<title>timewarnercable</title>
<rect width="200" height="200"/>
<path class="cls-1" d="M72.432,59.749h3.175v.768a6.354,6.354,0,0,1-.685,3.208,5.116,5.116,0,0,1-1.9,1.871,5.047,5.047,0,0,1-5.3-.1,5.334,5.334,0,0,1-1.938-2.106,6.72,6.72,0,0,1-.5-2.874v-11.5a5.384,5.384,0,0,1,1.47-3.876,4.916,4.916,0,0,1,3.709-1.537,4.85,4.85,0,0,1,3.676,1.554,5.4,5.4,0,0,1,1.47,3.86v1.17H72.432v-1.17q0-2.206-1.972-2.206a1.878,1.878,0,0,0-1.453.6,2.28,2.28,0,0,0-.552,1.6v11.5a6.472,6.472,0,0,0,.084,1.32,1.6,1.6,0,0,0,.451.685,2.045,2.045,0,0,0,3.208-.4,3.623,3.623,0,0,0,.234-1.6Z"/>
<path class="cls-1" d="M85.479,60.585V49.222a2.439,2.439,0,0,0-.4-1.537,2.125,2.125,0,0,0-1.738-.9,2.289,2.289,0,0,0-1.353.468,1.986,1.986,0,0,0-.819,1.1,4.242,4.242,0,0,0-.067.869V60.585a2.422,2.422,0,0,0,.7,1.938,2.273,2.273,0,0,0,1.5.6,2.1,2.1,0,0,0,1.905-1.136,2.9,2.9,0,0,0,.267-1.4m3.175-11.362V60.685a5.582,5.582,0,0,1-1.17,3.642,5.447,5.447,0,0,1-8.037.384,5.585,5.585,0,0,1-1.52-4.027V49.222a5.585,5.585,0,0,1,1.52-4.027,5.447,5.447,0,0,1,8.037.384A5.584,5.584,0,0,1,88.653,49.222Z"/>
<polygon class="cls-1" points="102.32 43.809 102.32 66.099 99.343 66.099 94.364 52.564 94.364 66.099 91.189 66.099 91.189 43.809 94.163 43.809 99.142 57.309 99.142 43.809"/>
<polygon class="cls-1" points="116.12 43.809 116.12 66.099 113.14 66.099 108.16 52.564 108.16 66.099 104.99 66.099 104.99 43.809 107.96 43.809 112.94 57.309 112.94 43.809"/>
<polygon class="cls-1" points="121.97 56.307 121.97 62.924 128.32 62.924 128.32 66.099 118.79 66.099 118.79 43.809 128.32 43.809 128.32 46.783 121.97 46.783 121.97 53.333 127.55 53.333 127.55 56.307"/>
<path class="cls-1" d="M137.215,59.749h3.175v.768a6.354,6.354,0,0,1-.685,3.208A5.122,5.122,0,0,1,137.8,65.6a5.047,5.047,0,0,1-5.3-.1,5.34,5.34,0,0,1-1.938-2.106,6.721,6.721,0,0,1-.5-2.874v-11.5a5.384,5.384,0,0,1,1.47-3.876,4.915,4.915,0,0,1,3.709-1.537,4.851,4.851,0,0,1,3.676,1.554,5.4,5.4,0,0,1,1.47,3.86v1.17h-3.175v-1.17q0-2.206-1.972-2.206a1.879,1.879,0,0,0-1.454.6,2.282,2.282,0,0,0-.551,1.6v11.5a6.484,6.484,0,0,0,.083,1.32,1.607,1.607,0,0,0,.451.685,2.045,2.045,0,0,0,3.208-.4,3.624,3.624,0,0,0,.234-1.6Z"/>
<polygon class="cls-1" points="148.23 46.783 148.23 66.099 145.05 66.099 145.05 46.783 141.31 46.783 141.31 43.809 152.04 43.809 152.04 46.783"/>
<path class="cls-1" d="M63.431,85.587h-1.2q-1.972,0-1.972,1.5v.768q0,1.738,1.638,1.738a1.43,1.43,0,0,0,1.2-.568,3.525,3.525,0,0,0,.334-1.9Zm0,6.984v-1.6a3.284,3.284,0,0,1-3.008,1.8,3.353,3.353,0,0,1-1.971-.635A3.2,3.2,0,0,1,57.215,90.5a5.6,5.6,0,0,1-.167-1.571v-1.8a4.042,4.042,0,0,1,1.738-3.442,4.814,4.814,0,0,1,2.84-.7h1.8V81.61a2.2,2.2,0,0,0-.3-1.3,1.527,1.527,0,0,0-1.27-.669,1.489,1.489,0,0,0-1.6,1.538H57.048a4.767,4.767,0,0,1,1.437-3.359,4.8,4.8,0,0,1,6.717.034,4.509,4.509,0,0,1,1.4,3.325v11.4Z"/>
<polygon class="cls-1" points="88.632 70.281 88.632 92.571 85.457 92.571 85.457 79.003 82.249 88.528 80.645 88.528 77.504 79.003 77.504 92.571 74.329 92.571 74.329 70.281 77.27 70.281 81.514 82.145 85.658 70.281"/>
<rect class="cls-1" x="91.654" y="70.281" width="3.175" height="22.29"/>
<polygon class="cls-1" points="100.93 89.397 107.28 89.397 107.28 92.571 97.755 92.571 97.755 70.281 100.93 70.281"/>
<polygon class="cls-1" points="112.44 89.397 118.79 89.397 118.79 92.571 109.27 92.571 109.27 70.281 112.44 70.281"/>
<rect class="cls-1" x="120.87" y="70.281" width="3.175" height="22.29"/>
<path class="cls-1" d="M134.325,87.057V75.7a2.44,2.44,0,0,0-.4-1.537,2.126,2.126,0,0,0-1.738-.9,2.289,2.289,0,0,0-1.353.468,1.984,1.984,0,0,0-.819,1.1,4.243,4.243,0,0,0-.067.869V87.057a2.423,2.423,0,0,0,.7,1.938,2.273,2.273,0,0,0,1.5.6,2.1,2.1,0,0,0,1.905-1.136,2.9,2.9,0,0,0,.267-1.4M137.5,75.7V87.158a5.581,5.581,0,0,1-1.17,3.643,5.446,5.446,0,0,1-8.037.384,5.586,5.586,0,0,1-1.521-4.027V75.7a5.585,5.585,0,0,1,1.521-4.027,5.446,5.446,0,0,1,8.037.384A5.582,5.582,0,0,1,137.5,75.7Z"/>
<polygon class="cls-1" points="151.16 70.281 151.16 92.571 148.19 92.571 143.21 79.037 143.21 92.571 140.04 92.571 140.04 70.281 143.01 70.281 147.99 83.782 147.99 70.281"/>
<polygon class="cls-2" points="104.39 96.993 104.39 119.02 101.25 119.02 101.25 105.61 98.084 115.02 96.499 115.02 93.395 105.61 93.395 119.02 90.258 119.02 90.258 96.993 93.164 96.993 97.357 108.72 101.45 96.993"/>
<rect class="cls-2" x="107.57" y="96.993" width="3.137" height="22.025"/>
<polygon class="cls-2" points="124.6 96.993 124.6 119.02 121.66 119.02 116.74 105.64 116.74 119.02 113.6 119.02 113.6 96.993 116.54 96.993 121.46 110.33 121.46 96.993"/>
<path class="cls-2" d="M130.569,116.079h1.552q2.345,0,2.345-2.509V102.078a2.018,2.018,0,0,0-.66-1.519,2.261,2.261,0,0,0-1.618-.627h-1.618Zm-3.137,2.939V96.993h4.986a5.05,5.05,0,0,1,3.7,1.469,4.888,4.888,0,0,1,1.486,3.616V113.57a5.436,5.436,0,0,1-1.453,3.946,5.085,5.085,0,0,1-3.83,1.5Z"/>
<path class="cls-2" d="M139.834,112.744H143v.793a2.976,2.976,0,0,0,.3,1.453,2.121,2.121,0,0,0,1.981,1.09,2.075,2.075,0,0,0,2.08-1.255,3.758,3.758,0,0,0,.165-1.321v-1.519a2.625,2.625,0,0,0-.479-1.816,8.074,8.074,0,0,0-2.526-1.255,7.132,7.132,0,0,1-3.9-2.906,5.63,5.63,0,0,1-.561-2.708v-.991a5.411,5.411,0,0,1,1.552-3.913,5.048,5.048,0,0,1,3.764-1.6,4.979,4.979,0,0,1,3.764,1.6,5.474,5.474,0,0,1,1.519,3.913v.991h-3.137v-.991a2.455,2.455,0,0,0-.594-1.733,2.053,2.053,0,0,0-1.585-.644,1.94,1.94,0,0,0-1.535.66,2.513,2.513,0,0,0-.578,1.717v.991a2.247,2.247,0,0,0,.693,1.849,7.586,7.586,0,0,0,1.981.925,8.767,8.767,0,0,1,3.649,2.262,5.1,5.1,0,0,1,1.106,3.417v1.783a5.723,5.723,0,0,1-1.057,3.566,5.14,5.14,0,0,1-4.293,2.113,5.253,5.253,0,0,1-3.946-1.585,5.639,5.639,0,0,1-1.535-4.094Z"/>
<rect class="cls-2" x="40" y="123.58" width="111.51" height="2.291"/>
<polygon class="cls-2" points="155.59 119 154.91 119 154.91 116.32 154.06 116.32 154.06 115.78 156.38 115.78 156.38 116.32 155.59 116.32"/>
<polygon class="cls-2" points="158.48 117.39 159.21 115.79 160 115.79 160 119 159.35 119 159.35 117.01 158.76 118.17 158.19 118.17 157.6 117.01 157.6 119 156.95 119 156.95 115.79 157.75 115.79 158.47 117.39"/>
<path class="cls-3" d="M76.1,148.928h3.12a2.265,2.265,0,0,0-.348-1.351,1.42,1.42,0,0,0-1.2-.482,1.7,1.7,0,0,0-1.571,1.833m-.009.753c.458-.03,1.845,0,2.4,0h1.2c.438,0,.694-.088.693-.544a2.7,2.7,0,0,0-1.105-2.439,2.97,2.97,0,0,0-3.8.726,3.837,3.837,0,0,0-.555,2.86,2.723,2.723,0,0,0,2.976,2.347,4.163,4.163,0,0,0,1.521-.25c.355-.143.972-.417.795-.957a.43.43,0,0,0-.58-.219,2.532,2.532,0,0,0-.276.172,2.441,2.441,0,0,1-1.787.363,1.587,1.587,0,0,1-1.4-1.257A2.535,2.535,0,0,1,76.091,149.681Z"/>
<path class="cls-3" d="M62.544,144.3a.664.664,0,1,0,.292,1.294.657.657,0,0,0,.5-.808.684.684,0,0,0-.794-.486m-.112,2.008c-.273.085-.353.236-.357.585-.019,1.5,0,3.127,0,4.644a1.34,1.34,0,0,0,.122.809.707.707,0,0,0,.726.147c.236-.085.328-.268.331-.578v-4.644a1.46,1.46,0,0,0-.136-.773A.592.592,0,0,0,62.432,146.307Zm11.254,5.62h0a.547.547,0,0,1-.684.6.505.505,0,0,1-.41-.251.752.752,0,0,1-.073-.348H72.5v-4.054h.006a.731.731,0,0,0-.7-.679,2.227,2.227,0,0,0-1.118.169,4.885,4.885,0,0,0-.84.449v3.864c0,.063,0,.129,0,.193v.059h0a.8.8,0,0,1-.081.356c-.224.365-1.037.371-1.094-.229,0-.028-.005-.071-.007-.127h0v-.043c-.012-.46,0-1.584,0-2.2v-1.558a1.924,1.924,0,0,0-.081-.524c-.174-.446-.823-.49-1.329-.38a3.774,3.774,0,0,0-1.258.553v3.777a3.593,3.593,0,0,1,0,.369h0c-.022.32-.133.589-.56.6-.736.024-.628-.605-.625-1.133v-4.458c0-.3.056-.514.27-.612a.665.665,0,0,1,.687.091.961.961,0,0,1,.221.65,4.469,4.469,0,0,1,1.943-.812c.685-.083,1.632.109,1.8.861a5.119,5.119,0,0,1,1.812-.83,1.733,1.733,0,0,1,1.913.595,2.322,2.322,0,0,1,.228.991h0c.024.4.006.839,0,1.212v1.079c0,.5,0,1,0,1.5ZM57.57,145.185c.037.613,0,1.339,0,1.965v3.984c0,.651-.141,1.394.624,1.4.792,0,.637-.789.637-1.348s-.027-5.687.005-6c.486-.039,1.118,0,1.62,0,.246,0,.57.04.731-.1a.571.571,0,0,0,.088-.631c-.112-.212-.307-.212-.607-.212h-4.95c-.3,0-.491,0-.6.213a.573.573,0,0,0,.085.63c.166.138.477.1.731.1S57.422,145.16,57.57,145.185Z"/>
<path class="cls-3" d="M87.714,146.307l1.092,4.284c.122.464.225.973.369,1.423a.86.86,0,0,0,1.153.548c.489-.128.536-.647.658-1.135l1.434-5.756c.117-.469.388-1.087-.063-1.344a.621.621,0,0,0-.689.073,1.48,1.48,0,0,0-.239.656c-.059.262-1.3,5.722-1.362,5.83l-.95-3.506c-.155-.591-.309-1.167-.465-1.752-.183-.687-.2-1.362-.872-1.371s-.707.657-.886,1.335c-.3,1.133-.651,2.41-.925,3.53-.052.213-.426,1.681-.476,1.764a.921.921,0,0,1-.1-.344l-1.283-5.462a1.619,1.619,0,0,0-.24-.654.654.654,0,0,0-.69-.127c-.542.179-.31.819-.19,1.313.237.97.474,1.924.711,2.9s.469,1.921.7,2.878c.124.506.172,1.016.63,1.161a1.245,1.245,0,0,0,.767-.018.69.69,0,0,0,.416-.5c.142-.446.251-.961.369-1.421l1.082-4.223c.029-.09.021-.051.05-.079"/>
<path class="cls-3" d="M95.6,149.65a1.6,1.6,0,0,0-.912.321c-.477.352-.628,2.079,1.209,1.841a1.664,1.664,0,0,0,.838-.383l.327-.286a5.711,5.711,0,0,0,.037-1.177c0-.132.036-.191-.077-.22a5.009,5.009,0,0,0-1.422-.1m1.51,2.256c.068.161.057.494.367.639a.567.567,0,0,0,.722-.168,8.383,8.383,0,0,0,.085-1.939q0-1.014,0-2.027a1.95,1.95,0,0,0-.479-1.568c-.825-.8-3.361-.61-3.993.015-.376.372-.108,1.221.653.7a2.3,2.3,0,0,1,.71-.329,2,2,0,0,1,1.67.269,1.736,1.736,0,0,1,.254,1.244c0,.378.031.361-.122.322a5.594,5.594,0,0,0-1.87-.1,1.853,1.853,0,0,0-1.863,2.161c.274,1.8,2.594,1.8,3.574,1A1.628,1.628,0,0,1,97.112,151.906Z"/>
<path class="cls-3" d="M100.94,147.23a1.287,1.287,0,0,0-.187-.693.556.556,0,0,0-.986.412c-.012.661-.017,5.06.011,5.231a.517.517,0,0,0,.448.414.641.641,0,0,0,.628-.228.79.79,0,0,0,.09-.391c0-.071,0-.144,0-.215v-3.7a2.192,2.192,0,0,1,1.117-.615c.533-.131,1.131,0,1.094-.681-.025-.476-.469-.5-.94-.352a3.006,3.006,0,0,0-1.275.822"/>
<path class="cls-3" d="M105.464,147.157c-.051-.159-.009-.444-.206-.664a.572.572,0,0,0-.975.478c-.005.753-.032,5.093.028,5.277a.623.623,0,0,0,1.1.043,23.2,23.2,0,0,0,.049-2.608l.007-1.768a4.625,4.625,0,0,1,.866-.454,2.62,2.62,0,0,1,1.136-.2c1.067.038.894,1.012.894,1.765v2.663c0,.345-.076.782.418.9a.568.568,0,0,0,.757-.545c0-.117.007-.236.01-.355h.014v-3.1a3.517,3.517,0,0,0-.257-1.636,1.8,1.8,0,0,0-1.964-.589,4.349,4.349,0,0,0-1.654.666c-.078.049-.127.12-.223.13"/>
<path class="cls-3" d="M111.859,148.928h3.12a2.258,2.258,0,0,0-.348-1.351,1.419,1.419,0,0,0-1.2-.482,1.7,1.7,0,0,0-1.571,1.833m-.008.753c.459-.03,1.845,0,2.4,0h1.2c.437,0,.694-.088.693-.544a2.7,2.7,0,0,0-1.1-2.439,2.97,2.97,0,0,0-3.8.726,3.834,3.834,0,0,0-.555,2.86,2.723,2.723,0,0,0,2.976,2.347,4.166,4.166,0,0,0,1.521-.25c.354-.143.972-.417.794-.957a.43.43,0,0,0-.58-.219,2.491,2.491,0,0,0-.275.172,2.441,2.441,0,0,1-1.786.363,1.586,1.586,0,0,1-1.4-1.257A2.539,2.539,0,0,1,111.85,149.681Z"/>
<path class="cls-3" d="M118.446,147.23a1.28,1.28,0,0,0-.187-.693.556.556,0,0,0-.986.412c-.012.661-.017,5.06.011,5.231a.517.517,0,0,0,.448.414.641.641,0,0,0,.628-.228.791.791,0,0,0,.09-.391c0-.071,0-.144,0-.215v-3.7a2.194,2.194,0,0,1,1.117-.615c.533-.131,1.13,0,1.094-.681-.025-.476-.469-.5-.94-.352a3.01,3.01,0,0,0-1.274.822"/>
<path class="cls-3" d="M138.209,147.988l-.012,3.159c.045.127.277.28.409.357a2.041,2.041,0,0,0,.564.208,2.384,2.384,0,0,0,1.351-.114,2.178,2.178,0,0,0,.938-2.148c-.011-.938-.234-1.831-.985-2.1a1.928,1.928,0,0,0-1.318.032,3.46,3.46,0,0,0-.948.607m-.073,4.027a7.575,7.575,0,0,0,.662.381,3.07,3.07,0,0,0,2.577-.134,3.189,3.189,0,0,0,1.277-2.907c-.005-1.074-.314-2.37-1.351-2.836a2.679,2.679,0,0,0-1.783-.119,3.721,3.721,0,0,0-1.317.789c-.035-.545,0-1.191,0-1.747s.028-1.161-.578-1.188c-.72-.032-.6.584-.6,1.188v5.28a5.817,5.817,0,0,0,.1,1.683.54.54,0,0,0,.652.14A.747.747,0,0,0,138.135,152.015Z"/>
<path class="cls-3" d="M126.559,144.252a3.678,3.678,0,0,0-1.94.734,3.583,3.583,0,0,0-1.15,1.537,5.477,5.477,0,0,0,.272,4.425,3.353,3.353,0,0,0,.584.736,3.8,3.8,0,0,0,3.082.906,3.524,3.524,0,0,0,1.935-.758c.216-.185.411-.659.1-.932-.327-.29-.692.092-.884.246a2.612,2.612,0,0,1-2.12.493c-2.438-.371-2.352-4.123-1.437-5.464a2.222,2.222,0,0,1,1.672-.986,2.47,2.47,0,0,1,1.651.347c.127.075.283.2.413.274.641.34,1.242-.633.123-1.208a4.371,4.371,0,0,0-2.306-.35"/>
<path class="cls-3" d="M144.15,144.206c-.406.067-.418.381-.418.785,0,.9-.033,6.9.017,7.133a.581.581,0,0,0,.773.387c.369-.1.39-.367.39-.779v-5.963c0-.705.152-1.712-.761-1.563"/>
<path class="cls-3" d="M132.751,149.65a1.6,1.6,0,0,0-.911.321c-.477.352-.629,2.079,1.208,1.841a1.663,1.663,0,0,0,.838-.383l.327-.286a5.721,5.721,0,0,0,.037-1.177c0-.132.036-.191-.077-.22a5.01,5.01,0,0,0-1.422-.1m1.511,2.256c.068.161.057.494.367.639a.567.567,0,0,0,.722-.168,8.362,8.362,0,0,0,.085-1.939q0-1.014,0-2.027a1.95,1.95,0,0,0-.479-1.568c-.825-.8-3.362-.61-3.993.015-.376.372-.108,1.221.653.7a2.3,2.3,0,0,1,.709-.329A2,2,0,0,1,134,147.5a1.737,1.737,0,0,1,.254,1.244c0,.378.031.361-.123.322a5.592,5.592,0,0,0-1.87-.1,1.853,1.853,0,0,0-1.863,2.161c.274,1.8,2.594,1.8,3.574,1A1.613,1.613,0,0,1,134.261,151.906Z"/>
<path class="cls-3" d="M147.4,148.869h3.12a2.258,2.258,0,0,0-.348-1.351,1.419,1.419,0,0,0-1.2-.482,1.7,1.7,0,0,0-1.571,1.833m-.008.753c.459-.03,1.845,0,2.4,0h1.2c.437,0,.694-.088.693-.544a2.7,2.7,0,0,0-1.1-2.439,2.97,2.97,0,0,0-3.8.726,3.834,3.834,0,0,0-.555,2.86,2.723,2.723,0,0,0,2.976,2.347,4.165,4.165,0,0,0,1.521-.25c.354-.143.972-.417.794-.957a.43.43,0,0,0-.58-.22,2.489,2.489,0,0,0-.275.172,2.439,2.439,0,0,1-1.786.363,1.586,1.586,0,0,1-1.4-1.257A2.539,2.539,0,0,1,147.388,149.622Z"/>
<path class="cls-2" d="m155.38 148.64a1.41 1.41 0 0 1 -1 0.415 1.414 1.414 0 0 1 -0.994 -0.408l-7e-3 -7e-3a1.416 1.416 0 1 1 2 -2l7e-3 7e-3a1.414 1.414 0 0 1 -7e-3 1.995m-1 0.157a1.153 1.153 0 0 0 0.819 -0.339 1.157 1.157 0 0 0 0 -1.635 1.158 1.158 0 1 0 -1.638 1.637 1.153 1.153 0 0 0 0.816 0.336z"/>
<path class="cls-3" d="M154.6,147.374a.262.262,0,0,0-.023-.117.184.184,0,0,0-.061-.071.227.227,0,0,0-.087-.036.539.539,0,0,0-.1-.009h-.148v.5h.157a.268.268,0,0,0,.195-.063.274.274,0,0,0,.066-.2m.168-.367a.375.375,0,0,1,.117.139.494.494,0,0,1,.044.221.5.5,0,0,1-.09.318.428.428,0,0,1-.152.124l.305.547h-.342l-.263-.489h-.205v.489h-.325v-1.439h.547a.993.993,0,0,1,.2.02A.454.454,0,0,1,154.767,147.007Z"/>
<path class="cls-3" d="M51.5,145.556a6.918,6.918,0,0,1,2.575,2.747.475.475,0,0,1-.021.442,8.794,8.794,0,0,1-2.735,2.812,6.345,6.345,0,0,1-3.335,1.137h-.059a3.392,3.392,0,0,1-2.04-.677,2.17,2.17,0,0,1-.826-1.754,1.992,1.992,0,0,1,.669-1.519,2.111,2.111,0,0,1,.936-.478,2.054,2.054,0,0,1,1.052.035,1.95,1.95,0,0,1,1.211,1.084.477.477,0,0,1-.865.4,1.017,1.017,0,0,0-.625-.573,1.1,1.1,0,0,0-.563-.017,1.163,1.163,0,0,0-.511.262,1.055,1.055,0,0,0-.348.807,1.252,1.252,0,0,0,.472,1.015,2.421,2.421,0,0,0,1.446.465h.022A2,2,0,0,0,49.5,151a2.264,2.264,0,0,0,.466-1.447v-.013A2.394,2.394,0,0,0,49.2,147.9a2.915,2.915,0,0,0-1.82-.753,3.715,3.715,0,0,0-1.832.315A3.26,3.26,0,0,0,44.2,148.61a3.517,3.517,0,0,0-.578,1.719,4.212,4.212,0,0,0,.4,2.064,5.519,5.519,0,0,0,1.827,2.2,4.635,4.635,0,0,0,2.519.852.476.476,0,0,1-.026.951,5.589,5.589,0,0,1-3.037-1.024,6.476,6.476,0,0,1-2.148-2.576,5.154,5.154,0,0,1-.489-2.527,4.467,4.467,0,0,1,.738-2.185,4.219,4.219,0,0,1,1.736-1.484,4.654,4.654,0,0,1,2.295-.4,3.858,3.858,0,0,1,2.409,1.01,3.347,3.347,0,0,1,1.072,2.3v.017a3.279,3.279,0,0,1-.233,1.309l.109-.07a7.927,7.927,0,0,0,2.3-2.279,6.226,6.226,0,0,0-2.111-2.121,7.653,7.653,0,0,0-3.053-1.142,6.19,6.19,0,0,0-3.437.489,8.27,8.27,0,0,0-3.469,3.221.476.476,0,0,1-.8-.511A9.2,9.2,0,0,1,44.1,144.84a7.132,7.132,0,0,1,3.958-.567,8.616,8.616,0,0,1,3.438,1.283"/>
</svg>
