<?xml version="1.0" encoding="UTF-8"?>
<svg id="a" data-name="Layer 1" viewBox="0 0 200 200" xmlns="http://www.w3.org/2000/svg">
<defs>
<style>.cls-1{fill:#00998a;}.cls-2{fill:#fff;}</style>
</defs>
<title>edsurge</title>
<rect class="cls-1" width="200" height="200"/>
<path class="cls-2" d="M57.314,117.3a1.375,1.375,0,0,1-1.357,1.357h-34.6A1.459,1.459,0,0,1,20,117.3V82.7a1.459,1.459,0,0,1,1.357-1.357H55.845a1.481,1.481,0,0,1,1.47,1.357Zm-31.1-5.993,18.431-8.933s.678-.452.678-.792a.865.865,0,0,0-.226-.565L42.276,98.53a.79.79,0,0,1-.226-.452,1.391,1.391,0,0,1,.226-.565l8.707-9.385-17.753,9.5s-.678.452-.678.792a.865.865,0,0,0,.226.565L35.6,101.47a.79.79,0,0,1,.226.452,1.391,1.391,0,0,1-.226.565Zm39.689-1.131V89.6H81.4v3.958H70.431v4.184h9.611V101.7H70.431v4.3H81.512v3.958h-15.6Zm28.721,0v-2.261a5.874,5.874,0,0,1-4.862,2.6c-3.618,0-7.124-2.827-7.124-8.141v-.113c0-5.2,3.392-8.141,7.124-8.141a5.974,5.974,0,0,1,4.862,2.375v-7.8h4.523v21.371H94.629Zm.113-7.915c0-2.6-1.7-4.3-3.845-4.3a4,4,0,0,0-3.845,4.3v.113a4,4,0,0,0,3.845,4.3c2.148,0,3.845-1.809,3.845-4.41Zm14.587,8.141a13.467,13.467,0,0,1-8.707-3.279l2.714-3.166a9.5,9.5,0,0,0,6.106,2.488c1.809,0,2.94-.678,2.94-1.922v-.113c0-1.131-.678-1.7-4.184-2.6-4.184-1.018-6.784-2.148-6.784-6.219v-.113c0-3.731,2.94-6.219,7.124-6.219a11.615,11.615,0,0,1,7.576,2.6l-2.375,3.392a9.791,9.791,0,0,0-5.314-2.035c-1.7,0-2.6.792-2.6,1.809v.113c0,1.357.9,1.809,4.41,2.714,4.184,1.131,6.445,2.6,6.445,6.106v.113C116.9,108.141,113.739,110.4,109.329,110.4Zm19.336-.226v-2.261a5.488,5.488,0,0,1-4.636,2.488c-3.392,0-5.314-2.261-5.314-5.88V94.346h4.41v8.707c0,2.148,1.018,3.166,2.714,3.166s2.827-1.131,2.827-3.166V94.346h4.41v15.717h-4.41Zm16.509-11.42c-2.94,0-4.749,1.809-4.749,5.541v5.767h-4.41v-15.6h4.41v3.166c.9-2.148,2.375-3.618,4.975-3.505v4.636Zm8.594,16.057a13.561,13.561,0,0,1-6.9-1.7l1.47-3.392a10.087,10.087,0,0,0,5.314,1.47c3.053,0,4.523-1.47,4.523-4.3v-.792a6.16,6.16,0,0,1-5.088,2.6,6.985,6.985,0,0,1-7.011-7.35v-.113a6.985,6.985,0,0,1,7.011-7.35,6.454,6.454,0,0,1,5.088,2.375V94.233h4.41v12.1C162.474,112.438,159.647,114.813,153.767,114.813Zm4.41-13.343a3.852,3.852,0,0,0-7.689,0v.113a3.628,3.628,0,0,0,3.845,3.618,3.719,3.719,0,0,0,3.845-3.731Zm21.71,2.375H168.919a3.6,3.6,0,0,0,3.845,3.053,5.3,5.3,0,0,0,3.845-1.583l2.6,2.261a7.969,7.969,0,0,1-6.445,2.94,7.867,7.867,0,0,1-8.254-8.141v-.113c0-4.523,3.166-8.141,7.8-8.141,5.2,0,7.689,4.071,7.689,8.481v.113A3.846,3.846,0,0,1,179.887,103.845Zm-7.576-6.106c-1.809,0-3.053,1.357-3.392,3.392h6.671C175.364,99.1,174.233,97.739,172.311,97.739Z"/>
</svg>
