<?xml version="1.0" encoding="UTF-8"?>
<svg id="c" data-name="Слой 1" viewBox="0 0 566.93 566.93" xmlns="http://www.w3.org/2000/svg">
<defs>
<style>.cls-1{fill:#fff;}.cls-2{fill:url(#b);}.cls-3{fill:url(#a);}</style>
<linearGradient id="b" x1="34653" x2="35869" y1="25634" y2="24145" gradientTransform="translate(-522 -437.64) scale(.03)" gradientUnits="userSpaceOnUse">
<stop stop-color="#005d95" offset="0"/>
<stop stop-color="#3ac5e8" offset="1"/>
</linearGradient>
<linearGradient id="a" x1="20715" x2="21685" y1="25917" y2="24475" gradientTransform="translate(-522 -437.64) scale(.03)" gradientUnits="userSpaceOnUse">
<stop stop-color="#005d95" offset="0"/>
<stop stop-color="#026198" offset=".2"/>
<stop stop-color="#096da1" offset=".4"/>
<stop stop-color="#1480b1" offset=".59"/>
<stop stop-color="#239bc7" offset=".78"/>
<stop stop-color="#36bee3" offset=".97"/>
<stop stop-color="#3ac5e8" offset="1"/>
</linearGradient>
</defs>
<rect width="566.93" height="566.93"/>
<polygon class="cls-1" points="151.12 311.67 151.12 308.15 126.42 308.15 126.42 290.35 150.63 290.35 150.63 286.84 126.42 286.84 126.42 270.17 151.12 270.17 151.12 266.68 122.57 266.68 122.57 311.67"/>
<polygon class="cls-1" points="159.45 311.67 159.45 266.68 155.93 266.68 155.93 311.67"/>
<path class="cls-1" d="m179.77 312.46a16.81 16.81 0 0 0 12.76-5.27l-1.82-2.3a14.26 14.26 0 0 1-10.65 4.51c-7.69 0-12.42-5.87-12.76-12.95h27.24v-0.94c0-9.44-5.47-17.26-15.39-17.26-9 0-15.65 7.62-15.65 17.06 0 10.07 6.75 17.12 16.24 17.12zm11.23-18.76h-23.7c0.28-5.67 4.11-12.42 11.79-12.42 8.17 0 11.79 6.89 11.91 12.42z"/>
<path class="cls-1" d="m213.19 312.46a13.35 13.35 0 0 0 11.54-5.61l-2.44-2.15a10.38 10.38 0 0 1-8.9 4.59c-7.62 0-12.27-6.15-12.27-14s4.65-13.89 12.27-13.89a10.3 10.3 0 0 1 8.9 4.51l2.44-2.15a13.41 13.41 0 0 0-11.54-5.53c-9.58 0-15.79 7.57-15.79 17.06s6.21 17.13 15.79 17.13z"/>
<path class="cls-1" d="M236.78,312.46a7.42,7.42,0,0,0,5.53-2L241,307.76a5.08,5.08,0,0,1-3.66,1.56c-2.3,0-3.37-1.82-3.37-4.45V282.19h6.6V279.1h-6.6v-8.9h-3.58v8.9H225v3.09h5.38v23.22c0,4.45,2.1,7.08,6.41,7.08Z"/>
<path class="cls-1" d="M248.57,311.67V287.92c1.47-2.84,5.92-5.82,9.24-5.82a6.76,6.76,0,0,1,1.76.15v-3.86c-4.51,0-8.22,2.64-11,6.27V279h-3.52v32.57h3.52v.06Z"/>
<path class="cls-1" d="m274.65 312.46c9.64 0 15.7-7.62 15.7-17.12s-6.06-17.06-15.7-17.06-15.59 7.57-15.59 17.06 6.06 17.12 15.59 17.12zm0-3.17c-7.57 0-11.88-6.69-11.88-14s4.31-13.89 11.88-13.89 11.93 6.69 11.93 13.89-4.25 14-11.93 14z"/>
<path class="cls-1" d="M319.69,311.67V288.88c0-7.34-3.65-10.6-10.26-10.6A16.46,16.46,0,0,0,297.7,284v-4.93h-3.52v32.57h3.52V287a13.91,13.91,0,0,1,10.6-5.61c4.73,0,7.88,1.89,7.88,8.16v22.05h3.51v.06Z"/>
<path class="cls-1" d="M328,274a2.71,2.71,0,0,0,2.69-2.69,2.7,2.7,0,0,0-5.39,0A2.75,2.75,0,0,0,328,274Zm1.75,37.7V279.1h-3.51v32.57Z"/>
<path class="cls-1" d="m348.77 312.46a13.35 13.35 0 0 0 11.54-5.61l-2.44-2.15a10.38 10.38 0 0 1-8.9 4.59c-7.62 0-12.27-6.15-12.27-14s4.65-13.89 12.27-13.89a10.3 10.3 0 0 1 8.9 4.51l2.44-2.15a13.43 13.43 0 0 0-11.54-5.53c-9.58 0-15.78 7.57-15.78 17.06s6.2 17.13 15.78 17.13z"/>
<path class="cls-1" d="M375.17,312.46c8.16,0,12.21-4.31,12.21-9.58,0-12.56-20.49-7.57-20.49-15.7,0-3.37,3-5.93,8.11-5.93,4.3,0,7.82,1.76,9.72,4.31l1.95-2.49c-2.35-2.64-6.06-4.79-11.67-4.79-7.35,0-11.6,4.05-11.6,9,0,11.74,20.58,6.69,20.58,15.59,0,3.77-3.23,6.61-8.7,6.61a13.58,13.58,0,0,1-10.52-4.79l-2.1,2.55c3.23,3.65,7.29,5.19,12.56,5.19h-.05Z"/>
<path class="cls-1" d="M124.89,259.91v-4.23h3a3.53,3.53,0,1,0,0-7.05h-5v11.31h2Zm2.73-6h-2.73v-3.57h2.73a1.79,1.79,0,1,1,0,3.57Zm8.67,6.18a4.3,4.3,0,1,0-4.2-4.31A4.1,4.1,0,0,0,136.29,260.11Zm0-1.59a2.75,2.75,0,1,1,2.35-2.72A2.46,2.46,0,0,1,136.29,258.52ZM151,259.88l2.55-8.19h-1.87l-1.73,5.95L148,251.69h-1.59l-2,5.95-1.73-5.95h-1.84l2.55,8.19h1.87l1.9-6,1.93,6H151Zm7.23.2a4.92,4.92,0,0,0,3.32-1.19l-.82-1.16a3.48,3.48,0,0,1-2.33.9,2.44,2.44,0,0,1-2.58-2.24h6.29v-.45c0-2.58-1.56-4.45-4-4.45a4.3,4.3,0,0,0,.14,8.59Zm2.16-5h-4.62a2.32,2.32,0,0,1,4.62,0Zm4.9,4.76v-5.58a2.82,2.82,0,0,1,2.13-1.11,2.61,2.61,0,0,1,.54.06v-1.76a3.59,3.59,0,0,0-2.67,1.39v-1.19h-1.79v8.19Zm7.54.2a4.94,4.94,0,0,0,3.32-1.19l-.83-1.16a3.44,3.44,0,0,1-2.32.91,2.44,2.44,0,0,1-2.58-2.24h6.29v-.46c0-2.58-1.56-4.45-4-4.45a4.3,4.3,0,0,0,.14,8.59Zm2.15-5h-4.62a2.22,2.22,0,0,1,2.3-2.15A2.2,2.2,0,0,1,175,255.06Zm10.66,4.76V248.51h-1.78v4.25a3.22,3.22,0,0,0-2.64-1.33c-2.1,0-3.63,1.65-3.63,4.28s1.53,4.31,3.63,4.31a3.29,3.29,0,0,0,2.64-1.33v1.11h1.78Zm-3.88-1.36c-1.42,0-2.33-1.13-2.33-2.72s.91-2.72,2.33-2.72a2.64,2.64,0,0,1,2.1,1.11v3.23A2.66,2.66,0,0,1,181.73,258.46Zm12.33-1.07v-3.26a2.65,2.65,0,0,1,2.13-1.11c1.41,0,2.29,1.13,2.29,2.72s-.9,2.72-2.29,2.72A2.78,2.78,0,0,1,194.06,257.39Zm0,2.46v-1.1a3.32,3.32,0,0,0,2.64,1.33c2.09,0,3.62-1.59,3.62-4.31s-1.53-4.28-3.62-4.28a3.28,3.28,0,0,0-2.64,1.33v-4.25h-1.79v11.31h1.79Zm7.37,3.2a5.36,5.36,0,0,0,1,.12,2.76,2.76,0,0,0,2.81-1.84l3.94-9.67h-1.9l-2.38,6.12-2.38-6.12h-1.93l3.37,8.28-.39.93a1.13,1.13,0,0,1-1.19.71,2.06,2.06,0,0,1-.68-.14l-.26,1.59v0Zm15.25-3.2V248.54h-2v11.31Zm9.81,0v-1.76h-5.76V255h5.65v-1.76h-5.65v-2.92h5.76v-1.76h-7.74v11.31h7.74Zm9.41,0v-1.76h-5.75V255h5.64v-1.76h-5.64v-2.92h5.75v-1.76h-7.74v11.31h7.74Zm9.41,0v-1.76h-5.75V255h5.64v-1.76h-5.64v-2.92h5.75v-1.76h-7.74v11.31h7.74Zm11.85.23a6.09,6.09,0,0,0,4.65-2.07v-4.22h-5.36v1.75h3.4v1.76a4.12,4.12,0,0,1-2.66,1,4.08,4.08,0,0,1,0-8.16,3.62,3.62,0,0,1,2.92,1.5l1.61-.94a5.29,5.29,0,0,0-4.53-2.32,5.86,5.86,0,1,0,0,11.71Zm8.08-.23V248.54h-1.79v11.31Zm5.67.2a4.3,4.3,0,1,0-4.2-4.31A4.08,4.08,0,0,0,270.91,260.05Zm0-1.59a2.75,2.75,0,1,1,2.35-2.72A2.46,2.46,0,0,1,270.91,258.46Zm7.45-1.07v-3.26a2.65,2.65,0,0,1,2.13-1.11c1.41,0,2.29,1.13,2.29,2.72s-.9,2.72-2.29,2.72A2.78,2.78,0,0,1,278.36,257.39Zm0,2.46v-1.1a3.33,3.33,0,0,0,2.64,1.33c2.1,0,3.63-1.59,3.63-4.31s-1.53-4.28-3.63-4.28a3.28,3.28,0,0,0-2.64,1.33v-4.25h-1.78v11.31h1.78Zm14.52,0v-5.44c0-2.18-1.59-2.95-3.43-2.95a4.72,4.72,0,0,0-3.44,1.33l.74,1.25a3.29,3.29,0,0,1,2.41-1c1.11,0,1.93.57,1.93,1.53v1.22a3.37,3.37,0,0,0-2.67-1.05,2.62,2.62,0,0,0-2.83,2.67,2.74,2.74,0,0,0,2.83,2.72,3.52,3.52,0,0,0,2.67-1.11v.91h1.78v0Zm-3.72-1a1.56,1.56,0,0,1-1.76-1.47,1.59,1.59,0,0,1,1.76-1.48,2.46,2.46,0,0,1,2,.85V258A2.43,2.43,0,0,1,289.16,258.83Zm7.46,1V248.54h-1.79v11.31Zm5.89.2c3,0,4.37-1.62,4.37-3.51,0-4.2-6.58-2.9-6.58-5,0-.82.74-1.42,1.9-1.42a4.61,4.61,0,0,1,3.29,1.3l1.1-1.47a5.79,5.79,0,0,0-4.22-1.59c-2.49,0-4.11,1.45-4.11,3.32,0,4.14,6.58,2.66,6.58,5,0,.77-.63,1.56-2.24,1.56a4.75,4.75,0,0,1-3.57-1.58l-1.11,1.53a6.18,6.18,0,0,0,4.62,1.78Zm10.18,0c2.13,0,3.63-1.62,3.63-4.31s-1.5-4.28-3.63-4.28a3.29,3.29,0,0,0-2.64,1.33v-1.1h-1.78V263h1.78v-4.25a3.32,3.32,0,0,0,2.64,1.33Zm-.54-1.59a2.74,2.74,0,0,1-2.1-1.1v-3.23a2.61,2.61,0,0,1,2.1-1.08c1.42,0,2.33,1.1,2.33,2.72s-.91,2.72-2.33,2.72Zm9.38,1.59a4.92,4.92,0,0,0,3.32-1.19L324,257.7a3.47,3.47,0,0,1-2.33.91,2.45,2.45,0,0,1-2.58-2.24h6.3v-.46c0-2.58-1.56-4.45-4-4.45a4.3,4.3,0,0,0,.14,8.59Zm2.16-5h-4.62a2.32,2.32,0,0,1,4.62,0Zm6.86,5a3.72,3.72,0,0,0,3.14-1.44l-1.16-1.11a2.17,2.17,0,0,1-1.87,1,2.73,2.73,0,0,1,0-5.44,2.17,2.17,0,0,1,1.87.94l1.16-1.08a3.66,3.66,0,0,0-3.14-1.45,4.3,4.3,0,0,0,0,8.59Z"/>
<path class="cls-2" d="M417.66,312.46c-7.77,0-15.37-1.89-20.38-7.65l6.4-8.22a20.79,20.79,0,0,0,12.87,5.22c4.28,0,8.65-1.14,8.65-5.25s-6.24-4.11-9.13-4.11c-3.15,0-5.7,0-6.27.09V281.65c.54.06,2.95.08,6,.08,4.36,0,8.56-.7,8.56-4.47,0-2.33-2.47-4.34-8.42-4.34a18,18,0,0,0-11.93,4.9l-6-7.71c4.63-5.33,10.69-7.85,19.2-7.85q9.3,0,14.48,3.54a11.28,11.28,0,0,1,5.19,9.87,9.83,9.83,0,0,1-3,7,12.72,12.72,0,0,1-7.48,3.85,14.1,14.1,0,0,1,8,3.8,10.13,10.13,0,0,1,3.32,7.66A12.26,12.26,0,0,1,432,308.49c-3.77,2.64-8.22,4-14.28,4Zm98.13-3.57a20.34,20.34,0,0,1-23,0,20.64,20.64,0,0,1-7-9.13,33.44,33.44,0,0,1-2.21-12.41q0-10.64,5.39-17.83c3.6-4.82,8.7-7.2,15.3-7.2s11.71,2.41,15.31,7.2S525,280.26,525,287.35a33.44,33.44,0,0,1-2.21,12.41,20.64,20.64,0,0,1-7,9.13ZM498.3,298c1.19,2.15,3.26,3.23,6.18,3.23s5-1.08,6.18-3.23,1.79-5.73,1.79-10.66-.6-8.56-1.79-10.66-3.26-3.17-6.18-3.17-5,1.05-6.18,3.17-1.78,5.67-1.78,10.66S497.11,295.85,498.3,298Zm-36,14.45c-7.28,0-12.81-2.32-16.52-6.94s-5.59-10.66-5.59-18.09c0-7.85,2.21-14,6.67-18.45s10.31-6.66,17.68-6.66c5.87,0,10.77,1.47,14.66,4.45L473.9,276c-4-3.63-13-4.11-16.39-1a13,13,0,0,0-4.5,10.06c2.29-3.52,7.31-5.67,12.67-5.47,10.2.39,16.1,6.21,16.1,15.5a16.19,16.19,0,0,1-5.47,12.73c-3.66,3.18-8.42,4.59-14,4.59Zm-.93-10.63c6.21.06,7.74-3.45,7.74-6.12,0-4.68-4.91-5.81-8.2-5.81-2.15,0-6.26,1-7.93,3.4.42,4.65,3.34,8.48,8.42,8.51Z"/>
<path class="cls-3" d="M75,259.17a129.92,129.92,0,0,1-9.73,11.06,99.06,99.06,0,0,1-9.72,8.64,101.18,101.18,0,0,1,9.67,8.34,96,96,0,0,1,9.75,11.19,93.58,93.58,0,0,1,9.72-11.14,101.69,101.69,0,0,1,9.78-8.42,112,112,0,0,1-9.72-8.61,127.72,127.72,0,0,1-9.75-11v0ZM43.14,248.09H69.93a130.36,130.36,0,0,1-12.3,14.62A91.68,91.68,0,0,1,43.4,274.45a3.39,3.39,0,0,1-.28.2V248.12Zm36.8,0h26.81v26.53l-.51-.34A101.28,101.28,0,0,1,92.3,262.63,124,124,0,0,1,79.94,248.09Zm26.81,35.06V311.7H78.6a4.34,4.34,0,0,0,.88-1.08,92.41,92.41,0,0,1,12.7-15.73,108.85,108.85,0,0,1,14.4-11.62,1,1,0,0,1,.2-.14ZM71.29,311.7H43.14V283.12l.26.18a106.66,106.66,0,0,1,14.29,11.53,95.8,95.8,0,0,1,12.78,15.85,5.33,5.33,0,0,0,.82,1Z"/>
</svg>
