<svg xmlns="http://www.w3.org/2000/svg" width="36" height="36"><g fill="none" fill-rule="evenodd"><path d="M0 0h36v36H0z"/><path fill="#1877F2" d="M31.5 18c0-7.457-6.044-13.5-13.5-13.5-7.457 0-13.5 6.043-13.5 13.5 0 6.738 4.936 12.324 11.391 13.337v-9.434h-3.428V18h3.428v-2.973c0-3.384 2.014-5.253 5.098-5.253 1.478 0 3.023.263 3.023.263v3.322h-1.703c-1.677 0-2.2 1.041-2.2 2.109V18h3.744l-.599 3.903H20.11v9.434C26.564 30.324 31.5 24.738 31.5 18"/><path fill="#FFF" d="M23.254 21.902l.599-3.903h-3.744v-2.532c0-1.068.523-2.107 2.2-2.107h1.703v-3.323s-1.545-.264-3.023-.264c-3.082 0-5.098 1.87-5.098 5.253V18h-3.428v3.903h3.428v9.434A13.58 13.58 0 0018 31.5c.718 0 1.422-.055 2.109-.163v-9.434h3.145z"/></g></svg>