<?xml version="1.0" encoding="UTF-8"?>
<!DOCTYPE svg  PUBLIC '-//W3C//DTD SVG 20010904//EN'  'http://www.w3.org/TR/2001/REC-SVG-20010904/DTD/svg10.dtd'>
<svg width="400pt" height="400pt" version="1.0" viewBox="0 0 400.000000 400.000000" xmlns="http://www.w3.org/2000/svg">
<metadata>Created by potrace 1.15, written by Peter Selinger 2001-2017</metadata>
<g transform="translate(0 400) scale(.1 -.1)">
<path d="m0 2e3v-2e3h2e3 2e3v2e3 2e3h-2e3 -2e3v-2e3zm2217 400c-2-71 0-130 3-130 4 0 28 7 54 16 128 44 248-20 294-155 17-48 15-159-4-214-22-64-91-139-156-168-63-28-185-32-285-10l-63 14v328c0 191-4 339-10 354-6 17-20 27-40 31-16 4-30 10-30 13 0 7 183 47 223 50 17 1 18-9 14-129zm-1204 110c4 0 6-46 5-102-3-108-17-136-37-75-16 48-75 114-114 126-17 5-70 11-117 13l-84 3-8-40c-5-21-7-96-6-165l3-125 47-3c67-4 112 19 132 69 27 68 36 47 36-86 0-129-8-152-33-92-24 54-51 71-124 75l-66 5 6-131c8-174 31-222 103-222 13 0 24-4 24-10s-77-10-210-10-210 4-210 10 9 10 20 10c36 0 71 24 87 59 13 30 16 83 17 306 0 250-1 273-19 310-16 32-29 43-65 55l-45 15 45 5c35 4 299 4 613 0zm352-229c57-26 92-63 123-129 37-80 37-194 0-267-82-160-277-211-425-112-72 48-107 125-107 237 0 68 5 96 24 139 34 77 103 129 205 155 35 8 139-5 180-23zm414-91c4 0 14 12 21 26 17 30 75 78 108 89 38 11 92-3 92-25 0-10-4-21-9-24s-12-17-15-30c-3-14-10-36-16-50-9-25-10-25-47-10-23 10-52 14-76 11-68-9-69-10-65-203 3-152 5-174 22-193 11-12 31-21 48-21 15 0 28-4 28-10s-63-10-170-10c-157 0-212 9-141 23 47 10 56 48 55 242 0 192-7 220-56 237-32 11-28 13 87 38l120 26 3-58c2-32 6-58 11-58zm1258 87c75-47 113-113 113-194v-33l-172-2-173-3 2-47c2-71 47-147 103-175 52-27 133-30 187-8 53 22 60 18 29-14-70-73-220-99-317-55-60 28-115 77-142 128-18 34-22 57-22 136 0 88 2 99 31 150 17 30 47 68 67 84 83 66 217 82 294 33zm531 12c30-10 32-14 32-57 0-26 3-57 6-69 10-37-14-27-36 15-31 58-57 83-95 92-51 11-87-1-108-38-37-64 1-113 125-163 120-48 164-113 139-206-13-49-51-89-111-116-57-26-180-28-260-4l-55 16-3 81c-4 87 8 104 32 47 34-82 118-139 181-123 35 9 75 53 75 83 0 54-26 79-117 117-48 21-100 49-116 64-49 47-55 130-14 193 19 28 84 68 131 80 38 10 152 3 194-12z"/>
<path d="m2229 2240c-14-8-16-35-12-237 3-133 9-233 15-240 21-26 69-15 108 25 54 53 73 125 68 250-4 111-23 163-72 193-33 20-81 24-107 9z"/>
<path d="m1170 2252c-17-18-32-47-39-80-16-75-14-237 4-307 26-103 100-145 158-91 38 35 51 95 51 236 0 106-4 134-23 182-36 92-95 115-151 60z"/>
<path d="m2871 2264c-37-27-81-155-61-179 5-6 45-9 95-7l88 4-6 63c-11 117-55 161-116 119z"/>
</g>
</svg>
