<?xml version="1.0" encoding="UTF-8"?>
<svg id="a" data-name="Layer 1" viewBox="0 0 200 200" xmlns="http://www.w3.org/2000/svg">
<defs>
<style>.cls-1{fill:#f0f0f0;}.cls-2{fill:#004987;}</style>
</defs>
<title>gartner</title>
<rect class="cls-1" width="200" height="200"/>
<path class="cls-2" d="M178.844,88.182l-.46,5.519H176.13a5.408,5.408,0,0,0-5.469,5.649v12.464h-6.378V88.182h6.041l.137,2.95c1.267-2.023,3.485-2.95,6.22-2.95Z"/>
<path class="cls-2" d="M134.629,111.813h-6.383V99.32c0-2.616-.226-5.909-3.906-5.909-3.544,0-4.956,2.558-4.956,5.536v12.866H113V88.182h5.916l.135,3.021a8.012,8.012,0,0,1,7.114-3.6c6.431,0,8.461,4.592,8.461,9.37Z"/>
<path class="cls-2" d="M110.22,106.293l-.446,5.377a16.584,16.584,0,0,1-4.534.558c-6.014,0-7.759-2.758-7.759-8.3V81.518h6.383v6.664h6.351l-.441,5.518h-5.91v9.747c0,2.224.61,3.426,2.892,3.426a10.47,10.47,0,0,0,3.465-.58"/>
<path class="cls-2" d="M95.385,88.182,94.891,93.7H93.157c-3.591,0-5.377,2.881-5.377,5.649v12.464H81.4V88.182H87.44l.126,2.95c1.275-2.023,3.492-2.95,6.231-2.95Z"/>
<path class="cls-2" d="M52.593,109.195a27.079,27.079,0,0,1-14.365,3.486c-10.589-.323-18.228-6.9-18.228-18,0-11.057,7.713-18.122,18.233-18.288,5.333-.082,10.1,1.272,13.834,4.563L47.574,85.5a13.912,13.912,0,0,0-9.762-2.934c-6.621.308-10.61,5.12-10.7,11.735-.087,7.167,4.308,12.106,11.179,12.287a16.767,16.767,0,0,0,7.553-1.253V98.005H38.705L39.187,92H52.593Z"/>
<path class="cls-2" d="M155.04,97.3a4.963,4.963,0,0,0-5.513-4.753,5.614,5.614,0,0,0-5.592,4.753Zm6.394,4.941h-17.5a5.78,5.78,0,0,0,5.828,4.919c2.874.078,4.482-.79,6.584-2.919l4.165,3.176a12.761,12.761,0,0,1-10.557,4.972c-7.116,0-12.448-4.976-12.448-12.394s5.3-12.392,12.182-12.392c7.579,0,11.746,4.592,11.746,12.742Z"/>
<path class="cls-2" d="M71.237,101.507H70.35c-3.022.006-8.329.155-8.309,3.315.029,4.451,9.2,3.037,9.2-2.332Zm6.141-5.169v15.474H71.751l-.139-2.33c-1.727,2.138-4.529,2.908-7.415,2.908-4.346,0-8.452-2.143-8.538-7.134-.129-7.844,8.829-8.4,14.454-8.4h1.124v-.31c0-2.594-1.717-4-4.949-4a9.319,9.319,0,0,0-6.3,2.518L56.3,91.327a16.012,16.012,0,0,1,10.529-3.722c7.32,0,10.547,3.383,10.547,8.733"/>
<path class="cls-2" d="M175.782,108.846v-1.134h.756c.388,0,.8.084.8.538,0,.563-.421.6-.89.6Zm0,.473h.64l.965,1.588h.624l-1.042-1.614a.954.954,0,0,0,.95-1.011c0-.722-.428-1.043-1.3-1.043h-1.395v3.668h.554Zm.673,2.935a3.179,3.179,0,1,0-3.228-3.189,3.174,3.174,0,0,0,3.228,3.189m-2.59-3.189a2.584,2.584,0,1,1,2.59,2.661,2.57,2.57,0,0,1-2.59-2.661"/>
</svg>
