<?xml version="1.0" encoding="UTF-8"?>
<svg id="i" data-name="Layer 1" viewBox="0 0 200 200" xmlns="http://www.w3.org/2000/svg" xmlns:xlink="http://www.w3.org/1999/xlink">
<defs>
<style>.cls-1{fill:none;clip-rule:evenodd;}.cls-2{fill:#f0f0f0;}.cls-3{fill:#46a2a7;}.cls-10,.cls-11,.cls-14,.cls-17,.cls-18,.cls-19,.cls-20,.cls-3,.cls-4,.cls-5,.cls-6,.cls-8,.cls-9{fill-rule:evenodd;}.cls-4{fill:#de7534;}.cls-5{fill:#dd975d;}.cls-6{fill:#673c13;}.cls-7{fill:#0a0a0a;}.cls-8{fill:#dc965c;}.cls-10{fill:#8c4d17;}.cls-11{fill:#c9854c;}.cls-12{clip-path:url(#h);}.cls-13{fill:url(#a);}.cls-14{fill:#1a1a1a;}.cls-15{clip-path:url(#g);}.cls-16{fill:url(#d);}.cls-17{fill:#6bb1b3;}.cls-18{fill:#047a7d;}.cls-19{fill:#139194;}.cls-20{fill:#58acad;}.cls-21{clip-path:url(#f);}.cls-22{fill:url(#c);}.cls-23{clip-path:url(#e);}.cls-24{fill:url(#b);}.cls-25{fill:#2b2a29;}</style>
<clipPath id="h">
<path class="cls-1" d="M31.305,90.227a.838.838,0,0,0,.474-.369.781.781,0,0,0,.1-.576.7.7,0,0,0-.332-.451.753.753,0,0,0-.573-.077.8.8,0,0,0-.575.942.708.708,0,0,0,.906.531"/>
</clipPath>
<linearGradient id="a" x1="-1170" x2="-1169.5" y1="255.2" y2="255.2" gradientTransform="matrix(-.001 2.971 -2.671 -.001 711.94 3564.8)" gradientUnits="userSpaceOnUse">
<stop stop-color="#fff" offset="0"/>
<stop stop-color="#b3b3b3" offset="1"/>
</linearGradient>
<clipPath id="g">
<path class="cls-1" d="M27.6,90.647a.834.834,0,0,0,.474-.372.8.8,0,0,0,.1-.579.7.7,0,0,0-.334-.456.747.747,0,0,0-.572-.071.8.8,0,0,0-.477.36.815.815,0,0,0-.1.59.7.7,0,0,0,.905.528"/>
</clipPath>
<linearGradient id="d" x1="-1172.5" x2="-1172" y1="254.52" y2="254.52" gradientTransform="matrix(-.001 3.445 -2.668 -.001 705.55 4128.5)" xlink:href="#a"/>
<clipPath id="f">
<path class="cls-1" d="M143.231,94.534a.573.573,0,0,1-.323-.252.534.534,0,0,1-.069-.393.478.478,0,0,1,.227-.308.515.515,0,0,1,.392-.052.544.544,0,0,1,.393.643.484.484,0,0,1-.619.362"/>
</clipPath>
<linearGradient id="c" x1="-1162.8" x2="-1162.3" y1="292.59" y2="292.59" gradientTransform="translate(677.15 2453.1) rotate(90) scale(2.029 1.824)" xlink:href="#a"/>
<clipPath id="e">
<path class="cls-1" d="M145.762,94.821a.57.57,0,0,1-.324-.254.546.546,0,0,1-.069-.4.479.479,0,0,1,.229-.312.51.51,0,0,1,.39-.048.543.543,0,0,1,.326.246.557.557,0,0,1,.067.4.481.481,0,0,1-.619.361"/>
</clipPath>
<linearGradient id="b" x1="-1166.3" x2="-1165.9" y1="293.32" y2="293.32" gradientTransform="matrix(.001 2.354 -1.824 .001 681.91 2839.6)" xlink:href="#a"/>
</defs>
<title>geekmom</title>
<rect class="cls-2" width="200" height="200"/>
<path class="cls-3" d="M47.7,101.329A4.713,4.713,0,0,0,52.629,96.4a4.993,4.993,0,0,0-4.933-5.27,5.27,5.27,0,0,0-5.27,5.27,4.993,4.993,0,0,0,5.27,4.933m.369,13.564c2.125,0,3.847-.979,3.847-2.187s-1.722-2.187-3.847-2.187-3.847.979-3.847,2.187S45.941,114.893,48.066,114.893Zm-6.254-12.717c.549.516,3.352,1.1.7,1.788-.868.224-2.53,1.236-2.319,2.4a2.775,2.775,0,0,0,1.53,1.867,6.222,6.222,0,0,0,1.211.579c1.074.233-.591,1.244-1.231,2.628-.7,1.509-.284,3.5,2.2,5.049s6.429.9,8.432-.258,2.957-2.814,1.824-5.186-5.5-2.438-7.535-2.983-4.3-1.814-2.456-2.656c.887-.405,2.528-.338,4.176-.691,4.65-1,7.654-3.793,7.482-8.471-.064-1.749-.427-4.21-1.9-5.825a2.079,2.079,0,0,0,1.549-.495c.928-.648,1.491-2.472,1.028-2.84s-1-.437-2.161.774c-.752.786-1.473,1.647-3.1,1.123a14.1,14.1,0,0,0-4.437-.782c-4.033.009-6.824,3.247-7.427,6.7A7.534,7.534,0,0,0,41.811,102.176Z"/>
<path class="cls-3" d="M68.56,96.755H59.812c0-2.531,1.712-5.5,3.663-6.042s4.137,1.043,5.085,6.042m3.582,2.618H59.649c-.155,3.268.526,8.709,3.994,9.673a4.488,4.488,0,0,0,4.9-2.668l.728-1.746a8.165,8.165,0,0,1-1.386-.016c-.828-.138-.695-1.954-.195-2.076,0,0,4.848.011,5.612.011.691,0,1.049,1.273.281,1.884-.312.248-1.389.151-1.493.393l-1.046,2.793c-1.948,3.614-5.774,4.9-8.15,4.294-8.794-2.229-8.794-21.838,0-24.068C66.459,86.941,71.767,90.28,72.142,99.373Z"/>
<path class="cls-3" d="M85.985,96.755H77.237c0-2.531,1.712-5.5,3.663-6.042s4.137,1.043,5.085,6.042m3.582,2.618H77.074c-.155,3.268.526,8.709,3.994,9.673a4.488,4.488,0,0,0,4.9-2.668l.728-1.746a8.165,8.165,0,0,1-1.386-.016c-.828-.138-.695-1.954-.195-2.076,0,0,4.848.011,5.612.011.691,0,1.049,1.273.281,1.884-.312.248-1.389.151-1.493.393l-1.046,2.793c-1.948,3.614-5.774,4.9-8.15,4.294-8.794-2.229-8.794-21.838,0-24.068C83.884,86.941,89.192,90.28,89.568,99.373Z"/>
<path class="cls-3" d="M93.318,91.058s-1.908-.474-2.119-1.08,0-1.186,1.08-1.212,5.607-.343,5.95.184-.079,1.486-.079,1.486l-1.67.6v18.776c.418.128,1.786.486,1.979,1.039s0,1.186-1.08,1.212a53.576,53.576,0,0,1-5.95-.016c-.343-.19-.09-1.486-.09-1.486l1.839-.764h.14Z"/>
<path class="cls-3" d="M103.462,91.742l-4.977,5.772c-1.825,2.115-1.663,2.443.112,4.6l5.181,6.286s.211.158-.158.738c-.521.818-1.314.694-.531,1.8.447.629,1.111,0,1.694-.466l1.472-1.171,2.266-2.213c.593-2.034-1.659-1.1-2-.632-.422.58-6.166-6.535-6.166-6.535l5.217-6.271c.706.343,1.073.639,1.41.738.809.239,1.758-.6,1.029-1.392a34.914,34.914,0,0,0-4.241-3.632.926.926,0,0,0-1.56.428c-.265.855,1.254,1.96,1.254,1.96"/>
<path class="cls-4" d="M113.259,88.273h0a1.639,1.639,0,0,1,1.521,1.04l5.807,9.561,5.913-9.736a1.7,1.7,0,0,1,.571-.571,1.621,1.621,0,0,1,.932-.294h0a1.638,1.638,0,0,1,1.633,1.634v19.6a1.581,1.581,0,0,1-.01.18h.958c1.331,0,1.162,2.192-.169,2.192a12.768,12.768,0,0,1-5.058,0c-1.331,0-1.162-2.192.169-2.192h.852a1.563,1.563,0,0,1-.01-.18V95.646l-4.118,6.781a2.738,2.738,0,0,1-.745,1.176h0a1.622,1.622,0,0,1-1.838,0h0a2.735,2.735,0,0,1-.745-1.176l-4.03-6.636v13.719a1.563,1.563,0,0,1-.01.18h.81c1.331,0,1.5,2.192.168,2.192a13.626,13.626,0,0,1-5.227,0c-1.331,0-1.5-2.192-.169-2.192h1.17a1.563,1.563,0,0,1-.01-.18V90.1a1.608,1.608,0,0,1,0-.319v-.013a1.639,1.639,0,0,1,1.628-1.5"/>
<path class="cls-4" d="M161.755,88.273h0a1.639,1.639,0,0,1,1.521,1.04l5.807,9.561L175,89.138a1.7,1.7,0,0,1,.571-.571,1.621,1.621,0,0,1,.932-.294h0a1.638,1.638,0,0,1,1.634,1.634v19.6a1.563,1.563,0,0,1-.01.18h.958c1.331,0,1.162,2.192-.169,2.192a11.137,11.137,0,0,1-4.721,0c-1.331,0-1.5-2.192-.169-2.192h.852a1.62,1.62,0,0,1-.01-.18V95.646l-4.118,6.781A2.737,2.737,0,0,1,170,103.6h0a1.622,1.622,0,0,1-1.838,0h0a2.737,2.737,0,0,1-.745-1.176l-4.03-6.636v13.719a1.581,1.581,0,0,1-.01.18h.81c1.331,0,1.162,2.192-.169,2.192a11.939,11.939,0,0,1-4.89,0c-1.331,0-1.5-2.192-.169-2.192h1.17a1.581,1.581,0,0,1-.01-.18V90.1a1.615,1.615,0,0,1,0-.319v-.013a1.639,1.639,0,0,1,1.628-1.5"/>
<path class="cls-5" d="M23.878,87.008V94.26q-1.94.362-3.878.724v11.125q.926.366,1.853.718.008.766.018,1.524c.275.19.55.38.825.565q0,2.076,0,4.151.825.519,1.652,1.03l3.4-.57q0-2.111.008-4.222.843-.161,1.688-.326V112.4q.913.323,1.83.644,1.632-.217,3.266-.437,0-2.123,0-4.253c.14-.043.281-.085.423-.13v-2.539q.951-.341,1.9-.684V94.039l-1.375-.681q-1.381.064-2.762.12V87.362c-.651-.42-1.3-.837-1.953-1.266-1.15.125-2.3.417-3.448.54s-2.3.244-3.447.372"/>
<path class="cls-6" d="M21.853,106.827V96.085q-.929-.549-1.853-1.1v11.125q.926.366,1.853.718"/>
<path class="cls-7" d="M32.123,96.583a2.371,2.371,0,0,0-.97-.394,4.153,4.153,0,0,0-1.036-.023,4.312,4.312,0,0,0-1.664.474,3.908,3.908,0,0,0-1.192.979,4.462,4.462,0,0,0-.736,1.3,4.88,4.88,0,0,0-.288,1.43,4.566,4.566,0,0,0,.132,1.376,2.861,2.861,0,0,0,.582,1.14,2.332,2.332,0,0,0,1.1.707,3.876,3.876,0,0,0,1.69.09,5.276,5.276,0,0,0,1.332-.366,3.881,3.881,0,0,0,1.083-.676c.618-.561.56-.746.6-1.441.026-.51.042-.874.071-1.441.034-.7-.41-.885-.912-.831-.3.034-.6.065-.9.1l-.9.094c-.678.074-.831,1.663-.078,1.572.39-.043,1.177-.363,1.159.034-.015.3-.022.434-.037.737a2.65,2.65,0,0,1-1.321.525,1.374,1.374,0,0,1-1.385-.5,2.137,2.137,0,0,1-.329-1.333,2.623,2.623,0,0,1,.57-1.632,1.982,1.982,0,0,1,1.344-.652,1.84,1.84,0,0,1,1.016.142c1.088.56,1.895-.844,1.073-1.407"/>
<path class="cls-8" d="M21.853,106.827V95.912c.617-.091,1.236-.187,1.855-.281.006,1.773.015,3.549.022,5.319s.015,3.541.023,5.312q-.951.285-1.9.564"/>
<polygon class="cls-9" points="26.071 91.33 26.071 88.654 32.221 87.847 32.221 90.401"/>
<path class="cls-6" d="M25.565,95.177V88.285c-.563-.423-1.125-.851-1.686-1.277V94.26q.842.456,1.686.917"/>
<polygon class="cls-10" points="23.878 87.008 30.774 86.099 32.726 87.362 25.565 88.288"/>
<path class="cls-6" d="M21.853,106.827q1.153-.153,2.308-.309V95.563c.15-.025.3-.048.452-.071q.01,4.643.022,9.286t.024,9.281c-.1.014-.206.028-.309.037-.064-.034-.126-.074-.189-.113-.489-.307-.976-.61-1.464-.917q0-2.073,0-4.151c-.275-.184-.55-.375-.825-.565q-.009-.758-.018-1.524"/>
<path class="cls-6" d="M31.273,108.612v4.429q-.916-.4-1.83-.817v-3.246l1.83-.366"/>
<path class="cls-11" d="M34.538,94.459c.126-.02.253-.04.379-.063q.01,3.456.02,6.912t.024,6.912c-.142.045-.283.088-.423.13V94.459"/>
<g class="cls-12">
<rect class="cls-13" x="30.354" y="88.701" width="1.572" height="1.587"/>
</g>
<path class="cls-14" d="M31.243,90.054a.406.406,0,0,0,.209-.207.534.534,0,0,0,.044-.318.393.393,0,0,0-.145-.252.276.276,0,0,0-.253-.04.377.377,0,0,0-.209.2.545.545,0,0,0-.042.326.4.4,0,0,0,.147.255.255.255,0,0,0,.25.034"/>
<g class="cls-15">
<rect class="cls-16" x="26.648" y="89.113" width="1.572" height="1.596"/>
</g>
<path class="cls-14" d="M27.538,90.474a.4.4,0,0,0,.209-.207.542.542,0,0,0,.044-.321.388.388,0,0,0-.147-.252.273.273,0,0,0-.251-.037.378.378,0,0,0-.209.2.549.549,0,0,0-.044.327.409.409,0,0,0,.147.261.261.261,0,0,0,.251.028"/>
<path class="cls-9" d="M27.844,92.554c.869-.1,1.735-.2,2.6-.3a1.338,1.338,0,0,1-1.3,1.333,1.089,1.089,0,0,1-1.3-1.036"/>
<path class="cls-11" d="M34.538,108.243V107.9q-2.474.383-4.944.772t-4.944.78v.346c1.648-.261,3.3-.528,4.944-.786l4.944-.772"/>
<path class="cls-17" d="M148.305,92.335V97.29q1.326.248,2.65.495v7.6q-.632.25-1.266.49-.005.523-.012,1.041c-.188.13-.376.26-.564.386q0,1.418,0,2.836-.564.355-1.129.7l-2.32-.39q0-1.442-.006-2.885-.576-.11-1.153-.223v2.336q-.624.221-1.25.44-1.115-.148-2.232-.3,0-1.451,0-2.906c-.1-.029-.192-.058-.289-.089v-1.735q-.65-.233-1.3-.467V97.139l.939-.465q.943.044,1.887.082V92.577c.445-.287.89-.572,1.334-.865.786.085,1.572.285,2.356.369s1.57.167,2.355.254"/>
<path class="cls-18" d="M149.689,105.875V98.536q.634-.375,1.266-.752v7.6q-.632.25-1.266.49"/>
<path class="cls-17" d="M149.689,105.875V98.418c-.421-.062-.844-.128-1.267-.192,0,1.211-.011,2.425-.015,3.634s-.01,2.419-.016,3.629q.65.195,1.3.386"/>
<polygon class="cls-9" points="146.81 95.287 146.81 93.459 142.61 92.908 142.61 94.653"/>
<path class="cls-19" d="M150.955,97.784q-1.323-.245-2.65-.495l-1.152.626c-.814-.1-1.632-.2-2.446-.291s-1.631-.192-2.447-.289v-.581q-.944-.038-1.887-.082l-.939.465v.114q2.565.311,5.128.632t5.127.651q.634-.375,1.266-.752"/>
<path class="cls-18" d="M147.153,97.916V93.207c.385-.289.768-.582,1.152-.872V97.29l-1.152.626"/>
<polygon class="cls-19" points="148.3 92.335 143.59 91.714 142.26 92.577 147.15 93.209"/>
<path class="cls-18" d="M149.689,105.875q-.789-.1-1.578-.211V98.179c-.1-.017-.205-.032-.309-.048q-.007,3.172-.014,6.345t-.016,6.341c.07.01.14.019.211.025.044-.023.086-.051.129-.077l1-.626q0-1.416,0-2.836c.188-.126.376-.256.564-.386,0-.345.009-.692.013-1.041"/>
<path class="cls-18" d="M143.253,107.095v3.026q.625-.276,1.25-.558v-2.218l-1.25-.25"/>
<path class="cls-20" d="M141.023,97.426c-.086-.014-.173-.027-.259-.043q-.007,2.361-.014,4.722t-.016,4.722c.1.031.193.06.289.089V97.426"/>
<g class="cls-21">
<rect class="cls-22" x="142.81" y="93.491" width="1.073" height="1.084"/>
</g>
<path class="cls-14" d="M143.274,94.416a.277.277,0,0,1-.143-.142.363.363,0,0,1-.03-.217.268.268,0,0,1,.1-.173.188.188,0,0,1,.173-.027.257.257,0,0,1,.143.138.372.372,0,0,1,.029.223.272.272,0,0,1-.1.174.174.174,0,0,1-.171.023"/>
<g class="cls-23">
<rect class="cls-24" x="145.34" y="93.773" width="1.074" height="1.091"/>
</g>
<path class="cls-14" d="M145.805,94.7a.273.273,0,0,1-.143-.142.369.369,0,0,1-.03-.219.265.265,0,0,1,.1-.173.187.187,0,0,1,.172-.025.259.259,0,0,1,.143.138.376.376,0,0,1,.03.223.281.281,0,0,1-.1.178.178.178,0,0,1-.171.019"/>
<path class="cls-9" d="M145.6,96.124c-.593-.07-1.186-.134-1.779-.2a.915.915,0,0,0,.89.911.744.744,0,0,0,.889-.708"/>
<path class="cls-20" d="M141.023,106.843v-.233q1.69.262,3.378.527t3.378.533v.237c-1.126-.178-2.252-.361-3.378-.537l-3.378-.527"/>
<path class="cls-4" d="m144.87 108.83a8.832 8.832 0 1 0 -8.833 -8.831 8.737 8.737 0 0 0 8.833 8.833m0 3.077a11.91 11.91 0 1 0 -11.91 -11.91 11.91 11.91 0 0 0 11.91 11.909z"/>
<path class="cls-10" d="M20,94.984q1.937-.358,3.878-.724.842.456,1.686.917c1.192-.142,2.388-.286,3.58-.425s2.388-.281,3.581-.423v-.851q1.382-.056,2.762-.12l1.375.681v.167q-3.754.455-7.506.925t-7.5.953q-.929-.549-1.853-1.1"/>
<path class="cls-25" d="M143.667,101.066a1.27,1.27,0,0,0,.05.386.6.6,0,0,0,.377.4,1.418,1.418,0,0,0,.31.076q.075.01.24.019a1.31,1.31,0,0,0,.282-.013v-1.483a1.589,1.589,0,0,0-.253-.074c-.091-.018-.159-.031-.2-.036a.837.837,0,0,0-.592.1.734.734,0,0,0-.211.628m2.765,1.9a2.146,2.146,0,0,1-.17.909,1.331,1.331,0,0,1-.489.566,1.977,1.977,0,0,1-.77.279,4.173,4.173,0,0,1-1.147-.106,2.011,2.011,0,0,1-1.245-.647c-.2-.319.165-1.01.329-.89a2.7,2.7,0,0,0,1.064.456c.481.088.911.028.911-.447v-.051a2.805,2.805,0,0,1-.393.012,4.379,4.379,0,0,1-.492-.046,2.76,2.76,0,0,1-.869-.26,1.933,1.933,0,0,1-.6-.466,1.832,1.832,0,0,1-.347-.638,2.631,2.631,0,0,1-.111-.783,1.84,1.84,0,0,1,2.276-1.838,7.426,7.426,0,0,1,.9.336c.221.057.356-.237.8-.057.051.02.352.19.352.408v3.262Z"/>
</svg>
