<svg xmlns="http://www.w3.org/2000/svg" width="135" height="40"><defs><linearGradient id="a" x1="60.99%" x2="26.536%" y1="4.946%" y2="71.879%"><stop offset="0%" stop-color="#00A0FF"/><stop offset="1%" stop-color="#00A1FF"/><stop offset="26%" stop-color="#00BEFF"/><stop offset="51%" stop-color="#00D2FF"/><stop offset="76%" stop-color="#00DFFF"/><stop offset="100%" stop-color="#00E3FF"/></linearGradient><linearGradient id="b" x1="107.685%" x2="-130.64%" y1="50%" y2="50%"><stop offset="0%" stop-color="#FFE000"/><stop offset="41%" stop-color="#FFBD00"/><stop offset="78%" stop-color="orange"/><stop offset="100%" stop-color="#FF9C00"/></linearGradient><linearGradient id="c" x1="86.271%" x2="-50.18%" y1="30.873%" y2="136.109%"><stop offset="0%" stop-color="#FF3A44"/><stop offset="100%" stop-color="#C31162"/></linearGradient><linearGradient id="d" x1="-18.825%" x2="42.086%" y1="-11.91%" y2="35.079%"><stop offset="0%" stop-color="#32A071"/><stop offset="7%" stop-color="#2DA771"/><stop offset="48%" stop-color="#15CF74"/><stop offset="80%" stop-color="#06E775"/><stop offset="100%" stop-color="#00F076"/></linearGradient></defs><path d="M6 .5h123a5.5 5.5 0 015.5 5.5v28a5.5 5.5 0 01-5.5 5.5H6A5.5 5.5 0 01.5 34V6A5.5 5.5 0 016 .5z"/><path fill="#B6B6B6" d="M129 1c1.326 0 2.598.527 3.536 1.464A5.004 5.004 0 01134 6v28a5 5 0 01-5 5H6a5.004 5.004 0 01-3.536-1.464A5.004 5.004 0 011 34V6a5 5 0 015-5h123m0-1H6a6 6 0 00-6 6v28a6 6 0 006 6h123a6 6 0 006-6V6a6 6 0 00-6-6z"/><path fill="#FFF" stroke="#FFF" stroke-width=".2" d="M47.42 10.24a2.723 2.723 0 01-.75 2 2.903 2.903 0 01-2.2.88 2.999 2.999 0 01-2.21-.9 2.999 2.999 0 01-.91-2.22 3 3 0 01.91-2.23 3.16 3.16 0 013.44-.65c.36.148.682.377.94.67l-.53.53a2 2 0 00-1.64-.72 2.32 2.32 0 00-2.33 2.4 2.36 2.36 0 004 1.73c.312-.331.493-.765.51-1.22h-2.18v-.72h2.91c.022.15.036.3.04.45zM52 7.74h-2.7v1.9h2.46v.72H49.3v1.9H52V13h-3.48V7H52zM55.28 13h-.77V7.74h-1.68V7H57v.74h-1.72zm4.66 0V7h.77v6zm4.19 0h-.77V7.74h-1.68V7h4.12v.74h-1.67zm9.48-.78a3.11 3.11 0 01-4.4 0 2.997 2.997 0 01-.88-2.22 2.997 2.997 0 01.88-2.22 2.927 2.927 0 012.2-.91 3 3 0 012.2.91c.58.59.898 1.392.88 2.22a2.997 2.997 0 01-.88 2.22h0zm-3.83-.5a2.29 2.29 0 003.26 0c.448-.459.69-1.08.67-1.72A2.361 2.361 0 0073 8.28a2.29 2.29 0 00-3.26 0 2.36 2.36 0 00-.63 1.72c-.02.64.222 1.261.67 1.72h0zm5.8 1.28V7h.93l2.92 4.67h0V7h.77v6h-.8l-3.05-4.89h0V13z"/><path fill="#FFF" d="M68.14 21.75A4.26 4.26 0 1072.41 26a4.188 4.188 0 00-4.27-4.25zm0 6.83a2.58 2.58 0 112.4-2.58 2.457 2.457 0 01-2.4 2.58zm-9.32-6.83A4.26 4.26 0 1063.09 26a4.188 4.188 0 00-4.27-4.25zm0 6.83a2.58 2.58 0 112.4-2.58 2.457 2.457 0 01-2.4 2.58zm-11.08-5.52v1.8h4.32a3.77 3.77 0 01-1 2.27 4.417 4.417 0 01-3.34 1.32 4.8 4.8 0 110-9.6A4.64 4.64 0 0151 20.14l1.27-1.27a6.303 6.303 0 00-4.53-1.82 6.61 6.61 0 100 13.21 6.066 6.066 0 004.61-1.85 5.998 5.998 0 001.56-4.23 6.276 6.276 0 00-.09-1.12h-6.08zm45.31 1.4a4.001 4.001 0 00-3.64-2.71 3.994 3.994 0 00-2.92 1.259A3.996 3.996 0 0085.41 26a4.23 4.23 0 007.76 2.37l-1.45-1a2.41 2.41 0 01-2.09 1.17 2.15 2.15 0 01-2.06-1.29l5.69-2.35-.21-.44zm-5.8 1.42a2.331 2.331 0 012.23-2.48 1.64 1.64 0 011.57.9l-3.8 1.58zM82.63 30h1.87V17.5h-1.87V30zm-3.06-7.3h-.07a2.939 2.939 0 00-2.24-.95 4.26 4.26 0 000 8.51c.858.017 1.68-.35 2.24-1h.07v.61c0 1.63-.87 2.5-2.27 2.5a2.36 2.36 0 01-2.15-1.51l-1.62.67a4 4 0 003.77 2.52c2.19 0 4-1.29 4-4.43V22h-1.73v.7zm-2.15 5.88a2.58 2.58 0 010-5.15A2.39 2.39 0 0179.7 26a2.38 2.38 0 01-2.28 2.58zm24.39-11.08h-4.48V30h1.87v-4.74h2.61a3.89 3.89 0 100-7.76zm0 6H99.2v-4.26h2.65a2.14 2.14 0 110 4.28l-.04-.02zm11.54-1.79a3.49 3.49 0 00-3.33 1.91l1.65.69a1.78 1.78 0 011.71-.91 1.8 1.8 0 012 1.61v.12a4.188 4.188 0 00-1.95-.48c-1.78 0-3.6 1-3.6 2.82a2.894 2.894 0 003.11 2.75 2.65 2.65 0 002.38-1.22h.06v1h1.8v-4.81c0-2.19-1.66-3.46-3.79-3.46l-.04-.02zm-.23 6.85c-.61 0-1.46-.31-1.46-1.06 0-1 1.06-1.34 2-1.34a3.313 3.313 0 011.7.42 2.26 2.26 0 01-2.2 2l-.04-.02zM123.74 22l-2.14 5.42h-.06L119.32 22h-2l3.33 7.58-1.9 4.21h2L125.82 22h-2.08zm-16.8 8h1.86V17.5h-1.86V30z"/><path fill="url(#a)" d="M10.44 7.54a1.998 1.998 0 00-.44 1.4v22.12a1.94 1.94 0 00.47 1.4l.07.08L22.9 20.15v-.3L10.51 7.47l-.07.07z"/><path fill="url(#b)" d="M27 24.28l-4.1-4.13v-.3l4.1-4.13.09.06L32 18.56c1.4.79 1.4 2.09 0 2.89l-4.89 2.78-.11.05z"/><path fill="url(#c)" d="M27.12 24.23L22.9 20 10.44 32.46a1.62 1.62 0 002.07.07l14.61-8.3"/><path fill="url(#d)" d="M27.12 15.78l-14.61-8.3a1.61 1.61 0 00-2.07.06L22.9 20l4.22-4.22z"/><path d="M27 24.13l-14.49 8.25a1.659 1.659 0 01-2 0l-.07.07.07.08a1.659 1.659 0 002 0l14.61-8.3-.12-.1z" opacity=".2"/><path d="M10.44 32.32a2 2 0 01-.44-1.41v.15a1.94 1.94 0 00.47 1.4l.07-.07-.1-.07zM32 21.3l-5 2.83.09.1L32 21.44c.59-.25.997-.802 1.06-1.44A1.86 1.86 0 0132 21.3z" opacity=".12"/><path fill="#FFF" d="M12.51 7.62L32 18.7c.54.24.933.723 1.06 1.3A1.751 1.751 0 0032 18.56L12.51 7.48C11.12 6.68 10 7.34 10 8.94v.15c0-1.6 1.12-2.26 2.51-1.47z" opacity=".25"/></svg>