<?xml version="1.0" encoding="UTF-8"?>
<svg id="n" data-name="Layer 1" viewBox="0 0 200 200" xmlns="http://www.w3.org/2000/svg" xmlns:xlink="http://www.w3.org/1999/xlink">
<defs>
<style>.cls-1{fill:#f0f0f0;}.cls-2{fill:url(#a);}.cls-3{fill:url(#i);}.cls-4{fill:url(#h);}.cls-5{fill:url(#g);}.cls-6{fill:url(#f);}.cls-7{fill:url(#e);}.cls-8{fill:url(#d);}.cls-9{fill:url(#c);}.cls-10{fill:url(#b);}.cls-11{fill:url(#m);}.cls-12{fill:url(#l);}.cls-13{fill:url(#k);}.cls-14{fill:url(#j);}</style>
<linearGradient id="a" x1="-3289.4" x2="-3289.4" y1="134.01" y2="176.3" gradientTransform="translate(-3143.1 241.27) rotate(180)" gradientUnits="userSpaceOnUse">
<stop stop-color="#f05a28" offset="0"/>
<stop stop-color="#f6921e" offset="1"/>
</linearGradient>
<linearGradient id="i" x1="-3289" x2="-3289" y1="134.01" y2="176.3" xlink:href="#a"/>
<linearGradient id="h" x1="-3289.5" x2="-3289.5" y1="134.01" y2="176.31" xlink:href="#a"/>
<linearGradient id="g" x1="55.5" x2="55.5" y1="-42.37" y2="-25.72" gradientTransform="matrix(1 0 0 -1 0 84.27)" xlink:href="#a"/>
<linearGradient id="f" x1="70.98" x2="70.98" y1="-42.67" y2="-24.06" gradientTransform="matrix(1 0 0 -1 0 84.27)" xlink:href="#a"/>
<linearGradient id="e" x1="84.02" x2="84.02" y1="-42.37" y2="-30.22" gradientTransform="matrix(1 0 0 -1 0 84.27)" xlink:href="#a"/>
<linearGradient id="d" x1="94.49" x2="94.49" y1="-42.37" y2="-25.02" gradientTransform="matrix(1 0 0 -1 0 84.27)" xlink:href="#a"/>
<linearGradient id="c" x1="104.02" x2="104.02" y1="-42.66" y2="-29.96" gradientTransform="matrix(1 0 0 -1 0 84.27)" xlink:href="#a"/>
<linearGradient id="b" x1="115.93" x2="115.93" y1="-42.66" y2="-29.97" gradientTransform="matrix(1 0 0 -1 0 84.27)" xlink:href="#a"/>
<linearGradient id="m" x1="125.06" x2="125.06" y1="-42.84" y2="-39.45" gradientTransform="matrix(1 0 0 -1 0 84.27)" xlink:href="#a"/>
<linearGradient id="l" x1="134.2" x2="134.2" y1="-42.66" y2="-29.96" gradientTransform="matrix(1 0 0 -1 0 84.27)" xlink:href="#a"/>
<linearGradient id="k" x1="146.52" x2="146.52" y1="-42.67" y2="-29.95" gradientTransform="matrix(1 0 0 -1 0 84.27)" xlink:href="#a"/>
<linearGradient id="j" x1="164.33" x2="164.33" y1="-42.37" y2="-29.96" gradientTransform="matrix(1 0 0 -1 0 84.27)" xlink:href="#a"/>
</defs>
<title>hosting-advice</title>
<path class="cls-1" d="M0,100V200H200V0H0Z"/>
<path d="M29.4,84.39v5h7.52v-5H35.58c-.18,0-.36-.09-.36-.27V82.78c0-.18.09-.36.27-.36H41c.18,0,.36.09.36.27V84c0,.18-.09.36-.27.36H39.69V97.11H41c.18,0,.36.09.36.27v1.25c0,.18-.09.36-.27.36H35.67c-.18,0-.36-.09-.36-.27V97.47c0-.18.09-.36.27-.36H37V91.56H29.49v5.55h1.34c.18,0,.36.09.36.27v1.25c0,.18-.09.36-.27.36H25.46c-.18,0-.36-.09-.36-.27V97.47c0-.18.09-.36.27-.36H26.8V84.39H25.46c-.18,0-.36-.09-.36-.27V82.78c0-.18.09-.36.27-.36h5.55c.18,0,.36.09.36.27V84c0,.18-.09.36-.27.36H29.4Z"/>
<path d="M43.28,93.17a10.4,10.4,0,0,1,.53-3.23,4.27,4.27,0,0,1,1.53-2,6.48,6.48,0,0,1,6.35-.81,5.09,5.09,0,0,1,1.61,1.07,4.44,4.44,0,0,1,1,1.79,9.42,9.42,0,0,1,.45,2.69,7,7,0,0,1-1.7,5,5.63,5.63,0,0,1-4.3,1.7,5.18,5.18,0,0,1-4-1.53A7.3,7.3,0,0,1,43.28,93.17ZM49,97.29a2.27,2.27,0,0,0,2.15-1.08,8.32,8.32,0,0,0,0-6.53,2.61,2.61,0,0,0-2.24-1.08c-1.88,0-2.87,1.34-2.87,3.94C46.14,95.76,47,97.29,49,97.29Z"/>
<path d="M57.87,87.71a4.68,4.68,0,0,1,3.22-1.08,10.21,10.21,0,0,1,3.32.45c.18,0,.36.27.36.45v2.59c0,.18-.09.36-.27.36H63c-.26,0-.35-.09-.35-.36l.09-1.25a3.53,3.53,0,0,0-1.62-.36c-1.34,0-2,.45-2,1.35A1.54,1.54,0,0,0,59.75,91a8.18,8.18,0,0,0,1.52.72,13.33,13.33,0,0,1,1.88.62,3.42,3.42,0,0,1,1.62,1.17,2.73,2.73,0,0,1,.62,2.06,3.2,3.2,0,0,1-1.34,2.86,6.13,6.13,0,0,1-3.67,1.08,15.39,15.39,0,0,1-3.49-.45.6.6,0,0,1-.36-.45V96c0-.18.09-.35.27-.35h1.52c.18,0,.36.08.36.26V96l-.09,1.26a2.78,2.78,0,0,0,1.88.44c1.43,0,2.24-.53,2.24-1.52A1.57,1.57,0,0,0,62.08,95a4.83,4.83,0,0,0-1.52-.72c-.63-.18-1.26-.36-1.79-.53a2.68,2.68,0,0,1-1.53-1.08,3.18,3.18,0,0,1-.62-2.06A3.47,3.47,0,0,1,57.87,87.71Z"/>
<path d="M70.85,88.87v6.18a5.59,5.59,0,0,0,.27,1.7,1.41,1.41,0,0,0,1.08.54,3.52,3.52,0,0,0,1.61-.36c.18-.09.36,0,.36.18v.09l.45,1.16v.18q0,.13-.27.27a6.36,6.36,0,0,1-2.87.63c-1.43,0-2.42-.36-2.86-1.17a2.79,2.79,0,0,1-.54-1.43,14.44,14.44,0,0,1-.09-2v-6H66.56c-.18,0-.36-.09-.36-.27V87.26c0-.18.09-.36.27-.36H68V83.59c0-.18.09-.36.27-.36h2.15c.18,0,.35.09.35.27v3.4h2.51c.18,0,.36.09.36.27v1.34c0,.18-.09.36-.27.36H70.85Z"/>
<path d="M80.17,97.11h1.52c.18,0,.36.09.36.27v1.25c0,.18-.09.36-.27.36h-6c-.18,0-.36-.09-.36-.27V97.47c0-.18.09-.36.27-.36H77.3V88.87H76c-.18,0-.36-.09-.36-.27V87.26c0-.18.09-.36.27-.36h3.85c.18,0,.36.09.36.27v.09Zm-3-12.36a1.93,1.93,0,0,1,0-2.51,2,2,0,0,1,2.6,0,1.4,1.4,0,0,1,.45,1.26,1.75,1.75,0,0,1-.54,1.25,1.48,1.48,0,0,1-1.34.45A2.12,2.12,0,0,1,77.21,84.75Z"/>
<path d="M83,88.6V87.35c0-.18.09-.36.27-.36h3.49a.33.33,0,0,1,.36.36l.18,1.43a4.53,4.53,0,0,1,3.94-2.06c2.6,0,3.85,1.43,3.85,4.21V97.2h1.43c.18,0,.36.09.36.27v1.25c0,.18-.09.36-.27.36H91.09c-.18,0-.36-.09-.36-.27V97.56c0-.18.09-.36.27-.36h1.25V92.09a4.66,4.66,0,0,0-.35-2.23,1.66,1.66,0,0,0-1.62-.72,3.34,3.34,0,0,0-2,.72,2.06,2.06,0,0,0-.81,1.7V97.2h1.52c.18,0,.36.09.36.27v1.25c0,.18-.09.36-.27.36H83.3c-.18,0-.36-.09-.36-.27V97.56c0-.18.09-.36.27-.36h1.52V88.87H83.39C83.12,88.87,83,88.78,83,88.6Z"/>
<path d="M109.54,88.87v8.69c0,1.07,0,2-.09,3a4.75,4.75,0,0,1-1.53,3.22,5.9,5.9,0,0,1-3.85,1.17,11.16,11.16,0,0,1-4.2-.72.33.33,0,0,1-.18-.45l.44-1.25c.09-.27.27-.27.54-.18a9.23,9.23,0,0,0,3,.63,3.13,3.13,0,0,0,2.32-.72,3.46,3.46,0,0,0,.81-2.6V97.73a4,4,0,0,1-3.49,1.8A4.36,4.36,0,0,1,99.69,98a6.67,6.67,0,0,1-1.26-4.65A7.26,7.26,0,0,1,100,88.51a4.7,4.7,0,0,1,3.76-1.61,4.44,4.44,0,0,1,3.67,1.61l.27-1c0-.18.26-.36.44-.36h3.05c.18,0,.36.09.36.27v1.34c0,.18-.09.36-.27.36h-.09Zm-2.78,5.55V90c-.09-.09-.18-.26-.27-.35a2.44,2.44,0,0,0-.89-.54,3,3,0,0,0-1.53-.36,2.83,2.83,0,0,0-2.14,1,4.7,4.7,0,0,0-.81,3.13,6.66,6.66,0,0,0,.63,3.22,2.21,2.21,0,0,0,2.32,1.08,3.1,3.1,0,0,0,2-.72A2.76,2.76,0,0,0,106.76,94.42Z"/>
<path class="cls-2" d="M120.19,74.81v9.58h52.29V74.81Zm47.46,4.75A1.34,1.34,0,1,1,169,80.9h0A1.37,1.37,0,0,1,167.65,79.56Zm-18.27.27H152v2.59h-2.6Zm0-3.32H152V79h-2.6ZM146,79.83h2.6v2.59H146Zm0-3.32h2.6V79H146Zm-3.13,3.32h2.59v2.59h-2.59Zm0-3.32h2.59V79h-2.59Zm-3.41,3.32H142v2.59h-2.6Zm0-3.32H142V79h-2.6Zm-3.22,3.32h2.6v2.59h-2.6Zm0-3.32h2.6V79h-2.6Zm-3.4,3.32h2.59v2.59h-2.59Zm0-3.32h2.59V79h-2.59Zm-3.32,3.32h2.6v2.59h-2.6Zm0-3.32h2.6V79h-2.6Zm-3.4,3.32h2.6v2.59h-2.6Zm0-3.32h2.6V79h-2.6Zm-4.48,3A1.35,1.35,0,1,1,123,80.81a1.32,1.32,0,0,1-1.35-1.34Z"/>
<polygon class="cls-3" points="135.41 64.96 156.46 64.96 168.63 72.31 123.24 72.31"/>
<path class="cls-4" d="m172.48 86.63h-52.2v9.58h34.83l14.06 11.11-3.4-11.11h6.71zm-48.08 4.66a1.35 1.35 0 1 1-1.34-1.35 1.38 1.38 0 0 1 1.34 1.35zm4.21-0.36h-2.61v-2.6h2.6zm0 3.31h-2.61v-2.59h2.6zm3.4-3.31h-2.51v-2.6h2.6v2.6zm0 3.31h-2.51v-2.59h2.6v2.59zm3.31-3.31h-2.59v-2.6h2.59zm0 3.31h-2.59v-2.59h2.59zm3.41-3.31h-2.6v-2.6h2.6zm0 3.31h-2.6v-2.59h2.6zm3.27-3.31h-2.6v-2.6h2.6zm0 3.31h-2.6v-2.59h2.6zm3.4-3.31h-2.59v-2.6h2.59zm0 3.31h-2.59v-2.59h2.59zm3.05-3.31h-2.6v-2.6h2.6zm0 3.31h-2.6v-2.59h2.6zm3.4-3.31h-2.6v-2.6h2.6zm0 3.31h-2.6v-2.59h2.6zm18.36-2.86a1.35 1.35 0 1 1-1.4-1.38 1.23 1.23 0 0 1 1.35 1.35z"/>
<path class="cls-5" d="M52.14,121.37,51,124.69H52.5c.18,0,.36.09.36.26v1.26c0,.18-.09.36-.27.36H47.22c-.18,0-.36-.09-.36-.27V125c0-.17.09-.35.27-.35h1.52l4.92-14.42a.61.61,0,0,1,.54-.36h2.42a.56.56,0,0,1,.54.36l5,14.42h1.7c.18,0,.36.09.36.26v1.26c0,.18-.09.36-.27.36H57.51c-.18,0-.36-.09-.36-.27V125c0-.17.09-.35.27-.35H59l-1.17-3.32Zm2.87-9-2.33,7.25h4.65Z"/>
<path class="cls-6" d="M76,124.69H77c.18,0,.36.09.36.26v1.26c0,.18-.09.36-.27.36H74.26a.33.33,0,0,1-.36-.36l-.18-1.43a4.36,4.36,0,0,1-4,2.14,4.61,4.61,0,0,1-3.76-1.52,6.83,6.83,0,0,1-1.34-4.65,7.09,7.09,0,0,1,1.52-4.84,5.35,5.35,0,0,1,3.94-1.7,3.94,3.94,0,0,1,2,.45,3.28,3.28,0,0,1,1.25,1v-5.28H71.93c-.18,0-.36-.09-.36-.27v-1.43c0-.18.09-.36.27-.36h3.85c.18,0,.36.09.36.27v.09ZM73.18,122v-4.3a2.87,2.87,0,0,0-1.16-.89,3.66,3.66,0,0,0-1.61-.45c-2.06,0-3,1.34-3,4.12,0,2.15.45,3.4,1.44,3.94a3.46,3.46,0,0,0,1.61.36,3.14,3.14,0,0,0,2-.72,2.86,2.86,0,0,0,.8-2.06Z"/>
<path class="cls-7" d="M82,114.84l2.86,9,2.6-7.43H86.17c-.18,0-.36-.09-.36-.27v-1.34c0-.18.09-.36.27-.36h3.76a.47.47,0,0,1,.36.18.5.5,0,0,1,0,.54L86,126.3a.61.61,0,0,1-.54.36H83.3a.56.56,0,0,1-.54-.36l-3.4-9.76H78.11c-.18,0-.36-.09-.36-.27v-1.43c0-.18.09-.36.27-.36h3.31C81.78,114.48,82,114.66,82,114.84Z"/>
<path class="cls-8" d="M95.93,124.69h1.52c.18,0,.36.09.36.26v1.26c0,.18-.09.36-.27.36h-6c-.18,0-.36-.09-.36-.27V125c0-.17.09-.35.27-.35h1.7v-8.24H91.81c-.18,0-.36-.09-.36-.27v-1.34c0-.18.09-.36.27-.36h3.85c.18,0,.36.09.36.27v9.94Zm-3.05-12.36a1.84,1.84,0,0,1,2.6-2.6h0a1.4,1.4,0,0,1,.45,1.26,1.77,1.77,0,0,1-.54,1.25,1.82,1.82,0,0,1-1.34.54,1.32,1.32,0,0,1-1.17-.45Z"/>
<path class="cls-9" d="M101.84,120.39c0,3,1.16,4.48,3.49,4.48a6.45,6.45,0,0,0,2.59-.63.4.4,0,0,1,.45.09v.09l.45,1.07a.43.43,0,0,1-.18.54h0a7.15,7.15,0,0,1-3.85.89,5.28,5.28,0,0,1-4.48-1.7,7,7,0,0,1-1.43-4.56A6.82,6.82,0,0,1,100.4,116a5.47,5.47,0,0,1,4.39-1.79,4.46,4.46,0,0,1,3.31,1.16,4.68,4.68,0,0,1,1.08,3,.41.41,0,0,1-.45.36h-1.52a.49.49,0,0,1-.45-.27h0v-.09a2,2,0,0,0-1.79-2.15h-.36a2.4,2.4,0,0,0-2.15,1A5.57,5.57,0,0,0,101.84,120.39Z"/>
<path class="cls-10" d="M116.34,126.92a4.93,4.93,0,0,1-4.3-1.7,6.64,6.64,0,0,1-1.34-4.47,7.23,7.23,0,0,1,1.43-4.66,5.78,5.78,0,0,1,6.54-1.34,3.66,3.66,0,0,1,1.52,1.34,7.24,7.24,0,0,1,1,3.85,5.4,5.4,0,0,1-.09,1.16.54.54,0,0,1-.36.09h-7.34a5.1,5.1,0,0,0,.89,2.78,3.22,3.22,0,0,0,2.6,1,7,7,0,0,0,2.77-.63c.18-.09.36-.09.45.09a.09.09,0,0,0,.09.09l.45,1.16a.33.33,0,0,1-.18.45A9.36,9.36,0,0,1,116.34,126.92Zm-3-7.61h5.19c0-2.06-.81-3-2.42-3a2.27,2.27,0,0,0-2.06.89A3.5,3.5,0,0,0,113.39,119.31Z"/>
<path class="cls-11" d="M126.37,126.57A1.58,1.58,0,0,1,125,127a2.2,2.2,0,0,1-1.35-.44,1.81,1.81,0,0,1,0-2.42h0a1.49,1.49,0,0,1,1.35-.45,2.42,2.42,0,0,1,1.34.45,1.45,1.45,0,0,1,.54,1.16,1.51,1.51,0,0,1-.54,1.26Z"/>
<path class="cls-12" d="M132,120.39c0,3,1.16,4.48,3.49,4.48a6.5,6.5,0,0,0,2.6-.63.4.4,0,0,1,.45.09v.09l.44,1.07a.44.44,0,0,1-.17.54h0a7.17,7.17,0,0,1-3.85.89,5.25,5.25,0,0,1-4.48-1.7,6.9,6.9,0,0,1-1.43-4.56,6.77,6.77,0,0,1,1.52-4.66,5.44,5.44,0,0,1,4.39-1.79,4.47,4.47,0,0,1,3.31,1.16,4.73,4.73,0,0,1,1.07,3,.41.41,0,0,1-.44.36h-1.35c-.27,0-.45-.09-.45-.36a2,2,0,0,0-1.88-2.15h-.35a2.38,2.38,0,0,0-2.15,1A5.57,5.57,0,0,0,132,120.39Z"/>
<path class="cls-13" d="M140.79,120.75a10.12,10.12,0,0,1,.53-3.23,4.35,4.35,0,0,1,1.53-2.06,6.5,6.5,0,0,1,6.35-.8,4.93,4.93,0,0,1,1.61,1.07,4.44,4.44,0,0,1,1,1.79,9.36,9.36,0,0,1,.45,2.69,7,7,0,0,1-1.7,5,5.59,5.59,0,0,1-4.3,1.7,5.17,5.17,0,0,1-4-1.52A7.15,7.15,0,0,1,140.79,120.75Zm5.73,4.2a2.26,2.26,0,0,0,2.15-1.07,8.34,8.34,0,0,0,0-6.54,2.42,2.42,0,0,0-2.24-1.07c-1.88,0-2.87,1.34-2.87,3.94.09,3.13,1.08,4.74,3,4.74Z"/>
<path class="cls-14" d="M153.77,116.18v-1.34c0-.18.09-.36.27-.36h3.49a.33.33,0,0,1,.36.36l.18,1.43a4.27,4.27,0,0,1,3.85-2.06,3.22,3.22,0,0,1,3.4,2.15,4.41,4.41,0,0,1,3.94-2.15c2.6,0,3.85,1.43,3.85,4.21v6.27h1.43c.18,0,.36.09.36.26v1.26c0,.18-.09.36-.27.36h-5.55c-.18,0-.36-.09-.36-.27V125c0-.17.09-.35.27-.35h1.34v-5.11a4.85,4.85,0,0,0-.35-2.24,1.67,1.67,0,0,0-1.62-.71,3.29,3.29,0,0,0-2,.62,1.94,1.94,0,0,0-.71,1.53v5.91h1.16c.18,0,.36.09.36.26v1.26c0,.18-.09.36-.27.36h-5.19c-.18,0-.36-.09-.36-.27h0V125c0-.17.09-.35.27-.35h1.25v-5.11a4.73,4.73,0,0,0-.36-2.24,1.64,1.64,0,0,0-1.61-.71,3.19,3.19,0,0,0-2,.71,2.45,2.45,0,0,0-.71,1.71v5.64h1.52c.18,0,.36.09.36.26v1.26c0,.18-.09.36-.27.36h-5.73c-.18,0-.36-.09-.36-.27V125c0-.17.09-.35.27-.35h1.43v-8.24h-1.34c-.18,0-.36-.09-.36-.27Z"/>
</svg>
