<svg xmlns="http://www.w3.org/2000/svg" xmlns:xlink="http://www.w3.org/1999/xlink" width="28" height="28"><defs><radialGradient id="c" cx="33.368%" cy="102.832%" r="82.865%" fx="33.368%" fy="102.832%"><stop offset="0%" stop-color="#FFDC82"/><stop offset="24.589%" stop-color="#FCB14F"/><stop offset="34.351%" stop-color="#FA8C42"/><stop offset="49.972%" stop-color="#F76A32"/><stop offset="100%" stop-color="#9537BE" stop-opacity="0"/></radialGradient><linearGradient id="a" x1="23.339%" x2="34.621%" y1="0%" y2="43.505%"><stop offset="0%" stop-color="#4A67D5"/><stop offset="100%" stop-color="#D83084"/></linearGradient><path id="b" d="M18.65 4.499c3.078.002 3.565.019 4.915.08 1.438.067 2.42.295 3.278.628a6.617 6.617 0 012.391 1.557 6.623 6.623 0 011.558 2.391c.334.86.562 1.84.628 3.278.062 1.35.08 1.84.081 4.916v1.302c-.002 3.077-.019 3.564-.08 4.914-.067 1.438-.295 2.42-.63 3.278a6.598 6.598 0 01-1.557 2.391 6.598 6.598 0 01-2.39 1.558c-.859.334-1.841.562-3.279.628-1.35.062-1.837.08-4.914.081h-1.302c-3.077-.002-3.566-.019-4.916-.08-1.437-.067-2.418-.295-3.278-.63a6.623 6.623 0 01-2.391-1.557 6.617 6.617 0 01-1.557-2.39c-.333-.859-.561-1.841-.627-3.279-.062-1.35-.08-1.837-.081-4.914v-1.302c.002-3.077.019-3.566.08-4.916.067-1.437.295-2.418.628-3.278a6.643 6.643 0 011.557-2.391 6.643 6.643 0 012.391-1.557c.86-.333 1.84-.561 3.278-.627 1.35-.062 1.84-.08 4.916-.081zm.561 2.434h-2.422c-2.516.003-3 .02-4.245.077-1.316.06-2.031.28-2.507.465-.63.245-1.08.537-1.552 1.01a4.179 4.179 0 00-1.01 1.552c-.184.476-.405 1.191-.465 2.507-.056 1.246-.074 1.729-.077 4.245v2.422c.003 2.516.02 3 .077 4.245.06 1.316.28 2.031.465 2.507.245.63.537 1.08 1.01 1.552.472.473.922.765 1.552 1.01.476.184 1.191.405 2.507.465 1.246.056 1.729.074 4.245.077h2.422c2.516-.003 3-.02 4.245-.077 1.316-.06 2.031-.28 2.507-.465a4.179 4.179 0 001.552-1.01 4.179 4.179 0 001.01-1.552c.184-.476.405-1.191.465-2.507.056-1.246.074-1.729.077-4.245v-2.422c-.003-2.516-.02-3-.077-4.245-.06-1.316-.28-2.031-.465-2.507a4.179 4.179 0 00-1.01-1.552 4.179 4.179 0 00-1.552-1.01c-.476-.184-1.191-.405-2.507-.465-1.246-.056-1.729-.074-4.245-.077zM18 11.066a6.934 6.934 0 110 13.868 6.934 6.934 0 010-13.868zm0 2.434a4.5 4.5 0 100 9 4.5 4.5 0 000-9zm7.207-4.327a1.62 1.62 0 110 3.24 1.62 1.62 0 010-3.24z"/></defs><g fill="none" fill-rule="evenodd" transform="translate(-4 -4)"><path d="M0 0h36v36H0z"/><use fill="url(#a)" xlink:href="#b"/><use fill="url(#c)" xlink:href="#b"/></g></svg>