<?xml version="1.0" encoding="UTF-8"?>
<svg id="a" data-name="Layer 1" viewBox="0 0 200 200" xmlns="http://www.w3.org/2000/svg">
<defs>
<style>.cls-1{fill:#f0f0f0;}.cls-2{fill:#050505;}.cls-3{fill:#742a85;fill-rule:evenodd;}.cls-4{fill:#742b85;}</style>
</defs>
<title>knowtechie</title>
<rect class="cls-1" width="200" height="200"/>
<path class="cls-2" d="M38.748,88.628,29.8,96.573l.773-4.389H26.608L23.473,108.32h4.092c.388-2.006.776-4.141,1.163-6.147.347-1.795,1.824-3.188,3.349-1.146l4.031,7.293h4.6L34.76,96.506l9.073-7.838Z"/>
<path class="cls-2" d="M55.787,99.021c.727-3.766-1.512-6.223-5.254-6.266-5.966-.069-6.787,2.639-7.7,5.905l-1.863,9.66h3.921l1.944-9.82a2.923,2.923,0,0,1,2.977-2.123c1.525,0,2.457.8,2.089,2.708-.424,2.206-.978,4.8-1.4,7-.468,2.429.974,2.232,1.356,2.232h2.135Z"/>
<path class="cls-2" d="M57.243,102.182c-.684,3.529,1.012,6.5,5.442,6.5a7.813,7.813,0,0,0,7.954-6.241l.632-2.866c.774-3.51-.85-6.753-5.536-6.753a7.849,7.849,0,0,0-7.924,6.433Zm4.43-2.7a3.708,3.708,0,0,1,3.374-3.238c1.315,0,2.656,1.278,2.242,3.43l-.448,2.332a3.655,3.655,0,0,1-3.468,3.11c-1.316,0-2.563-1.148-2.148-3.3Z"/>
<path class="cls-2" d="M77.555,103.643,77.23,93.05H73.318l1.145,15.271h4.1l4.049-9.628.534,9.628h4.037L94.257,93.05H91.694c-.978,0-1.469-.24-2.744,3.243l-3.032,7.222L85.666,93.05H81.715Z"/>
<polygon class="cls-3" points="26.025 86.957 22.294 86.957 21.781 90.8 25.513 90.8"/>
<polygon class="cls-3" points="20.471 92.542 17.828 92.542 17.465 95.264 20.108 95.264"/>
<polygon class="cls-3" points="19.389 82.388 16.746 82.388 16.383 85.111 19.026 85.111"/>
<polygon class="cls-4" points="95.846 92.097 101.48 92.097 98.481 108.32 102.32 108.32 105.58 92.097 111.21 92.097 111.89 88.415 96.525 88.415"/>
<path class="cls-4" d="M113.94,99.128l.03-.09c.73-2.195,1.691-3.11,3.157-3.11s2.934.339,2.012,3.11l-.03.09Zm9.291,2.678.342-3.537c.334-3.455-1.645-5.514-5.758-5.514a7.993,7.993,0,0,0-7.859,6.689c-.493,2.548-.895,5.187.148,7.075.721,1.305,2.036,2.161,4.691,2.161a7.677,7.677,0,0,0,7.6-5.045l-4.276-.038a3.5,3.5,0,0,1-2.768,1.781c-1.405,0-2.542-1.171-1.982-3.452v-.12Z"/>
<path class="cls-4" d="M124.892,102.468c-.605,3.542,1.3,6.339,5.472,6.339,3.5,0,6.489-1.377,7.595-5.036l-4.156-.026c-.538,1.585-1.615,1.662-2.751,1.662-1.316,0-2.534-.946-2.178-3.11l.43-2.619c.355-2.164,1.979-3.622,3.295-3.622,1.136,0,2.17.2,2.367,1.661l4.079-.025c.09-3.02-1.491-4.908-5.5-4.908a7.8,7.8,0,0,0-8.1,6.467Z"/>
<path class="cls-4" d="M158.28,91.663h3.794c.092-.467.2-.931.295-1.4.234-1.192-.4-1.624-1.642-1.624h-1.832c-.189.961-.425,2.063-.615,3.024m-3.214,16.657h3.793l2.688-13.9a1.21,1.21,0,0,0-1.232-1.431h-2.285Z"/>
<path class="cls-4" d="M154.78,99.021c.727-3.766-.167-6.138-4.549-6.138a5.9,5.9,0,0,0-4.569,2.124c.28-1.244.582-3.576.81-4.821a1.3,1.3,0,0,0-1.009-1.521l-2.506-.04c-1.306,6.638-2.566,13.051-3.759,19.7h3.921l1.816-8.8c.637-2.264,1.832-3.212,4.131-3.212,1.525,0,2.2,1.247,1.833,3.157-.423,2.2-.978,4.861-1.4,7.067-.468,1.949.974,1.784,1.356,1.784h2.135Z"/>
<path class="cls-4" d="M166.629,99.128l.03-.09c.73-2.195,1.691-3.11,3.156-3.11s2.934.339,2.012,3.11l-.03.09Zm8.971,2.678.662-3.217c.7-3.4-1.644-5.834-5.758-5.834-4.781,0-7.017,3.161-7.7,6.689-.493,2.548-1.054,5.187-.011,7.075.721,1.305,2.036,2.161,4.691,2.161a7.677,7.677,0,0,0,7.6-5.045l-4.276-.038a3.5,3.5,0,0,1-2.768,1.781c-1.405,0-2.542-1.171-1.982-3.452v-.12Z"/>
</svg>
