<svg xmlns="http://www.w3.org/2000/svg" width="100" height="87"><g fill="none" transform="translate(0 1)"><path fill="#DCDBE9" d="M92 79.98l4-14H62.94c-5.48 0-10.5 3.1-12.94 8 3.32 0 6 2.68 6 6h36m-84 0l-4-14h33.06c5.48 0 10.5 3.1 12.94 8-3.32 0-6 2.68-6 6H8"/><circle cx="43" cy="55" r="1" fill="#282366"/><circle cx="83" cy="49" r="1" fill="#282366"/><circle cx="27" cy="55" r="1" fill="#282366"/><circle cx="14" cy="50" r="2" fill="#282366"/><circle cx="58" cy="50" r="2" fill="#282366"/><circle cx="86" cy="30" r="2" fill="#282366"/><path fill="#282366" d="M25 71.98H7c-.56 0-1-.44-1-1s.44-1 1-1h18c.56 0 1 .44 1 1s-.44 1-1 1zm68 2H73c-.56 0-1-.44-1-1s.44-1 1-1h20c.56 0 1 .44 1 1s-.44 1-1 1zm-58 2H23c-.56 0-1-.44-1-1s.44-1 1-1h12c.56 0 1 .44 1 1s-.44 1-1 1zm30 0h-6c-.56 0-1-.44-1-1s.44-1 1-1h6c.56 0 1 .44 1 1s-.44 1-1 1zm6-4h-6c-.56 0-1-.44-1-1s.44-1 1-1h6c.56 0-1 .44-1 1s1.56 1 1 1z"/><path fill="#282366" d="M98 77.98H57.72c-.62-2.38-2.3-4.36-4.52-5.34 2.34-2.92 5.88-4.66 9.74-4.66h30.28l-1.12 3.36c-.34 1.04.22 2.18 1.26 2.52 1.06.36 2.18-.22 2.52-1.26l2-6a2.018 2.018 0 00-1.9-2.64H62.94c-5.16 0-9.86 2.38-12.94 6.34-3.08-3.96-7.78-6.34-12.94-6.34H4c-.64 0-1.24.3-1.62.84-.38.54-.48 1.2-.28 1.8l2 6a1.997 1.997 0 002.54 1.26 1.984 1.984 0 001.26-2.52l-1.12-3.36h30.28c3.86 0 7.4 1.74 9.74 4.66a8.03 8.03 0 00-4.52 5.34H2c-1.1 0-2 .9-2 2s.9 2 2 2h41.42C45.34 83.3 47.66 84 50 84s4.66-.7 6.58-2.02H98c1.1 0 2-.9 2-2s-.9-2-2-2zM46.14 79c.44-1.72 2-3.02 3.86-3.02 1.86 0 3.42 1.28 3.86 3.02-2.28 1.28-5.44 1.28-7.72 0z"/><path fill="#282366" d="M76 67.98c-1.1 0-2-.9-2-2s.9-2 2-2c2.2 0 4-1.8 4-4s-1.8-4-4-4c-1.1 0-2-.9-2-2s.9-2 2-2c4.42 0 8 3.58 8 8s-3.58 8-8 8zm10 0c-1.1 0-2-.9-2-2s.9-2 2-2c2.2 0 4-1.8 4-4 0-1.1.9-2 2-2s2 .9 2 2c0 4.42-3.58 8-8 8zm-72 0c-4.42 0-8-3.58-8-8 0-1.1.9-2 2-2s2 .9 2 2c0 2.2 1.8 4 4 4 1.1 0 2 .9 2 2s-.9 2-2 2zM66 45c-.56 0-1-.44-1-1 0-8.28-6.72-15-15-15-8.28 0-15 6.72-15 15 0 .56-.44 1-1 1s-1-.44-1-1c0-9.38 7.62-17 17-17 9.38 0 17 7.62 17 17 0 .56-.44 1-1 1zm11.72-4c-.5 0-.92-.36-.98-.86a26.15 26.15 0 00-1.5-5.78c-.2-.52.06-1.1.58-1.3.52-.2 1.1.06 1.3.58.76 2 1.3 4.1 1.62 6.22.08.54-.3 1.06-.84 1.14h-.18z"/><path fill="#282366" d="M24.7 33c-.14 0-.3-.04-.42-.1-.5-.24-.72-.84-.48-1.34C28.58 21.5 38.88 14.98 50 14.98c8.94 0 17.24 4.04 22.78 11.06.34.44.26 1.06-.16 1.4-.44.34-1.06.26-1.4-.16C66.06 20.76 58.32 17 50 17c-10.38 0-19.94 6.06-24.4 15.42-.18.36-.54.58-.9.58zM82 21c-.3 0-.6-.14-.8-.4a38.953 38.953 0 00-7.8-7.8c-.44-.34-.54-.96-.2-1.4.34-.44.96-.52 1.4-.2 3.1 2.34 5.86 5.1 8.2 8.2.34.44.24 1.06-.2 1.4-.18.14-.38.2-.6.2zm-56-8c-.3 0-.6-.14-.8-.4-.34-.44-.24-1.06.2-1.4C32.54 5.84 41.04 3 50 3c2.06 0 4.14.16 6.14.46.54.08.92.6.84 1.14-.08.54-.6.9-1.14.84C53.94 5.14 51.96 5 50 5c-8.52 0-16.62 2.7-23.4 7.8-.18.14-.4.2-.6.2zM14.26 27c-.16 0-.3-.04-.44-.1-.5-.24-.7-.86-.44-1.34 1.58-3.12 3.56-6.04 5.88-8.66.36-.42 1-.46 1.42-.08.42.36.46 1 .08 1.42-2.2 2.5-4.08 5.28-5.58 8.24-.2.32-.54.52-.92.52z"/><path fill="#80CAF0" d="M67.98 7.72l3.72-1.3c.38-.14.38-.68 0-.82l-3.72-1.3a.42.42 0 01-.26-.26L66.42.32a.437.437 0 00-.82 0l-1.3 3.72a.42.42 0 01-.26.26l-3.72 1.3c-.38.14-.38.68 0 .82l3.72 1.3c.12.04.22.14.26.26l1.3 3.72c.14.38.68.38.82 0l1.3-3.72a.42.42 0 01.26-.26zm-46 34l3.72-1.3c.38-.14.38-.68 0-.82l-3.72-1.3a.42.42 0 01-.26-.26l-1.3-3.72a.437.437 0 00-.82 0l-1.3 3.72a.42.42 0 01-.26.26l-3.72 1.3c-.38.14-.38.68 0 .82l3.72 1.3c.12.04.22.14.26.26l1.3 3.72c.14.38.68.38.82 0l1.3-3.72a.42.42 0 01.26-.26z"/><path fill="#282366" d="M49.32 43.14l2.48-.86c.26-.1.26-.46 0-.54l-2.48-.86c-.08-.02-.14-.1-.18-.18l-.86-2.48c-.1-.26-.46-.26-.54 0l-.86 2.48c-.02.08-.1.14-.18.18l-2.48.86c-.26.1-.26.46 0 .54l2.48.86c.08.02.14.1.18.18l.86 2.48c.1.26.46.26.54 0l.86-2.48c.04-.08.1-.14.18-.18z"/></g></svg>