<?xml version="1.0" encoding="UTF-8"?>
<svg id="a" data-name="Layer 1" viewBox="0 0 200 200" xmlns="http://www.w3.org/2000/svg">
<defs>
<style>.cls-1{fill:#023851;}.cls-2{fill:#fff;}.cls-3{fill:#faaf3b;}</style>
</defs>
<title>livescience</title>
<rect class="cls-1" width="200" height="200"/>
<path class="cls-2" d="M165.724,109.436V90.646h14.194v3.7H169.792v3.782h9.883v3.7h-9.883v3.945H180v3.66Z"/>
<path class="cls-2" d="M82.593,109.68a11.841,11.841,0,0,1-8.012-3.05l2.44-2.928a8.707,8.707,0,0,0,5.613,2.278c1.708,0,2.684-.691,2.684-1.749v-.041c0-1.057-.651-1.586-3.782-2.4-3.782-.976-6.263-2.034-6.263-5.735v-.041c.041-3.416,2.766-5.694,6.629-5.694a11.029,11.029,0,0,1,7,2.4l-2.156,3.091A8.874,8.874,0,0,0,81.82,93.94c-1.586,0-2.4.691-2.4,1.627v.041c0,1.22.813,1.627,4.108,2.44,3.782.976,5.979,2.4,5.979,5.653v.041C89.507,107.565,86.619,109.68,82.593,109.68Z"/>
<path class="cls-2" d="M100.529,109.761a9.476,9.476,0,0,1-9.639-9.72V100a9.571,9.571,0,0,1,9.8-9.761,9.691,9.691,0,0,1,7.443,2.928l-2.644,3.05a6.843,6.843,0,0,0-4.8-2.115,5.574,5.574,0,0,0-5.45,5.857V100c0,3.213,2.237,5.9,5.45,5.9,2.156,0,3.457-.895,4.962-2.237l2.644,2.684A9.667,9.667,0,0,1,100.529,109.761Z"/>
<path class="cls-2" d="M156.248,109.761a9.476,9.476,0,0,1-9.639-9.72V100a9.571,9.571,0,0,1,9.8-9.761,9.691,9.691,0,0,1,7.443,2.928l-2.644,3.05a6.843,6.843,0,0,0-4.8-2.115,5.574,5.574,0,0,0-5.45,5.857V100c0,3.213,2.237,5.9,5.45,5.9,2.156,0,3.457-.895,4.962-2.237l2.644,2.684A9.725,9.725,0,0,1,156.248,109.761Z"/>
<path class="cls-2" d="m110 109.44v-18.79h4.148v18.79z"/>
<polygon class="cls-2" points="140.75 90.646 140.75 102.2 131.93 90.646 128.14 90.646 128.14 94.306 118.18 94.306 118.18 98.129 128.14 98.129 128.14 101.79 118.18 101.79 118.18 105.69 128.14 105.69 128.14 109.44 132.21 109.44 132.21 97.478 141.32 109.44 144.86 109.44 144.86 90.646"/>
<path class="cls-3" d="M20,90.524h2.115V107.4H32.689V109.4H20Z"/>
<path class="cls-3" d="M37,90.524v18.831H34.886V90.524Z"/>
<path class="cls-3" d="M54.936,90.524h2.278l-8.053,18.993H47.29L39.156,90.524h2.4l6.711,16.268Z"/>
<path class="cls-3" d="M72.994,92.517H61.484v6.426h10.29v1.912H61.484v6.589H73.116v1.912H59.41V90.524H73.035v1.993Z"/>
</svg>
