<svg version="1.1" id="Layer_1" xmlns="http://www.w3.org/2000/svg" x="0" y="0" viewBox="0 0 46 50" xml:space="preserve"><style>.st1{fill:#282366}.st2{fill:#80caf0}</style><path d="M43.8 46l-7.3-9.8C35.5 35 35 33.5 35 32V21c0-.4.1-.7.2-1H26v1h5c.6 0 1 .4 1 1v10c0 1.5.4 3 1 4.2l4.8 9.8c.1.2.2.5.2.8 0 .7-.4 1.2-.8 1.2h5.5c.7 0 1.2-.6 1.2-1.2.1-.3 0-.6-.1-.8z" fill="#dedbe8"/><path class="st2" d="M44.5 45.4L41.2 41H41c-1.1-1.2-3.5-1.9-5-2-1.8-.1-3.6.5-5 2-1.4 1.4-4.2 2.1-6 2-.7 0-1.4-.3-2.1-.6L21.2 46c-.1.2-.2.5-.2.8 0 .7.4 1.2.8 1.2l.2 1h20.8c1.2 0 2.2-1 2.2-2.2 0-.5-.2-1-.5-1.4z"/><path d="M19.5 12.5L2.7 29.3c-.2-.2-.3-.5-.3-.8 0-.3.1-.6.3-.8l-.4.4c-.2.2-.3.5-.3.8 0 .3.1.6.3.8l-.7.7c.4.4.9.6 1.5.6s1.1-.2 1.5-.6L21 14l-1.5-1.5z" fill="#dcdbe9"/><circle class="st1" cx="20" cy="2" r="1"/><circle class="st1" cx="32" cy="6" r="1"/><circle class="st1" cx="29" cy="12" r="1"/><circle class="st1" cx="34" cy="13" r="1"/><circle class="st1" cx="29" cy="23" r="1"/><circle class="st1" cx="31" cy="35" r="1"/><circle class="st1" cx="30.5" cy="16.5" r=".5"/><circle class="st1" cx="31.5" cy="25.5" r=".5"/><circle class="st1" cx="27.5" cy="36.5" r=".5"/><circle class="st1" cx="29.5" cy="29.5" r=".5"/><circle class="st1" cx="17.5" cy="5.5" r=".5"/><path class="st2" d="M19 11l4-4 1 1 1 1-4 4z"/><path class="st1" d="M22.9 6c-.8 0-1.6.3-2.2.9l-3.4 3.4c-.4.4-.4 1 0 1.4l2.3 2.3L3.9 29.7c-.2.2-.5.3-.8.3-.6 0-1.1-.5-1.1-1.1 0-.3.1-.6.3-.8l13.4-13.4c.4-.4.4-1 0-1.4s-1-.4-1.4 0L.9 26.7c-.6.6-.9 1.3-.9 2.2C0 30.6 1.4 32 3.1 32c.8 0 1.6-.3 2.2-.9l19.8-19.8c.6-.6.9-1.3.9-2.2C26 7.4 24.6 6 22.9 6zm.8 3.9L21 12.6 19.4 11l2.7-2.7c.2-.2.5-.3.8-.3.6 0 1.1.5 1.1 1.1 0 .3-.1.6-.3.8zM28 3.9l1.9-.7c.2-.1.2-.3 0-.4L28 2.1c-.1 0-.1-.1-.1-.1L27.2.1c-.1-.2-.3-.2-.4 0L26.1 2c0 .1-.1.1-.1.1l-1.9.7c-.2.1-.2.3 0 .4l1.9.7c.1 0 .1.1.1.1l.7 1.9c.1.2.3.2.4 0l.7-1.9c0-.1 0-.1.1-.1zM45.3 44.8L38 35c-.6-.9-1-1.9-1-3V21c0-.6.4-1 1-1h1c.6 0 1-.4 1-1s-.4-1-1-1H23c-.6 0-1 .4-1 1s.4 1 1 1h1c.6 0 1 .4 1 1v11c0 1.1-.4 2.1-1 3l-7.3 9.8c-.4.6-.7 1.3-.7 1.9 0 1.8 1.5 3.2 3.2 3.2h23.5c1.8 0 3.2-1.5 3.2-3.2.1-.6-.1-1.3-.6-1.9zm-19.7-8.6C26.5 35 27 33.5 27 32V21c0-.4-.1-.7-.2-1h8.3c-.1.3-.2.6-.2 1v11c0 1.5.5 3 1.4 4.2l2 2.7c-2.5-.8-5.3-.3-7.4 1.4-2.1-1.7-5-2.2-7.5-1.4l2.2-2.7zm-3.3 4.4c2.4-1.6 5.7-1.5 8 .3-2.4 2-5.9 2.1-8.4.2l.4-.5zM42.8 48H19.2c-.7 0-1.2-.6-1.2-1.2 0-.3.1-.5.2-.8l3-4c1.4 1 3 1.5 4.7 1.5 2 0 3.9-.7 5.4-2.1 2.2-2.1 5.7-2.4 8.3-.9l4.1 5.5c.2.2.2.5.2.8.1.6-.5 1.2-1.1 1.2z"/></svg>