<svg version="1.1" id="Layer_1" xmlns="http://www.w3.org/2000/svg" x="0" y="0" viewBox="0 0 44 46" xml:space="preserve"><style>.st0{fill:#e9e6f2}.st2{fill:none;stroke:#282366;stroke-width:2;stroke-linecap:round;stroke-linejoin:round;stroke-miterlimit:10}.st3{fill:#80caf0}.st4{fill:#282366}.st26,.st6{fill:none;stroke:#282366;stroke-linecap:round;stroke-linejoin:round;stroke-miterlimit:10}.st26{stroke-dasharray:8,2}</style><path class="st3" d="M6.58 22.362l3.6-11.63-4.56-1.46-3.95 12.28c-.33 1.1-.49 2.21-.49 3.32 0 6.89 6.11 13.49 14.23 13.49h.06v-5.19h-.06c-6.06 0-10.38-5.72-8.83-10.81"/><path class="st0" d="M5.62 8.978l4.639 1.458-2.153 6.26-4.653-1.487zM25.22 8.978l-4.64 1.458 1.973 6.284 4.653-1.487z"/><path class="st2" d="M29.698 23.008l-4.495-14.03-4.557 1.458 4.037 12.572M19.942 31.709a9.268 9.268 0 01-4.53 1.169c-6.068 0-10.384-5.716-8.838-10.811l3.685-11.63-4.639-1.46L1.67 21.26c-2.402 7.922 4.307 16.808 13.742 16.808 1.643 0 3.203-.269 4.647-.756"/><path class="st26" d="M6.958 6.681a9.98 9.98 0 018.45-4.66c3.64 0 6.83 1.95 8.56 4.86"/><path class="st26" d="M9.188 7.591a7.601 7.601 0 016.22-3.22c2.63 0 4.95 1.33 6.33 3.35"/><path class="st26" d="M11.508 8.531a5.186 5.186 0 013.9-1.76c1.6 0 3.02.72 3.99 1.84"/><path class="st6" d="M8.106 16.697l-4.185-1.338M23.021 17.091l4.185-1.338"/><path d="M23.683 31.008h18v1h-18v-1z" fill="#dcdbe9"/><circle class="st4" cx="28.683" cy="35.008" r="1"/><path class="st3" d="M22.683 30.008v-2c0-1.1.9-2 2-2h16c1.1 0 2 .9 2 2v2h-20z"/><circle class="st4" cx="32.683" cy="35.008" r="1"/><circle class="st4" cx="36.683" cy="35.008" r="1"/><circle class="st4" cx="28.683" cy="39.008" r="1"/><circle class="st4" cx="32.683" cy="39.008" r="1"/><circle class="st4" cx="36.683" cy="39.008" r="1"/><path class="st4" d="M23.683 28.008c0-.6.4-1 1-1h2c0 .6.4 1 1 1s1-.4 1-1h8c0 .6.4 1 1 1s1-.4 1-1h2c.6 0 1 .4 1 1v2h-18v-2zm0 14v-11h18v7c0 .6-.4 1-1 1h-1c-1.1 0-2 .9-2 2v1c0 .6-.4 1-1 1h-12c-.6 0-1-.4-1-1zm17-17h-2c0-.6-.4-1-1-1s-1 .4-1 1h-8c0-.6-.4-1-1-1s-1 .4-1 1h-2c-1.7 0-3 1.3-3 3v14c0 1.7 1.3 3 3 3h13.2c.8 0 1.6-.3 2.1-.9l2.8-2.8c.6-.6.9-1.3.9-2.1v-11.2c0-1.7-1.3-3-3-3z"/></svg>