<?xml version="1.0" encoding="UTF-8"?>
<svg id="a" data-name="Layer 1" viewBox="0 0 200 200" xmlns="http://www.w3.org/2000/svg">
<defs>
<style>.cls-1{fill:#12100e;}.cls-2{fill:#fff;}</style>
</defs>
<title>medium</title>
<rect id="b" class="cls-1" width="200" height="200"/>
<path id="c" class="cls-2" d="M64.42,78.13a3.59,3.59,0,0,0-1.18-3l-8.7-10.5V63H81.62l20.94,45.88L120.94,63h25.77v1.59l-7.46,7.12a2.18,2.18,0,0,0-.83,2.07v52.44a2.12,2.12,0,0,0,.83,2.07l7.25,7.12V137H109.88v-1.59l7.53-7.32c.76-.76.76-1,.76-2.08V83.73l-20.93,53.2H94.4L70,83.73v35.65a4.72,4.72,0,0,0,1.38,4.08l9.82,11.88v1.59H53.29v-1.59l9.81-11.88a4.74,4.74,0,0,0,1.25-4.08V78.13Z"/>
</svg>
