<?xml version="1.0" encoding="UTF-8"?>
<svg id="a" data-name="Layer 1" viewBox="0 0 200 200" xmlns="http://www.w3.org/2000/svg">
<defs>
<style>.cls-1{fill:#fdb813;}.cls-2,.cls-3{fill-rule:evenodd;}.cls-3{fill:#fff;}</style>
</defs>
<title>newsworks</title>
<rect class="cls-1" width="200" height="200"/>
<polygon class="cls-2" points="95.444 108.09 99.677 108.09 102.94 98.763 106.05 108.09 110.53 108.09 115.61 91.945 110.52 91.931 108.04 100.76 105.18 91.947 100.72 91.947 97.843 100.76 95.286 91.944 90.202 91.933"/>
<polygon class="cls-2" points="148.92 108.09 154.18 108.09 154.18 102.92 155.63 101.61 159.85 108.08 165.78 108.09 159.04 98.109 165.39 91.929 159.26 91.929 154.18 97.204 154.18 86.247 148.93 86.247"/>
<path class="cls-2" d="M175.281,103.1c.165,1.122-.554,1.4-1.594,1.35a12.656,12.656,0,0,1-5.36-1.929l-2.214,3.117a11.6,11.6,0,0,0,7.831,2.715c2.835-.109,4.935-1.249,5.731-3.324a5.422,5.422,0,0,0-.054-3.848c-.972-2.247-3.761-2.885-5.962-3.388-1.16-.265-2.594-.958-2.045-1.933.941-1.2,4.439-.2,6.1,1.045l1.916-3.461c-1.97-1.767-10.51-3.557-12.341,1.55a4.612,4.612,0,0,0,2.136,5.82c1.729.992,4.853,1.317,5.857,2.286"/>
<path class="cls-2" d="M141.5,94.122v-2.19h-5.2l.012,16.163h5.175l.074-7.105c0-2.5,2.08-4.585,5.295-4.425v-4.91c-3.477-.138-4.44,1.254-5.355,2.468"/>
<path class="cls-2" d="M38.389,99.274,50,99.3c-.228-3.467-2.132-5.884-5.77-5.772-3.373.1-5.507,2.525-5.844,5.742m12.856,5.655a4.276,4.276,0,0,0-1.13-.907c-1.74,2.7-7.155,3.268-9.729.772a6.767,6.767,0,0,1-2-4.185l13.294.006c0-3.988-1.609-7.639-5.769-8.322-9.77-1.606-12.406,11.045-5.1,14.748a9.141,9.141,0,0,0,8.554-.421A6.583,6.583,0,0,0,51.245,104.929Z"/>
<polygon class="cls-2" points="59.544 107.78 64.385 95.222 69.27 107.78 70.479 107.78 76.266 92.474 74.6 92.437 69.913 104.72 64.996 92.441 63.855 92.441 58.935 104.78 54.079 92.45 52.448 92.454 58.241 107.78"/>
<path class="cls-2" d="m21.647 94.912l-0.011-2.246-0.04-0.228h-1.596v15.362l1.637-7e-3v-10.074c0.727-3.25 4.129-4.113 5.368-4.089a5.292 5.292 0 0 1 4.135 1.782c1.268 1.6 1.112 3.331 1.112 5.658v6.683l1.6 0.039v-7.414c0-2.692-0.035-4.142-1.381-5.993a6.381 6.381 0 0 0 -5.515 -2.225 6.932 6.932 0 0 0 -5.305 2.752"/>
<path class="cls-2" d="M78.03,104.7l-.725,1.282a12.547,12.547,0,0,0,5.69,2.01c3.234.3,6.61-1.114,6.5-4.645-.094-3.562-4.363-3.9-7.007-4.614-1.456-.392-3.528-1.105-2.978-3.05.5-1.768,2.395-2.213,4.4-2.126a9.46,9.46,0,0,1,4.307,1.486l.594-1.119a9.316,9.316,0,0,0-4.828-1.744c-2.514-.122-5.092.677-5.882,2.994a3.406,3.406,0,0,0,.174,2.63c.666,1.185,2.218,1.866,3.805,2.325a24.185,24.185,0,0,1,3.932,1.162,2.551,2.551,0,0,1,1.8,2.428c-.055,1.4-1.232,3.019-4.611,2.794A12.731,12.731,0,0,1,78.03,104.7"/>
<path class="cls-3" d="M125.131,108.385a8.622,8.622,0,1,0-9.059-8.61,8.307,8.307,0,0,0,1.909,5.288l-2.383,5.107,5.55-2.66a9.409,9.409,0,0,0,3.983.876"/>
</svg>
