<?xml version="1.0" encoding="UTF-8"?>
<svg id="a" data-name="Layer 1" viewBox="0 0 200 200" xmlns="http://www.w3.org/2000/svg">
<defs>
<style>.cls-1{fill:#f0f0f0;}.cls-2{fill:#e64834;}.cls-3{fill:#060000;}.cls-4{fill:#498dcb;}.cls-5{fill:#fff;}</style>
</defs>
<title>npr</title>
<rect class="cls-1" width="200" height="200"/>
<rect class="cls-2" x="40" y="79.759" width="39.998" height="40"/>
<rect class="cls-3" x="79.998" y="79.759" width="40.002" height="40"/>
<rect class="cls-4" x="120" y="79.759" width="40" height="40"/>
<path class="cls-5" d="M64.271,109.963v-11.8a5.892,5.892,0,0,0-1.006-3.814,4.056,4.056,0,0,0-3.285-1.2,5.112,5.112,0,0,0-2.252.591A5.2,5.2,0,0,0,55.861,95.2v14.759H51.083V89.457h3.445l.88,1.912a7.2,7.2,0,0,1,5.762-2.257A7.648,7.648,0,0,1,66.937,91.3a8.421,8.421,0,0,1,2.115,6.106v12.556Z"/>
<path class="cls-5" d="M98.556,93.2q3.3,0,4.735,1.48t1.428,5.105q0,3.4-1.441,4.973t-4.74,1.574a4.679,4.679,0,0,1-3.033-1.05V94.537A4.2,4.2,0,0,1,98.556,93.2Zm1.067,17.165a9.981,9.981,0,0,0,7.4-2.717q2.712-2.717,2.709-7.748,0-10.789-9.8-10.789A6.157,6.157,0,0,0,95.5,90.835V89.457h-4.78v27.682H95.5v-7.674A9.3,9.3,0,0,0,99.622,110.367Z"/>
<path class="cls-5" d="M145.291,93.95a5.132,5.132,0,0,0-2.8-.806,3.79,3.79,0,0,0-2.941,1.507,5.461,5.461,0,0,0-1.286,3.68v11.632h-4.781V89.457h4.781v1.959a6.683,6.683,0,0,1,5.312-2.3,7.587,7.587,0,0,1,3.731.745Z"/>
</svg>
