<svg version="1.1" id="Layer_1" xmlns="http://www.w3.org/2000/svg" x="0" y="0" viewBox="0 0 52 48" xml:space="preserve"><style>.st0{fill:#dcdbe9}.st1{fill:#282366}.st2{fill:#80caf0}.st5{fill:#fff}</style><path class="st2" d="M44 20v1.1c0 .6.1 1.1.4 1.6.9 1.8 3.1 2.5 4.9 1.6l.7-.3c0 2.8-2.2 5-5 5h-5v-4l4-5z"/><path class="st0" d="M18.7 19v4.2c0 .9-.2 1.8-.7 2.6l-2.8 3.5c-.2.4-.6.7-1.1.7h1.5c.6 0 1.2-.3 1.5-.7l2.9-3.5c.6-.7.9-1.6.9-2.6V19h-2.2z"/><path class="st1" d="M14 27.5c-.9 0-1.8-.4-2.4-1.2-.2-.2-.1-.5.1-.7s.5-.1.7.1c.9 1.1 2.4 1.1 3.2 0 .2-.2.5-.2.7-.1.2.2.2.5.1.7-.6.8-1.5 1.2-2.4 1.2zM35 22.5c-.9 0-1.8-.4-2.4-1.2-.2-.2-.1-.5.1-.7.2-.2.5-.1.7.1.9 1.1 2.4 1.1 3.2 0 .2-.2.5-.2.7-.1.2.2.2.5.1.7-.6.8-1.5 1.2-2.4 1.2z"/><path class="st0" d="M40 12v3.7c0 2.5-.7 4.9-2.1 6.7l-2.3 3.1c-.3.3-.6.5-1 .5h1.2c.5 0 1-.2 1.4-.6l3.1-3.1c1.8-1.8 2.8-4.2 2.8-6.7V12H40zM28 15.7V12h-1v3.7c0 2.5 1 4.9 2.8 6.7l1.2 1.2-.9-1.2c-1.4-1.8-2.1-4.2-2.1-6.7z"/><path class="st1" d="M40 23c-.6 0-1 .4-1 1v5c0 1.3-.7 2.6-1.8 3.3-.9.6-1.7 1.5-2.2 2.5-.5-1-1.3-1.9-2.2-2.5-1.1-.7-1.8-2-1.8-3.3v-5c0-.6-.4-1-1-1s-1 .4-1 1v5c0 2 1 3.9 2.6 5 1.5 1 2.4 2.8 2.4 4.8V41c0 .6.4 1 1 1s1-.4 1-1v-2.3c0-2 .9-3.8 2.4-4.8 1.7-1.1 2.6-3 2.6-5v-5c0-.5-.4-.9-1-.9z"/><path class="st1" d="M25.5 32c-.4 0-.7-.2-.9-.6-.2-.5 0-1.1.5-1.3l4.5-2c.5-.2 1.1 0 1.3.5.2.5 0 1.1-.5 1.3l-4.5 2c-.1.1-.3.1-.4.1zM22 35.3c-.1 0-.2 0-.3-.1l-4-1.3c-.5-.2-.8-.7-.6-1.3.2-.5.7-.8 1.3-.6l4 1.3c.5.2.8.7.6 1.3-.2.5-.6.7-1 .7z"/><path class="st1" d="M26 48c-9.8-.1-18.9-3-25.6-8.2-.3-.2-.4-.5-.4-.8 0-2.8 1.9-5.2 4.7-5.8L9.8 32c.5-.1 1.1.2 1.2.8.1.5-.2 1.1-.8 1.2l-5.1 1.1c-1.7.4-2.9 1.7-3.1 3.4 6.3 4.7 14.8 7.4 24 7.5h.5c10.6 0 17-3.8 23.4-9.4v-.1c0-1.7-1.1-3.2-2.6-3.7L39.6 30c-.5-.2-.8-.8-.6-1.3.2-.5.8-.8 1.3-.6l7.7 2.8c2.4.9 3.9 3.1 3.9 5.6v.5c0 .3-.1.6-.3.7-6.8 6.2-13.7 10.3-25 10.3H26z"/><path class="st1" d="M14 38c-2.8 0-5-2.2-5-5v-3c0-.6.4-1 1-1s1 .4 1 1v3c0 1.7 1.3 3 3 3s3-1.3 3-3v-3c0-.6.4-1 1-1s1 .4 1 1v3c0 2.8-2.2 5-5 5z"/><circle class="st1" cx="11" cy="21" r="1"/><circle class="st1" cx="17" cy="21" r="1"/><circle class="st1" cx="32" cy="14" r="1"/><circle class="st1" cx="38" cy="14" r="1"/><path class="st2" d="M22 18h-6.2c-1.8 0-3.5-.7-4.8-2 0 1.1-.9 2-2 2H6c0-4.4 3.6-8 8-8s8 3.6 8 8z"/><path class="st1" d="M23 18c0-4.9-4-9-9-9s-9 4-9 9v5.2c0 1.4.5 2.8 1.4 3.8l2.9 3.5c.8.9 1.9 1.4 3.1 1.4h3.2c1.2 0 2.3-.5 3.1-1.4l2.9-3.5c.9-1.1 1.4-2.4 1.4-3.8V18zm-9-7c3.5 0 6.4 2.6 6.9 6h-5.1c-1.6 0-3-.6-4.1-1.7-.2-.2-.4-.3-.7-.3-.1 0-.3 0-.4.1-.3.1-.6.5-.6.9 0 .6-.4 1-1 1H7.1c.5-3.4 3.4-6 6.9-6zm6.1 14.8l-2.9 3.5c-.4.5-.9.7-1.5.7h-3.2c-.6 0-1.2-.3-1.5-.7l-2.9-3.5C7.3 25 7 24.1 7 23.2V19h2c1 0 1.9-.5 2.5-1.3 1.3.9 2.8 1.3 4.3 1.3H21v4.2c0 .9-.3 1.8-.9 2.6z"/><path class="st5" d="M15.1 11.1c-.4-.1-.7-.1-1.1-.1-3.6 0-6.5 2.6-7 6h2.1c.5-3.1 2.9-5.5 6-5.9z"/><path class="st2" d="M44 11H33.8c-1.4 0-2.4-1.3-2.1-2.7L32 7l-.2 1c-.4 1.8-2 3-3.9 3H26v-1c0-5 4-9 9-9s9 4 9 9v1z"/><path class="st1" d="M50.5 23.1c-.3-.2-.7-.2-1 0l-.8.4c-.6.3-1.3.4-2 .1-.7-.2-1.2-.7-1.5-1.3-.1-.3-.2-.8-.2-1.2V10c0-5.5-4.5-10-10-10S25 4.5 25 10v5.7c0 3.1 1.2 5.9 3.4 8.1l3.1 3.1c.8.8 1.8 1.2 2.8 1.2h1.5c1.1 0 2.1-.4 2.8-1.2l.4-.4V29c0 .6.4 1 1 1h5c3.3 0 6-2.7 6-6 0-.3-.2-.7-.5-.9zM27 10c0-4.4 3.6-8 8-8s8 3.6 8 8h-9.2c-.4 0-.7-.2-.9-.4s-.3-.6-.2-1l.3-1.3v-.1c.1-.5-.2-1.1-.7-1.2-.5-.1-1.1.2-1.2.7l-.2 1C30.6 9 29.4 10 28 10h-1zm10.2 15.4c-.4.4-.9.6-1.4.6h-1.5c-.5 0-1-.2-1.4-.6l-3.1-3.1C28 20.6 27 18.2 27 15.7V12h.9c1.3 0 2.4-.5 3.3-1.3v.1c.6.8 1.5 1.2 2.5 1.2H43v3.7c0 2.5-1 4.9-2.8 6.7l-3 3zM45 28h-4v-3c0-.2-.1-.3-.1-.5l.8-.8c.5-.5 1-1.1 1.4-1.8.1.4.2.8.4 1.2.6 1.1 1.5 1.9 2.7 2.3.8.3 1.7.3 2.5.1C48 27 46.6 28 45 28z"/><g><path class="st5" d="M36 2.1c-.3-.1-.7-.1-1-.1-4.4 0-8 3.6-8 8h.9c.4 0 .8-.1 1.1-.2.1-4 3.1-7.2 7-7.7z"/></g><g><path class="st0" d="M38.6 26.8c-.2.2-.5.4-.7.6h-.1c-.3.1-.5.3-.8.4-.4.1-.8.2-1.2.2h-1.5c-1.1 0-2.1-.4-2.8-1.2l-.5-.4V28l.4.4c.7.7 1.8 1.2 2.8 1.2h.9c1-.1 1.9.8 1.9 1.8v.9c0 .1.1.2.3.1 1.1-.7 1.7-2.1 1.7-3.4v-2.6l-.4.4z"/></g><g><path class="st0" d="M15.6 32h-3.2c-.5 0-1-.1-1.4-.3v1c.4.2.9.3 1.4.3h1.2c.8 0 1.4.6 1.4 1.4v1.4c.5-.2.9-.5 1.2-.8.5-.5.8-1.2.8-2v-1.3c-.4.2-.9.3-1.4.3z"/></g></svg>