<?xml version="1.0" encoding="UTF-8"?>
<svg id="a" data-name="Layer 1" viewBox="0 0 200 200" xmlns="http://www.w3.org/2000/svg">
<defs>
<style>.cls-1{fill:#110d0a;}.cls-2,.cls-5{fill:#2fa4da;}.cls-2,.cls-4{fill-rule:evenodd;}.cls-3{fill:#cfcacb;}.cls-4{fill:#fff;}</style>
</defs>
<title>science20</title>
<rect class="cls-1" width="200" height="200"/>
<path class="cls-2" d="M103.975,91.842h5.471a5.354,5.354,0,0,1,5.338,5.338v10.975h-2.421V97.941c0-2.276-1.015-3.506-3.294-3.506H106.5v13.72h-2.52Z"/>
<polygon class="cls-2" points="82.953 91.842 85.473 91.842 85.473 94.435 85.473 108.16 82.953 108.16"/>
<path class="cls-2" d="M84.213,86.961a1.485,1.485,0,1,1-1.485,1.485,1.485,1.485,0,0,1,1.485-1.485"/>
<path class="cls-2" d="M124.6,91.85a5.356,5.356,0,0,1,5.078,5.331v.76h-2.421a5.108,5.108,0,0,0-.233-1.629,2.7,2.7,0,0,0-2.612-1.86v-.014l-.13.006-.13-.006v.014c-1.963.156-2.845,1.368-2.845,3.488v4.116c0,2.121.882,3.333,2.845,3.489v.014l.13-.006.13.006v-.014a2.7,2.7,0,0,0,2.612-1.86,4.586,4.586,0,0,0,.218-1.163h2.436v.3a5.356,5.356,0,0,1-5.078,5.331v.006h-.636v-.006a5.355,5.355,0,0,1-5.078-5.331V97.18a5.355,5.355,0,0,1,5.078-5.331v-.006h.636Z"/>
<path class="cls-2" d="M74.117,91.85A5.356,5.356,0,0,1,79.2,97.18v.76H76.774a5.11,5.11,0,0,0-.233-1.629,2.7,2.7,0,0,0-2.612-1.86v-.014l-.13.006-.13-.006v.014c-1.963.156-2.845,1.368-2.845,3.488v4.116c0,2.121.881,3.333,2.845,3.489v.014l.13-.006.13.006v-.014a2.7,2.7,0,0,0,2.612-1.86,4.6,4.6,0,0,0,.218-1.163H79.2v.3a5.356,5.356,0,0,1-5.078,5.331v.006h-.637v-.006a5.355,5.355,0,0,1-5.078-5.331V97.18a5.355,5.355,0,0,1,5.078-5.331v-.006h.637Z"/>
<path class="cls-2" d="M97.516,98.842v-.9a5.108,5.108,0,0,0-.233-1.629,2.7,2.7,0,0,0-2.612-1.86v-.014l-.13.006-.13-.006v.014c-1.963.156-2.845,1.368-2.845,3.488v.9ZM94.86,91.85a5.356,5.356,0,0,1,5.078,5.331V101.3H91.567v.762c0,2.121.882,3.333,2.845,3.489v.014l.13-.006.13.006v-.014a2.7,2.7,0,0,0,2.612-1.86,4.6,4.6,0,0,0,.218-1.163h2.436v.3a5.356,5.356,0,0,1-5.078,5.331v.006h-.637v-.006a5.355,5.355,0,0,1-5.078-5.331V97.18a5.355,5.355,0,0,1,5.078-5.331v-.006h.637Z"/>
<path class="cls-2" d="M142.694,98.842v-.9a5.108,5.108,0,0,0-.233-1.629,2.7,2.7,0,0,0-2.612-1.86v-.014l-.13.006-.13-.006v.014c-1.963.156-2.845,1.368-2.845,3.488v.9Zm-2.657-6.992a5.356,5.356,0,0,1,5.078,5.331V101.3h-8.371v.762c0,2.121.881,3.333,2.845,3.489v.014l.13-.006.13.006v-.014a2.7,2.7,0,0,0,2.612-1.86,4.593,4.593,0,0,0,.218-1.163h2.436v.3a5.356,5.356,0,0,1-5.078,5.331v.006H139.4v-.006a5.355,5.355,0,0,1-5.078-5.331V97.18A5.355,5.355,0,0,1,139.4,91.85v-.006h.637Z"/>
<path class="cls-2" d="M59.407,94.452c-1.606.127-2.6.573-2.8,2.3.219,1.833,2.2,2,4.117,2.329s3.787.822,3.787,4.158c0,2.848-2.262,4.769-5.078,4.906v.006H55.8v-2.6c1.106,0,2.353.06,3.438-.011a3.682,3.682,0,0,0,1.971-.584,2.362,2.362,0,0,0,.832-1.72c-.231-1.926-2.207-1.686-4.125-2s-3.779-1.186-3.779-4.486c0-2.848,2.262-4.769,5.078-4.906v-.006h3.627v2.6c-1.106,0-2.353-.06-3.438.011"/>
<path class="cls-3" d="M178.307,116.825a.152.152,0,0,0,.162.113H179.6a.149.149,0,0,0,.154-.154v-5.365a.149.149,0,0,0-.154-.154h-.746a.159.159,0,0,0-.154.154v3.793l-1.24-3.833a.162.162,0,0,0-.17-.113h-1.135a.149.149,0,0,0-.154.154v5.365a.149.149,0,0,0,.154.154h.746a.149.149,0,0,0,.154-.154v-3.793Zm-5.268-4.733c.608,0,.94.478.94,2.01s-.332,2.01-.94,2.01c-.584,0-.94-.486-.94-2.01S172.455,112.091,173.039,112.091Zm0,4.944c1.386,0,2.074-1.046,2.074-2.934,0-1.9-.689-2.934-2.074-2.934-1.37,0-2.075,1.029-2.075,2.934C170.964,115.99,171.669,117.035,173.039,117.035Zm-3.971-5.77a.149.149,0,0,0-.154.154v5.365a.149.149,0,0,0,.154.154h.811a.149.149,0,0,0,.154-.154v-5.365a.149.149,0,0,0-.154-.154Zm-3.209,5.519a.159.159,0,0,0,.154.154h.81a.149.149,0,0,0,.154-.154v-4.611h1.037a.149.149,0,0,0,.154-.154v-.6a.149.149,0,0,0-.154-.154h-3.193a.149.149,0,0,0-.154.154v.6a.149.149,0,0,0,.154.154h1.038Zm-1.9-5.365a.149.149,0,0,0-.154-.154H163a.149.149,0,0,0-.154.154v3.517c0,.819-.227,1.175-.77,1.175-.527,0-.77-.357-.77-1.175v-3.517a.149.149,0,0,0-.154-.154h-.811a.149.149,0,0,0-.154.154v3.461c0,1.524.729,2.156,1.888,2.156,1.175,0,1.888-.632,1.888-2.156Zm-7.367,5.365a.149.149,0,0,0,.154.154h2.877a.152.152,0,0,0,.146-.154v-.616a.152.152,0,0,0-.146-.154h-1.913v-4.6a.149.149,0,0,0-.154-.154h-.81a.149.149,0,0,0-.154.154Zm-2.966-4.692c.608,0,.94.478.94,2.01s-.332,2.01-.94,2.01c-.584,0-.94-.486-.94-2.01S153.045,112.091,153.629,112.091Zm0,4.944c1.386,0,2.075-1.046,2.075-2.934,0-1.9-.689-2.934-2.075-2.934-1.37,0-2.075,1.029-2.075,2.934C151.554,115.99,152.259,117.035,153.629,117.035Zm-3.906-.1a.151.151,0,0,0,.162-.13l1.313-5.381c.032-.105-.008-.162-.138-.162h-.867a.134.134,0,0,0-.138.121l-.948,4.449-.948-4.449c-.024-.073-.057-.121-.146-.121h-.859c-.13,0-.17.057-.146.162l1.313,5.381a.151.151,0,0,0,.162.13Zm-5.2-.908v-1.54h1.613a.149.149,0,0,0,.154-.154v-.6a.149.149,0,0,0-.154-.154h-1.613v-1.41h1.751a.149.149,0,0,0,.154-.154v-.6a.149.149,0,0,0-.154-.154h-2.715a.149.149,0,0,0-.154.154v5.365a.149.149,0,0,0,.154.154h2.78a.152.152,0,0,0,.146-.154v-.608a.157.157,0,0,0-.146-.146Zm-3.007.81a.158.158,0,0,0,.138.1h.827c.154,0,.2-.089.138-.219l-1.021-2.156a1.79,1.79,0,0,0-.908-3.3h-1.491a.149.149,0,0,0-.154.154v5.365a.149.149,0,0,0,.154.154h.794a.152.152,0,0,0,.146-.154V114.75h.454Zm-.2-3.833c0,.608-.219.867-.664.867h-.511V112.14h.511C141.091,112.14,141.31,112.4,141.31,113.007Zm-8.364,3.023v-1.54h1.613a.149.149,0,0,0,.154-.154v-.6a.149.149,0,0,0-.154-.154h-1.613v-1.41H134.7a.149.149,0,0,0,.154-.154v-.6a.149.149,0,0,0-.154-.154h-2.715a.149.149,0,0,0-.154.154v5.365a.149.149,0,0,0,.154.154h2.78a.152.152,0,0,0,.146-.154v-.608a.157.157,0,0,0-.146-.146Zm-5.973.754a.149.149,0,0,0,.154.154h.818a.152.152,0,0,0,.146-.154v-2.407h1.467v2.407a.149.149,0,0,0,.154.154h.81a.149.149,0,0,0,.154-.154v-5.365a.149.149,0,0,0-.154-.154h-.81a.149.149,0,0,0-.154.154v2.05h-1.467v-2.05a.152.152,0,0,0-.146-.154h-.818a.149.149,0,0,0-.154.154Zm-3.015,0a.159.159,0,0,0,.154.154h.81a.149.149,0,0,0,.154-.154v-4.611h1.037a.149.149,0,0,0,.154-.154v-.6a.149.149,0,0,0-.154-.154H122.92a.149.149,0,0,0-.154.154v.6a.149.149,0,0,0,.154.154h1.038Zm-6.557.041a.152.152,0,0,0,.162.113H118.7a.149.149,0,0,0,.154-.154v-5.365a.149.149,0,0,0-.154-.154h-.746a.159.159,0,0,0-.154.154v3.793l-1.24-3.833a.162.162,0,0,0-.17-.113h-1.135a.149.149,0,0,0-.154.154v5.365a.149.149,0,0,0,.154.154H116a.149.149,0,0,0,.154-.154v-3.793Zm-4.458-5.56a.149.149,0,0,0-.154.154v5.365a.149.149,0,0,0,.154.154h.81a.149.149,0,0,0,.154-.154v-5.365a.149.149,0,0,0-.154-.154Zm-3.161.827c.608,0,.94.478.94,2.01s-.332,2.01-.94,2.01c-.583,0-.94-.486-.94-2.01S109.2,112.091,109.783,112.091Zm0,4.944c1.386,0,2.075-1.046,2.075-2.934,0-1.9-.689-2.934-2.075-2.934-1.37,0-2.075,1.029-2.075,2.934C107.708,115.99,108.413,117.035,109.783,117.035Zm-4.085-2.01c0,.859-.178,1.086-.665,1.086a1.779,1.779,0,0,1-.616-.105c-.105-.04-.186-.008-.194.1l-.057.624a.138.138,0,0,0,.105.154,2.558,2.558,0,0,0,.916.154c1.2,0,1.629-.567,1.629-2.01v-3.606a.149.149,0,0,0-.154-.154h-.81a.149.149,0,0,0-.154.154Z"/>
<path class="cls-4" d="M175.066,93.931h.7a1.975,1.975,0,0,1,1.89,2.1v8.411a1.977,1.977,0,0,1-1.89,2.1h-.7a1.975,1.975,0,0,1-1.889-2.1V96.033a1.973,1.973,0,0,1,1.889-2.1m-18.09-2.3h1.314a4.017,4.017,0,0,1,3.925,3.925v3.569h-.04a4.043,4.043,0,0,1-3.766,3.386v0h-.718a2.022,2.022,0,0,0,0,4.034h4.148v2.3H157.4a4.017,4.017,0,0,1-3.925-3.925V103.4h.077a4.045,4.045,0,0,1,3.729-3.182v0H158a1.979,1.979,0,0,0,1.875-2.1V96.033a1.977,1.977,0,0,0-1.875-2.1h-4.042v-2.3Zm9.735,17.719a1.194,1.194,0,1,0-1.194-1.194A1.193,1.193,0,0,0,166.711,109.349Zm8.05-17.719h1.313A4.015,4.015,0,0,1,180,95.555v9.366a4.016,4.016,0,0,1-3.925,3.925h-1.313a4.015,4.015,0,0,1-3.925-3.925V95.555A4.015,4.015,0,0,1,174.761,91.63Z"/>
<path class="cls-5" d="M38.222,111.594c-.916,3.046-2.213,4.93-3.673,4.93s-2.757-1.884-3.673-4.93A42.023,42.023,0,0,1,29.43,100a42.021,42.021,0,0,1,1.447-11.6c.916-3.046,2.213-4.93,3.673-4.93s2.757,1.884,3.673,4.93A42.029,42.029,0,0,1,39.669,100a42.03,42.03,0,0,1-1.447,11.6M34.549,116.1c1.25,0,2.407-1.768,3.267-4.626A41.6,41.6,0,0,0,39.244,100a41.6,41.6,0,0,0-1.428-11.475c-.86-2.858-2.017-4.626-3.267-4.626s-2.407,1.768-3.267,4.626A41.6,41.6,0,0,0,29.854,100a41.6,41.6,0,0,0,1.428,11.474C32.142,114.332,33.3,116.1,34.549,116.1Z"/>
<path class="cls-5" d="M42.756,91.02c3.094-.729,5.374-.548,6.1.717s-.253,3.329-2.432,5.645a42.044,42.044,0,0,1-9.32,7.05,42.021,42.021,0,0,1-10.765,4.546c-3.094.729-5.374.548-6.1-.717s.253-3.329,2.432-5.644a42.038,42.038,0,0,1,9.32-7.05A42.02,42.02,0,0,1,42.756,91.02m5.738.927c-.625-1.082-2.735-1.2-5.642-.515a41.589,41.589,0,0,0-10.651,4.5,41.608,41.608,0,0,0-9.222,6.974c-2.046,2.175-3,4.061-2.374,5.144s2.735,1.2,5.641.515a41.585,41.585,0,0,0,10.651-4.5,41.6,41.6,0,0,0,9.222-6.974C48.165,94.917,49.118,93.03,48.494,91.948Z"/>
<path class="cls-5" d="M42.852,108.565c2.906.685,5.017.567,5.642-.515s-.328-2.969-2.374-5.144A41.6,41.6,0,0,0,36.9,95.932a41.586,41.586,0,0,0-10.651-4.5c-2.906-.685-5.017-.567-5.641.515s.328,2.969,2.374,5.144a41.6,41.6,0,0,0,9.222,6.974,41.588,41.588,0,0,0,10.651,4.5m6.008-.3c-.73,1.265-3.01,1.446-6.1.717a42.022,42.022,0,0,1-10.765-4.546,42.042,42.042,0,0,1-9.32-7.05c-2.179-2.316-3.162-4.381-2.432-5.645s3.01-1.446,6.1-.717a42.019,42.019,0,0,1,10.765,4.546,42.04,42.04,0,0,1,9.32,7.05C48.607,104.932,49.59,107,48.86,108.261Z"/>
<path class="cls-5" d="M37.338,108.963c-.7,2.333-1.687,3.776-2.789,3.776s-2.087-1.443-2.789-3.776A32.494,32.494,0,0,1,30.643,100a32.494,32.494,0,0,1,1.118-8.964c.7-2.333,1.687-3.776,2.789-3.776s2.087,1.443,2.789,3.776A32.494,32.494,0,0,1,38.456,100a32.494,32.494,0,0,1-1.118,8.964m-2.789,3.564c1,0,1.912-1.385,2.586-3.625a32.289,32.289,0,0,0,1.109-8.9,32.289,32.289,0,0,0-1.109-8.9c-.674-2.24-1.589-3.625-2.586-3.625s-1.912,1.385-2.586,3.625a32.289,32.289,0,0,0-1.109,8.9,32.289,32.289,0,0,0,1.109,8.9C32.637,111.142,33.552,112.527,34.549,112.527Z"/>
<path class="cls-5" d="M40.918,93.1c2.371-.559,4.114-.427,4.664.527h0c.551.954-.207,2.529-1.876,4.3a32.483,32.483,0,0,1-7.2,5.45A32.492,32.492,0,0,1,28.18,106.9c-2.371.559-4.114.427-4.664-.527h0c-.551-.954.207-2.529,1.876-4.3a32.483,32.483,0,0,1,7.2-5.45A32.5,32.5,0,0,1,40.918,93.1m4.481.633c-.5-.863-2.156-.964-4.433-.427A32.268,32.268,0,0,0,32.7,96.8a32.281,32.281,0,0,0-7.156,5.412c-1.6,1.7-2.345,3.189-1.847,4.052h0c.5.863,2.156.963,4.433.427A32.268,32.268,0,0,0,36.4,103.2a32.282,32.282,0,0,0,7.156-5.412c1.6-1.7,2.345-3.189,1.847-4.052Z"/>
<path class="cls-5" d="M40.966,106.69c2.277.536,3.935.436,4.433-.427h0c.5-.863-.244-2.349-1.847-4.052A32.284,32.284,0,0,0,36.4,96.8a32.269,32.269,0,0,0-8.264-3.491c-2.277-.537-3.935-.436-4.433.427h0c-.5.863.244,2.349,1.847,4.052A32.28,32.28,0,0,0,32.7,103.2a32.267,32.267,0,0,0,8.264,3.491m4.616-.321c-.551.954-2.293,1.086-4.664.527a32.495,32.495,0,0,1-8.322-3.514,32.484,32.484,0,0,1-7.2-5.45c-1.669-1.774-2.427-3.349-1.876-4.3h0c.551-.954,2.293-1.085,4.664-.527A32.5,32.5,0,0,1,36.5,96.616a32.483,32.483,0,0,1,7.2,5.45c1.669,1.774,2.427,3.349,1.876,4.3Z"/>
<path class="cls-5" d="m36.873 107.42c-0.582 1.937-1.4 3.135-2.323 3.135s-1.741-1.2-2.324-3.135a30.2 30.2 0 0 1 0 -14.835c0.582-1.937 1.4-3.135 2.324-3.135s1.741 1.2 2.323 3.135a30.2 30.2 0 0 1 0 14.835m-2.323 2.923c0.815 0 1.566-1.14 2.12-2.984a29.995 29.995 0 0 0 0 -14.714c-0.554-1.843-1.305-2.984-2.12-2.984s-1.566 1.141-2.121 2.984a30 30 0 0 0 0 14.714c0.554 1.845 1.305 2.985 2.12 2.985z"/>
<path class="cls-5" d="m39.812 94.278c1.968-0.464 3.417-0.352 3.876 0.444s-0.167 2.107-1.553 3.579a26.862 26.862 0 0 1 -5.954 4.506 26.89 26.89 0 0 1 -6.885 2.907c-1.968 0.464-3.416 0.352-3.876-0.444s0.167-2.106 1.553-3.579a26.864 26.864 0 0 1 5.954 -4.506 26.883 26.883 0 0 1 6.885 -2.907m3.693 0.55c-0.408-0.706-1.771-0.786-3.645-0.344a26.676 26.676 0 0 0 -6.823 2.881h-6e-3a26.664 26.664 0 0 0 -5.912 4.471c-1.319 1.4-1.931 2.622-1.524 3.328s1.771 0.786 3.645 0.345a26.669 26.669 0 0 0 6.824 -2.882h6e-3a26.662 26.662 0 0 0 5.912 -4.471c1.318-1.401 1.93-2.621 1.523-3.327z"/>
<path class="cls-5" d="m39.86 105.51c1.874 0.441 3.237 0.362 3.645-0.345s-0.2-1.926-1.524-3.328a26.665 26.665 0 0 0 -5.912 -4.471h-6e-3a26.676 26.676 0 0 0 -6.824 -2.881c-1.874-0.441-3.237-0.362-3.645 0.344s0.2 1.926 1.524 3.328a26.661 26.661 0 0 0 5.912 4.471h6e-3a26.669 26.669 0 0 0 6.823 2.882m3.828-0.238c-0.46 0.8-1.908 0.908-3.876 0.444a26.89 26.89 0 0 1 -6.885 -2.907 26.862 26.862 0 0 1 -5.963 -4.513c-1.386-1.473-2.013-2.782-1.553-3.579s1.908-0.908 3.876-0.444a26.883 26.883 0 0 1 6.885 2.907 26.864 26.864 0 0 1 5.954 4.506c1.396 1.479 2.023 2.789 1.563 3.585z"/>
<path class="cls-5" d="m36.633 106.62c-0.521 1.732-1.257 2.8-2.083 2.8s-1.562-1.072-2.084-2.8a26.949 26.949 0 0 1 0 -13.236c0.521-1.732 1.257-2.8 2.084-2.8s1.562 1.072 2.083 2.8a26.949 26.949 0 0 1 0 13.236m-2.083 2.592c0.721 0 1.387-1.014 1.88-2.653a26.75 26.75 0 0 0 0 -13.115c-0.493-1.639-1.159-2.653-1.88-2.653s-1.388 1.014-1.881 2.653a26.746 26.746 0 0 0 0 13.115c0.493 1.644 1.159 2.654 1.88 2.654z"/>
<path class="cls-5" d="M39.24,94.886c1.76-.414,3.056-.314,3.469.4s-.147,1.889-1.386,3.206a23.981,23.981,0,0,1-5.317,4.023h0l0,0h0a24,24,0,0,1-6.142,2.593c-1.76.414-3.056.314-3.469-.4s.147-1.889,1.386-3.206a23.989,23.989,0,0,1,5.317-4.023h0l0,0h0a24,24,0,0,1,6.142-2.593m3.286.508c-.361-.625-1.572-.694-3.238-.3A23.767,23.767,0,0,0,33.2,97.662h0a23.777,23.777,0,0,0-5.269,3.985c-1.173,1.246-1.718,2.33-1.357,2.954s1.571.694,3.238.3a23.773,23.773,0,0,0,6.086-2.571h0a23.782,23.782,0,0,0,5.269-3.985C42.342,97.1,42.887,96.018,42.526,95.394Z"/>
<path class="cls-5" d="M39.289,104.906c1.666.392,2.877.322,3.238-.3s-.184-1.708-1.357-2.954A23.775,23.775,0,0,0,35.9,97.665h0a23.767,23.767,0,0,0-6.086-2.571c-1.666-.392-2.877-.323-3.238.3s.184,1.708,1.357,2.954a23.784,23.784,0,0,0,5.269,3.985h0a23.773,23.773,0,0,0,6.086,2.571m3.421-.2c-.413.715-1.709.816-3.469.4a24,24,0,0,1-6.142-2.593h0l0,0h0a23.986,23.986,0,0,1-5.317-4.023c-1.239-1.317-1.8-2.49-1.386-3.206s1.709-.816,3.469-.4A24,24,0,0,1,36,97.479h0l0,0h0a23.985,23.985,0,0,1,5.317,4.023C42.562,102.822,43.122,104,42.709,104.711Z"/>
<path class="cls-5" d="M36.419,105.907c-.466,1.551-1.126,2.51-1.869,2.51s-1.4-.959-1.87-2.51a24.053,24.053,0,0,1,0-11.815c.466-1.551,1.127-2.51,1.87-2.51s1.4.959,1.869,2.51a24.05,24.05,0,0,1,0,11.815m-1.869,2.3c.638,0,1.228-.9,1.666-2.358a23.853,23.853,0,0,0,0-11.694c-.438-1.457-1.029-2.358-1.666-2.358s-1.228.9-1.667,2.358a23.853,23.853,0,0,0,0,11.694C33.321,107.3,33.911,108.2,34.549,108.2Z"/>
<path class="cls-5" d="m38.732 95.426c1.575-0.371 2.736-0.279 3.107 0.364s-0.13 1.695-1.239 2.874a21.429 21.429 0 0 1 -4.748 3.592 21.4 21.4 0 0 1 -5.482 2.314c-1.575 0.371-2.736 0.279-3.107-0.364s0.13-1.695 1.239-2.874a21.432 21.432 0 0 1 4.748 -3.591 21.412 21.412 0 0 1 5.482 -2.314m2.924 0.47c-0.319-0.552-1.395-0.613-2.876-0.264a21.19 21.19 0 0 0 -5.426 2.292 21.2 21.2 0 0 0 -4.7 3.553c-1.043 1.108-1.529 2.07-1.21 2.623 0.319 0.552 1.395 0.613 2.876 0.264a21.2 21.2 0 0 0 5.426 -2.292 21.186 21.186 0 0 0 4.7 -3.553c1.043-1.108 1.529-2.07 1.21-2.623z"/>
<path class="cls-5" d="M38.78,104.366c1.481.349,2.557.288,2.876-.264h0c.318-.553-.167-1.514-1.21-2.623a21.2,21.2,0,0,0-4.7-3.553h0a21.193,21.193,0,0,0-5.426-2.292c-1.481-.349-2.557-.288-2.876.264h0c-.318.553.167,1.514,1.21,2.623a21.185,21.185,0,0,0,4.7,3.553h0a21.192,21.192,0,0,0,5.426,2.292m3.059-.158c-.371.643-1.532.735-3.107.364a21.41,21.41,0,0,1-5.482-2.314h0A21.43,21.43,0,0,1,28.5,98.664c-1.109-1.179-1.61-2.23-1.239-2.874h0c.371-.643,1.532-.735,3.107-.364a21.406,21.406,0,0,1,5.482,2.314h0a21.431,21.431,0,0,1,4.748,3.591c1.109,1.179,1.61,2.23,1.239,2.874Z"/>
</svg>
