<svg xmlns="http://www.w3.org/2000/svg" width="94" height="89"><g fill="none" transform="translate(0 1)"><path fill="#FFF" d="M32 51.2C35 53 38.4 54 42 54c3.6 0 7-1 10-2.8V54l-.6 1.6c-2 2-5.4 3.2-9.4 3.2s-7.4-1.4-9.4-3.2l-.6-1.4v-3zM42 4c-8.8 0-16 7.2-16 16v14c0 8.8 7.2 16 16 16s16-7.2 16-16V20c0-8.8-7.2-16-16-16z"/><path fill="#DCDAE8" d="M42 2c5.6 0 10 6 10 16v13.4c0 3-.4 6-1.4 8.6l-3 8.4c-.8 2.2-2.2 3.6-3.6 3.6h1.6c2.8 0 5.2-1.4 6.8-3.8l5.2-8.4c1.6-2.6 2.4-5.6 2.4-8.6V18C60 8 52 2 42 2z"/><path fill="#7FCAF1" d="M60 20H46.2c-4 0-8-1.6-10.8-4.4 0 2.4-2 4.4-4.4 4.4h-7c0-10 8-18 18-18s18 8 18 18z"/><path fill="#FFF" d="M44.4 4.2C43.6 4 42.8 4 42 4c-8.2 0-14.8 6-16 14h4.8c1-7.2 6.6-12.8 13.6-13.8z"/><path fill="#7FCAF1" d="M46 60h-8l-6-4v3.8C33.8 61.2 42 80 42 80c2.2 0 8-11.2 8-16l2-8-6 4z"/><path fill="#220A6A" d="M80 84c-1 0-2-1-2-2v-9.8c0-4-2.6-7.8-6.4-9.4l-18.2-7c-1-.4-1.6-1.6-1.2-2.6.4-1 1.6-1.6 2.6-1.2l18.4 7c5.4 2 9 7.4 9 13v10c-.2 1-1.2 2-2.2 2z"/><path fill="#FFF" d="M42 82L16 58l12-8 14 32"/><path fill="#220A6A" d="M18.6 56.2l-7.8 3c-5.4 2-9 7.4-9 13V82c0 1 1 2 2 2s2-1 2-2v-9.8c0-4 2.6-7.8 6.4-9.4l6.2-2.4.2-4.2z"/><path fill="#FFF" d="M42 82l26-24-12-8-14 32"/><g fill="#7FCAF1" transform="translate(78 14)"><circle cx="1" cy="11" r="1"/><path d="M2 8.2c-.6-.2-.8-.8-.6-1.2l2-5.6c.2-.6.8-.8 1.2-.6.6.2.8.8.6 1.2l-2 5.6c-.2.4-.6.8-1.2.6z"/></g><g fill="#7FCAF1" transform="translate(4 46)"><circle cx="10" cy="7" r="1"/><path d="M7.2 5.6c-.2.6-.8.8-1.2.4L.6 3.4C0 3.2-.2 2.6.2 2c.2-.4.8-.8 1.4-.4L7 4.2c.4.4.6 1 .2 1.4z"/></g><g fill="#7FCAF1" transform="translate(14 10)"><circle cx="1" cy="12.8" r="1"/><path d="M1.6 9.8C1 9.6.8 9.2.8 8.6l1.4-5.8c.2-.6.8-1 1.2-.8.6.2 1 .6.8 1.2L2.8 9c0 .6-.6 1-1.2.8z"/></g><g fill="#7FCAF1" transform="translate(8 36)"><circle cx="7.6" cy="10.2" r="1"/><path d="M6 7.6c-.4.2-1 .2-1.4-.2L4.2 7c-.6-1-.6-2-.2-3 .2-.4.2-.8 0-1-.4-.4-1-.6-1.4-.2-.4.4-.4.8 0 1.2.4.4.2 1-.4 1.4-.6.4-1 .2-1.4-.2C-.2 3.8.4 2 1.6 1 2.8 0 4.8.6 5.8 2c.6 1 .6 2.2 0 3-.2.2-.2.6.2.8l.4.4c.2.6.2 1.2-.4 1.4z"/></g><g fill="#7FCAF1" transform="translate(64 16)"><circle cx="1.6" cy="12.2" r="1"/><path d="M2.8 9.4c-.4-.2-.6-.8-.4-1.4l.2-.4C3 6.6 4 6 5 6c.4 0 .6-.2.8-.6.2-.4 0-1.2-.4-1.4-.4-.2-1 0-1.4.4-.4.4-.8.8-1.4.4-.4-.2-.6-.8-.4-1.4C3 2 4.8 1.2 6.2 2c1.4.8 2 2.6 1.4 4C7.2 7 6 7.6 5 7.6c-.2 0-.6.2-.6.6l-.2.4c-.2 1-.8 1.2-1.4.8z"/></g><g fill="#7FCAF1" transform="translate(66 2)"><circle cx="6.4" cy="11" r="1"/><path d="M5.2 8.4c-.4.2-1 0-1.4-.4l-.2-.4c-.4-1-.4-2.2.2-3C4 4 4 3.6 4 3.4c-.2-.4-.8-.6-1.4-.4-.6.2-.6.8-.4 1.4.2.6 0 1.2-.4 1.4-.4.2-1 0-1.4-.4-.8-1.4 0-3.2 1.4-4 1.4-.8 3.2 0 4 1.4.4 1 .4 2.2-.2 3.2-.2.2-.2.6 0 .8l.2.4c0 .2-.2.8-.6 1.2z"/></g><g fill="#7FCAF1" transform="translate(2 18)"><circle cx="7" cy="11" r="1"/><path d="M5.6 8.2c-.4.2-1 0-1.4-.4L4 7.4c-.4-1-.4-2.2.2-3 .2-.2.2-.8 0-1C4 3 3.4 2.6 2.8 3c-.6.4-.6.8-.4 1.4.2.6 0 1.2-.4 1.4-.4.2-1 0-1.4-.4-.8-1.4 0-3.2 1.4-4 1.4-.8 3.2-.2 4 1.4.4 1 .4 2.2-.2 3.2-.2.2-.2.6 0 .8l.2.4c.4.2.2.8-.4 1z"/></g><path fill="#FFF" d="M43.2 33.2c1.8 2.8 5 4.4 8.8 3.6 3-.6 5.2-3 6-6 1.2-5.2-2.8-9.8-7.8-9.8H34.6c-4.4 0-8.2 3.2-8.4 7.6-.2 4.6 3.4 8.4 8 8.4 3 0 5.4-1.6 6.8-4 .4-.8 1.6-.8 2.2.2z"/><circle cx="36" cy="30" r="2" fill="#220A6A"/><circle cx="48" cy="30" r="2" fill="#220A6A"/><path fill="#FFF" d="M78 86c-4.4 0-8-3.6-8-8V38c0-2.2-1.8-4-4-4h24c-2.2 0-4 1.8-4 4v40c0 4.4-3.6 8-8 8z"/><path fill="#EAE7F2" d="M82 36H71.6c.2.6.4 1.2.4 2h5.6c2.2 0 4 1.8 4 4v36c0 3-2 5.4-4.8 5.8 1 .2 2.2.2 3.4-.4 2.4-1 3.8-3.4 3.8-6V38c0-.8.2-1.4.4-2H82z"/><path fill="#220A6A" d="M78 88c-5.6 0-10-4.4-10-10V38c0-1-1-2-2-2s-2-1-2-2 1-2 2-2h24c1 0 2 1 2 2s-1 2-2 2-2 1-2 2v40c0 5.6-4.4 10-10 10zm-6.4-52c.2.6.4 1.2.4 2v40c0 3.4 2.6 6 6 6s6-2.6 6-6V38c0-.8.2-1.4.4-2H71.6z"/><path fill="#7FCAF1" d="M79 84c2.8-.4 5-3 5-6V54H74v24c0 3 2.2 5.4 5 6z"/><g transform="translate(78 64)"><circle cx="8" cy="8" r="6" fill="#FFF"/><path fill="#220A6A" d="M8 16c-4.4 0-8-3.6-8-8s3.6-8 8-8 8 3.6 8 8-3.6 8-8 8zM8 4C5.8 4 4 5.8 4 8s1.8 4 4 4 4-1.8 4-4-1.8-4-4-4z"/></g><path fill="#220A6A" d="M69 56.4l-12-8c-.2-.2-.6-.2-.8-.2 3.6-3.6 5.8-8.6 5.8-14v-14c0-11-9-20-20-20S22 9 22 20v14c0 5.4 2.2 10.4 5.8 14-.4 0-.6.2-.8.2l-12 8c-.6.4-1 1-1 1.6 0 .6.2 1.2.6 1.6l26 24s.2 0 .4.2h.2c.2 0 .4.2.6.2.2 0 .4 0 .6-.2h.2s.2 0 .4-.2l26-24c.4-.4.6-1 .6-1.6 0-.6 0-1.2-.6-1.4zM34.4 22H50c2.2 0 4.2 1 5.4 2.6 1.4 1.6 1.8 3.8 1.4 6-.6 2.4-2.6 4.6-5.2 5.2-3 .8-6-.6-7.6-3.2-.4-.8-1.2-1.2-2-1.2s-1.6.4-2 1c-1.2 2.2-3.6 3.4-6 3.4-2 0-3.8-.8-5-2.2-1.4-1.4-2-3.2-2-5.2.2-3.4 3.6-6.4 7.4-6.4zM42 4c8.2 0 14.8 6.2 15.8 14H46c-3.6 0-7-1.4-9.4-4-.4-.4-.8-.6-1.4-.6-.2 0-.6 0-.8.2-.8.4-1.2 1-1.2 1.8 0 1.4-1.2 2.4-2.4 2.4h-4.6C27.2 10.2 33.8 4 42 4zM26 34v-1c.4.8.8 1.6 1.4 2.2 1.8 1.8 4 2.8 6.6 2.8 3.2 0 6.2-1.6 7.8-4.4l.2-.2s.2 0 .4.2c2 3.4 6 5 9.8 4 2.6-.6 4.8-2.4 6-4.6v1c0 8.8-7.2 16-16 16S26 42.8 26 34zm26 17.4v2.8l-.6 1.6c-2 2-5.4 3.4-9.4 3.4s-7.4-1.4-9.4-3.4l-.6-1.6v-2.8C35 53 38.4 54 42 54c3.6 0 7-1 10-2.6zm-32.8 6.8l8-5.2 9.2 21-17.2-15.8zM42 77l-7.8-17.8C36.4 60.4 39 61 42 61s5.6-.6 7.8-1.8L42 77zm5.6-3l9.2-21 8 5.2L47.6 74z"/><path fill="#220A6A" d="M42 44c-1.6 0-3.4-.6-4.6-1.6-.4-.4-.4-1-.2-1.4.4-.4 1-.4 1.4-.2 1.8 1.4 5 1.4 6.8 0 .4-.4 1-.2 1.4.2.4.4.2 1-.2 1.4-1.2 1-3 1.6-4.6 1.6z"/></g></svg>