<?xml version="1.0" encoding="UTF-8"?>
<svg id="j" data-name="Layer 1" viewBox="0 0 200 200" xmlns="http://www.w3.org/2000/svg">
<defs>
<style>.cls-1{fill:#fff;}</style>
</defs>
<title>science</title>
<rect width="200" height="200"/>
<g id="i">
<g id="b">
<path id="c" class="cls-1" d="M38.317,108.309l-1.474,2.311H35.276L35,99.065h1.106c1.935,5.269,4.791,10.26,10.5,10.26,4.054,0,6.081-2.5,6.081-6.193a6.7,6.7,0,0,0-4.515-6.563c-2.58-1.109-4.33-1.756-6.91-2.958a8.837,8.837,0,0,1-5.436-8.689c0-5.269,4.054-9.151,9.49-9.151a12.009,12.009,0,0,1,6.91,2.4l1.382-2.218h1.658l.276,11.277H54.44C52.6,81.6,50.386,77.343,44.4,77.343a4.917,4.917,0,0,0-4.607,5.084c0,3.05,1.29,4.714,4.054,6.378,2.211,1.294,4.515,1.941,6.541,2.958,3.685,1.849,6.449,3.882,6.449,8.966,0,6.008-4.515,10.26-10.6,10.26-3.87-.277-6.541-1.479-7.923-2.681"/>
<path id="h" class="cls-1" d="M57.941,98.788c0-6.1,3.87-11.739,10.043-11.739,4.607,0,6.91,2.681,6.91,5.731,0,1.664-.921,2.773-2.488,2.773a2.533,2.533,0,0,1-2.672-2.5c0-2.034.553-2.126.553-3.05-.276-1.479-.921-1.756-2.4-1.756-2.672,0-5.159,2.588-5.159,10.075,0,6.008,2.119,10.168,5.989,10.168,3.04,0,4.883-1.571,6.265-4.437L76,104.8c-1.658,3.235-4.791,5.916-8.292,5.916-6.541,0-9.766-5.084-9.766-11.924" data-name="Shape"/>
<path id="d" class="cls-1" d="M78.671,78.36a3.076,3.076,0,0,1,2.948-3.143,2.884,2.884,0,0,1,3.04,2.958,3.115,3.115,0,0,1-3.04,3.235,2.994,2.994,0,0,1-2.948-3.05Zm-2.119,30.688a13.178,13.178,0,0,0,2.027-.37,2.153,2.153,0,0,0,1.2-2.218V92.225a3.411,3.411,0,0,0-1.2-2.5,6.58,6.58,0,0,0-2.672-.924v-.924l8.016-.555.276.37v18.487a2.649,2.649,0,0,0,1.2,2.311,4.473,4.473,0,0,0,2.027.555v1.017H76.644v-1.017Z" data-name="Shape"/>
<path id="a" class="cls-1" d="M100.415,95.83c0-3.6-.645-7.58-3.777-7.58-2.672,0-4.607,3.05-4.7,7.764l8.476-.185ZM87.147,98.7c0-5.916,3.5-11.647,9.49-11.647,6.173,0,8.476,4.437,8.476,9.521v.462H91.938v.555c0,6.378,1.843,10.907,6.449,10.907,3.317,0,4.515-1.387,6.173-4.437l.921.555c-1.566,3.512-4.607,6.008-8.292,6.008-6.818.092-10.043-5.361-10.043-11.924Z" data-name="Shape"/>
<path id="f" class="cls-1" d="M105.39,109.048a13.178,13.178,0,0,0,2.027-.37c.829-.277,1.2-1.109,1.2-2.218V92.225a3.62,3.62,0,0,0-1.2-2.588,5.267,5.267,0,0,0-2.211-.832v-.924l7.463-.555.369.37v3.328h.092c1.751-1.849,3.409-4.067,7.094-4.067,4.054,0,5.989,3.143,5.989,7.857v11.462a2.238,2.238,0,0,0,1.106,2.218,6.515,6.515,0,0,0,2.027.555v1.017H118.473v-1.017a11.394,11.394,0,0,0,2.027-.37c.829-.277,1.2-1.109,1.2-2.218V94.721c0-3.42-1.658-5.269-3.5-5.269a5.62,5.62,0,0,0-5.252,3.235v13.5a2.238,2.238,0,0,0,1.106,2.218,3.936,3.936,0,0,0,2.027.555v1.017H105.3v-.924Z" data-name="Shape"/>
<path id="g" class="cls-1" d="M128.515,98.788c0-6.1,3.87-11.739,10.043-11.739,4.607,0,6.91,2.681,6.91,5.731,0,1.664-.921,2.773-2.488,2.773a2.533,2.533,0,0,1-2.672-2.5c0-2.034.553-2.126.553-3.05-.276-1.479-.921-1.756-2.4-1.756-2.672,0-5.159,2.588-5.159,10.075,0,6.008,2.119,10.168,5.989,10.168,3.04,0,4.883-1.571,6.265-4.437l1.013.739c-1.658,3.235-4.791,5.916-8.292,5.916-6.541,0-9.766-5.084-9.766-11.924" data-name="Shape"/>
<path id="e" class="cls-1" d="M159.933,95.83c0-3.6-.645-7.58-3.777-7.58-2.672,0-4.607,3.05-4.7,7.764l8.476-.185ZM146.665,98.7c0-5.916,3.5-11.647,9.49-11.647,6.173,0,8.476,4.437,8.476,9.521v.462H151.456v.555c0,6.378,1.843,10.907,6.449,10.907,3.317,0,4.515-1.387,6.173-4.437l.921.555c-1.566,3.512-4.607,6.008-8.292,6.008-6.91.092-10.043-5.361-10.043-11.924Z" data-name="Shape"/>
</g>
</g>
</svg>
