<svg version="1.1" id="Layer_1" xmlns="http://www.w3.org/2000/svg" x="0" y="0" viewBox="0 0 40 50" xml:space="preserve"><style>.st6{fill:none;stroke:#282366;stroke-width:2;stroke-linecap:round;stroke-linejoin:round;stroke-miterlimit:10}</style><circle cx="20" cy="22" r="8" fill="#80caf0"/><path class="st6" d="M37.5 39.6l-15.9 9c-.5.3-1.1.4-1.6.4-.6 0-1.2-.2-1.7-.5L2.4 39c-.9-.6-1.4-1.6-1.4-2.6V6c0-1.4 1-2.6 2.3-3l.9-.2a70.26 70.26 0 0131.6 0l.9.2C38 3.4 39 4.6 39 6v31c0 1-.6 2-1.5 2.6z"/><path d="M19.9 7c4 0 8 .4 11.9 1.1.7.1 1.2.7 1.2 1.5v24.5c0 .7-.4 1.4-1 1.7l-11 6.4c-.3.2-.7.3-1 .3-.4 0-.7-.1-1.1-.3l-11-6.9c-.6-.4-.9-1-.9-1.7V9.5c0-.7.5-1.3 1.2-1.4h.2C12.2 7.4 16 7 19.9 7m0-1c-3.9 0-7.8.4-11.7 1.1H8c-1.1.2-2 1.2-2 2.4v24.1c0 1 .5 2 1.4 2.5l11 6.9c.5.3 1 .5 1.6.5.5 0 1-.1 1.5-.4l11-6.4c.9-.5 1.5-1.5 1.5-2.6V9.6c0-1.2-.8-2.2-2-2.4C28 6.4 24 6 19.9 6z" fill="#282366"/><path d="M31.8 8.1C27.9 7.4 23.9 7 19.9 7c-3.9 0-7.7.4-11.5 1h-.2c-.7.2-1.2.8-1.2 1.5v24.1c0 .7.4 1.3.9 1.7l8.2 5.1-6.4-4.8c-.5-.4-.8-1-.8-1.7V11.2c0-1 .7-1.8 1.7-2 3-.4 6.1-.7 9.2-.7 4 0 8 .4 11.9 1.1.7.1 1.2.7 1.2 1.4V9.6c.1-.7-.4-1.4-1.1-1.5z" fill="#dcdbe9"/><path class="st6" d="M17 21.6l3 3 8-8"/><path class="st6" d="M28 22c0 4.4-3.6 8-8 8s-8-3.6-8-8 3.6-8 8-8c2.5 0 4.8 1.2 6.2 3"/></svg>