<svg xmlns="http://www.w3.org/2000/svg" xmlns:xlink="http://www.w3.org/1999/xlink" width="100" height="52"><defs><path id="a" d="M0 0h100v51.999H0z"/></defs><g fill="none" fill-rule="evenodd"><path fill="#DCDBE9" d="M30 10c7.732 0 14 6.268 14 14s-6.268 14-14 14-14-6.268-14-14 6.268-14 14-14"/><path fill="#80CAF0" d="M94 37.999h-4v-24h4c2.2 0 4 1.8 4 4v16c0 2.202-1.8 4-4 4m-84 0H6c-2.2 0-4-1.798-4-4v-16c0-2.2 1.8-4 4-4h4v24z"/><path fill="#282366" d="M30 14c5.522 0 10 4.478 10 10s-4.478 10-10 10-10-4.478-10-10 4.478-10 10-10"/><path fill="#DCDBE9" d="M70 10c7.732 0 14 6.268 14 14s-6.268 14-14 14-14-6.268-14-14 6.268-14 14-14"/><path fill="#282366" d="M70 14c5.524 0 10 4.478 10 10s-4.476 10-10 10-10-4.478-10-10 4.476-10 10-10"/><path fill="#FFF" d="M65 25c-.56 0-1-.44-1-1 0-3.3 2.7-6 6-6 .56 0 1 .44 1 1s-.44 1-1 1c-2.2 0-4 1.8-4 4 0 .56-.44 1-1 1m-40 0c-.56 0-1-.44-1-1 0-3.3 2.7-6 6-6 .56 0 1 .44 1 1s-.44 1-1 1c-2.2 0-4 1.8-4 4 0 .56-.44 1-1 1"/><mask id="b" fill="#fff"><use xlink:href="#a"/></mask><path fill="#282366" d="M96 33.999c0 1.102-.9 2-2 2h-2v-20h2c1.1 0 2 .902 2 2v16zm-8 12c0 1.102-.9 2-2 2H63.96c-1.6 0-3.04-.958-3.68-2.42l-2.86-6.68c-1.28-2.978-4.18-4.9-7.42-4.9s-6.14 1.922-7.42 4.88l-2.86 6.68a4.012 4.012 0 01-3.68 2.44H14c-1.1 0-2-.898-2-2v-40c0-1.098.9-2 2-2h72c1.1 0 2 .902 2 2v40zm-82-10c-1.1 0-2-.898-2-2v-16c0-1.098.9-2 2-2h2v20H6zm88-24h-2v-6c0-3.298-2.7-6-6-6H14c-3.3 0-6 2.702-6 6v6H6c-3.3 0-6 2.702-6 6v16c0 3.3 2.7 6 6 6h2v6c0 3.3 2.7 6 6 6h22.04a8 8 0 007.36-4.84l2.86-6.68c.64-1.52 2.12-2.48 3.74-2.48s3.1.96 3.74 2.46l2.86 6.68a7.983 7.983 0 007.36 4.84H86c3.3 0 6-2.698 6-6v-6h2c3.3 0 6-2.698 6-6v-16c0-3.278-2.7-5.98-6-5.98z" mask="url(#b)"/></g></svg>