<?xml version="1.0" encoding="UTF-8"?>
<svg id="a" data-name="Layer 1" viewBox="0 0 200 200" xmlns="http://www.w3.org/2000/svg">
<defs>
<style>.cls-1{fill:#f0f0f0;}.cls-2{fill:#191913;}.cls-3,.cls-4{fill:#8ec640;}.cls-4{fill-rule:evenodd;}</style>
</defs>
<title>techco</title>
<rect class="cls-1" width="200" height="200"/>
<polygon class="cls-2" points="50 88.761 50 84.243 64.839 84.243 64.839 88.761 59.809 88.761 59.809 115.51 55.03 115.51 55.03 88.761"/>
<polygon class="cls-2" points="66.931 115.51 66.931 84.243 79.461 84.243 79.461 88.761 71.759 88.761 71.759 96.955 77.298 96.955 77.298 101.47 71.759 101.47 71.759 110.82 79.461 110.82 79.461 115.51"/>
<path class="cls-2" d="M81.894,107.49V91.47a8.007,8.007,0,0,1,1.959-5.8,7.353,7.353,0,0,1,5.566-2.1,6.825,6.825,0,0,1,5.308,2.148A8.392,8.392,0,0,1,96.683,91.6v3.7H92.116V91.167a3.924,3.924,0,0,0-.726-2.436,2.751,2.751,0,0,0-3.9,0,3.924,3.924,0,0,0-.726,2.436v17.445a3.989,3.989,0,0,0,.726,2.451,2.733,2.733,0,0,0,3.9,0,3.988,3.988,0,0,0,.726-2.451v-4.063h4.567v3.074a9.345,9.345,0,0,1-1.934,6.327,7.973,7.973,0,0,1-11.037.022c-1.248-1.469-1.819-3.632-1.819-6.482"/>
<path class="cls-2" d="M99.492,84.243h4.981V97H109.5V84.243h5.025v26.416a3.877,3.877,0,0,0-5.025,0v-8.4h-5.025v13.259H99.492Z"/>
<path class="cls-3" d="M135.161,91.463a8.034,8.034,0,0,1,2.008-5.788,7.363,7.363,0,0,1,5.566-2.1,6.834,6.834,0,0,1,5.308,2.148A8.377,8.377,0,0,1,150,91.6v16.027a9.331,9.331,0,0,1-1.934,6.327,7.936,7.936,0,0,1-11.015.015q-1.894-2.215-1.89-6.474Zm9.878,17.157V91.16a3.914,3.914,0,0,0-.627-2.429,2.52,2.52,0,0,0-3.706,0,3.913,3.913,0,0,0-.627,2.429v17.459a3.99,3.99,0,0,0,.627,2.444,2.5,2.5,0,0,0,3.706,0A3.991,3.991,0,0,0,145.039,108.619Z"/>
<path class="cls-4" d="M112.01,116.422a2.754,2.754,0,1,0-2.753-2.754,2.754,2.754,0,0,0,2.753,2.754"/>
<path class="cls-3" d="M117.794,107.49V91.47a8.007,8.007,0,0,1,1.959-5.8,7.353,7.353,0,0,1,5.566-2.1,6.825,6.825,0,0,1,5.308,2.148,8.392,8.392,0,0,1,1.956,5.869v3.7h-4.567V91.167a3.924,3.924,0,0,0-.726-2.436,2.751,2.751,0,0,0-3.9,0,3.924,3.924,0,0,0-.726,2.436v17.445a3.989,3.989,0,0,0,.726,2.451,2.733,2.733,0,0,0,3.9,0,3.988,3.988,0,0,0,.726-2.451v-4.063h4.567v3.074a9.345,9.345,0,0,1-1.934,6.327,7.973,7.973,0,0,1-11.037.022c-1.248-1.469-1.819-3.632-1.819-6.482"/>
</svg>
