<?xml version="1.0" encoding="UTF-8"?>
<svg id="a" data-name="Layer 1" viewBox="0 0 200 200" xmlns="http://www.w3.org/2000/svg">
<defs>
<style>.cls-1{fill:#f0f0f0;}.cls-2{fill:#6f2a80;}.cls-3{fill:#fbb34a;}.cls-4{fill:#e06ea9;}.cls-5{fill:#9b5fa6;}.cls-6{fill:#70be4a;}.cls-7{fill:#db6b2c;}.cls-8{fill:#d37928;}.cls-9{fill:#6c1c45;}.cls-10{fill:#5f2567;}.cls-11{fill:#4b7838;}.cls-12{fill:#864b33;}.cls-13{fill:#f89c21;}.cls-14{fill:#f37e45;}.cls-15{fill:#be5427;}.cls-16{fill:#dc5929;}.cls-17{fill:#46a94b;}.cls-18{fill:#901a4b;}.cls-19{fill:#f49824;}.cls-20{fill:#5f2967;}.cls-21{fill:#43af49;}</style>
</defs>
<title>techage</title>
<rect class="cls-1" width="200" height="200"/>
<rect class="cls-2" x="97.1" y="97.1" width="5.8" height="5.8"/>
<rect class="cls-3" x="91.3" y="91.3" width="5.8" height="5.8"/>
<rect class="cls-4" x="91.3" y="85.5" width="5.8" height="5.8"/>
<rect class="cls-5" x="91.3" y="97.1" width="5.8" height="5.8"/>
<rect class="cls-6" x="91.3" y="102.9" width="5.8" height="5.8"/>
<rect class="cls-7" x="91.3" y="108.7" width="5.8" height="5.8"/>
<rect class="cls-8" x="102.9" y="91.3" width="5.8" height="5.8"/>
<rect class="cls-9" x="102.9" y="85.5" width="5.8" height="5.8"/>
<rect class="cls-10" x="102.9" y="97.1" width="5.8" height="5.8"/>
<rect class="cls-11" x="102.9" y="102.9" width="5.8" height="5.8"/>
<rect class="cls-12" x="102.9" y="108.7" width="5.8" height="5.8"/>
<rect class="cls-13" x="120.8" y="97.1" width="5.8" height="5.8"/>
<rect class="cls-4" x="115" y="91.3" width="5.8" height="5.8"/>
<rect class="cls-14" x="115" y="85.5" width="5.8" height="5.8"/>
<rect class="cls-3" x="115" y="97.1" width="5.8" height="5.8"/>
<rect class="cls-5" x="115" y="102.9" width="5.8" height="5.8"/>
<rect class="cls-6" x="115" y="108.7" width="5.8" height="5.8"/>
<rect class="cls-9" x="126.6" y="91.3" width="5.8" height="5.8"/>
<rect class="cls-15" x="126.6" y="85.5" width="5.8" height="5.8"/>
<rect class="cls-16" x="120.8" y="85.5" width="5.8" height="5.8"/>
<rect class="cls-8" x="126.6" y="97.1" width="5.8" height="5.8"/>
<rect class="cls-10" x="126.6" y="102.9" width="5.8" height="5.8"/>
<rect class="cls-11" x="126.6" y="108.7" width="5.8" height="5.8"/>
<rect class="cls-6" x="20.4" y="85.5" width="5.8" height="5.8"/>
<rect class="cls-17" x="26.2" y="85.5" width="5.8" height="5.8"/>
<rect class="cls-16" x="26.2" y="91.3" width="5.8" height="5.8"/>
<rect class="cls-18" x="26.2" y="97.1" width="5.8" height="5.8"/>
<rect class="cls-19" x="26.2" y="102.9" width="5.8" height="5.8"/>
<rect class="cls-2" x="26.2" y="108.7" width="5.8" height="5.8"/>
<rect class="cls-11" x="32" y="85.5" width="5.8" height="5.8"/>
<rect class="cls-16" x="49.8" y="97.1" width="5.8" height="5.8"/>
<rect class="cls-13" x="49.8" y="108.7" width="5.8" height="5.8"/>
<rect class="cls-8" x="55.6" y="108.7" width="5.8" height="5.8"/>
<rect class="cls-6" x="44" y="91.3" width="5.8" height="5.8"/>
<rect class="cls-7" x="44" y="97.1" width="5.8" height="5.8"/>
<rect class="cls-4" x="44" y="102.9" width="5.8" height="5.8"/>
<rect class="cls-3" x="44" y="108.7" width="5.8" height="5.8"/>
<rect class="cls-5" x="44" y="85.5" width="5.8" height="5.8"/>
<rect class="cls-2" x="49.8" y="85.5" width="5.8" height="5.8"/>
<rect class="cls-20" x="55.6" y="85.5" width="5.8" height="5.8"/>
<rect class="cls-16" x="168" y="97.1" width="5.8" height="5.8"/>
<rect class="cls-13" x="168" y="108.7" width="5.8" height="5.8"/>
<rect class="cls-8" x="173.8" y="108.7" width="5.8" height="5.8"/>
<rect class="cls-6" x="162.2" y="91.3" width="5.8" height="5.8"/>
<rect class="cls-7" x="162.2" y="97.1" width="5.8" height="5.8"/>
<rect class="cls-4" x="162.2" y="102.9" width="5.8" height="5.8"/>
<rect class="cls-3" x="162.2" y="108.7" width="5.8" height="5.8"/>
<rect class="cls-5" x="162.2" y="85.5" width="5.8" height="5.8"/>
<rect class="cls-2" x="168" y="85.5" width="5.8" height="5.8"/>
<rect class="cls-20" x="173.8" y="85.5" width="5.8" height="5.8"/>
<rect class="cls-18" x="73.5" y="108.7" width="5.8" height="5.8"/>
<rect class="cls-9" x="79.3" y="108.7" width="5.8" height="5.8"/>
<rect class="cls-5" x="67.7" y="91.3" width="5.8" height="5.8"/>
<rect class="cls-6" x="67.7" y="97.1" width="5.8" height="5.8"/>
<rect class="cls-7" x="67.7" y="102.9" width="5.8" height="5.8"/>
<rect class="cls-4" x="67.7" y="108.7" width="5.8" height="5.8"/>
<rect class="cls-3" x="67.7" y="85.5" width="5.8" height="5.8"/>
<rect class="cls-13" x="73.5" y="85.5" width="5.8" height="5.8"/>
<rect class="cls-8" x="79.3" y="85.5" width="5.8" height="5.8"/>
<rect class="cls-2" x="144.4" y="108.7" width="5.8" height="5.8"/>
<rect class="cls-10" x="150.2" y="108.7" width="5.8" height="5.8"/>
<rect class="cls-8" x="150.2" y="102.9" width="5.8" height="5.8"/>
<rect class="cls-9" x="150.2" y="97.1" width="5.8" height="5.8"/>
<rect class="cls-7" x="138.6" y="91.3" width="5.8" height="5.8"/>
<rect class="cls-4" x="138.6" y="97.1" width="5.8" height="5.8"/>
<rect class="cls-3" x="138.6" y="102.9" width="5.8" height="5.8"/>
<rect class="cls-5" x="138.6" y="108.7" width="5.8" height="5.8"/>
<rect class="cls-6" x="138.6" y="85.5" width="5.8" height="5.8"/>
<rect class="cls-21" x="144.4" y="85.5" width="5.8" height="5.8"/>
<rect class="cls-11" x="150.2" y="85.5" width="5.8" height="5.8"/>
</svg>
