<?xml version="1.0" encoding="UTF-8"?>
<svg id="a" data-name="Layer 1" viewBox="0 0 200 200" xmlns="http://www.w3.org/2000/svg">
<defs>
<style>.cls-1{fill:#12100e;}.cls-2,.cls-3{fill:#fff;}.cls-2{fill-rule:evenodd;}</style>
</defs>
<title>themomedit</title>
<rect id="b" class="cls-1" width="200" height="200"/>
<polygon class="cls-2" points="56.49 35.53 81.61 35.53 81.61 36.47 69.5 36.47 69.5 69.21 68.56 69.21 68.56 36.47 56.49 36.47"/>
<polygon class="cls-2" points="87.84 69.21 86.89 69.21 86.89 35.53 87.84 35.53 87.84 51.19 111.41 51.19 111.41 35.53 112.35 35.53 112.35 69.21 111.41 69.21 111.41 52.13 87.84 52.13"/>
<polygon class="cls-2" points="143.51 68.27 143.51 69.21 120.98 69.21 120.98 35.53 143.32 35.53 143.32 36.47 121.92 36.47 121.92 51.19 142.05 51.19 142.05 52.13 121.92 52.13 121.92 68.27 143.51 68.27"/>
<path class="cls-2" d="M77.33,116.06H77a6.78,6.78,0,0,1-3.14-.43c-.26-.23-.39-1-.39-2.29V90.74c0-3.56.08-5.46.24-5.68a2.36,2.36,0,0,1,1.6-.78,10.27,10.27,0,0,1,1.84-.1c.55,0,.82-.16.82-.49a.46.46,0,0,0-.24-.43A5.57,5.57,0,0,0,76,83.11l-7.18,0c-.25.6-.53,1.37-.85,2.29l-5.18,16q-1,3.06-1.88,6.22-5.09-14.07-6.19-17-2.56-7-2.81-7.62c-.78,0-2.14,0-4.06,0H44.42c-1,0-1.42.18-1.42.54s.26.4.77.43a11.38,11.38,0,0,1,2.72.39,1.31,1.31,0,0,1,.82.92c.06.23.1,1.69.1,4.37V113a8.92,8.92,0,0,1-.2,2.52q-.2.39-1.35.39c-1.84,0-2.76.21-2.76.53s.29.44.87.44l5.57-.2a9.87,9.87,0,0,1,1.21.1,6.41,6.41,0,0,0,1.16.1q1,0,1-.54c0-.32-.53-.48-1.6-.48-1.32,0-2.1-.21-2.33-.63q-.14-.09-.14-9V88l1.92,5.17q6.51,17.59,7.91,22c.26.78.5,1.16.73,1.16s.51-.75,1-2.27l2.25-7.72q3.69-11.76,5.64-17.63c.39-1.09.58-1.66.58-1.69v25.14a9.92,9.92,0,0,1-.24,3.25q-.54.54-3,.54-1.41,0-1.41.48c0,.3.34.44,1,.44H77.29c.67,0,1-.14,1-.41s-.32-.41-1-.41h0Z"/>
<path class="cls-2" d="m110.8 87.67a13.7 13.7 0 0 0-10.8-5 14.45 14.45 0 0 0-11.21 4.82q-4.38 4.81-4.39 12.38a18 18 0 0 0 4.6 12.44 14.48 14.48 0 0 0 11.23 5.06 13.54 13.54 0 0 0 10.63-5 18 18 0 0 0 4.34-12.21 18.45 18.45 0 0 0-4.4-12.49zm-3.64 24.8a7.5 7.5 0 0 1-6.93 4.08 8.59 8.59 0 0 1-7.67-4.33q-2.75-4.32-2.74-12.15 0-9.85 3.92-14.24a7.63 7.63 0 0 1 6-2.38 7.42 7.42 0 0 1 6.34 3.11q3.63 5 3.63 13.85c0.02 5.03-0.84 9.04-2.55 12.06z"/>
<path class="cls-2" d="M156,116.06h-.29a6.86,6.86,0,0,1-3.15-.43c-.26-.23-.38-1-.38-2.29V90.74c0-3.56.08-5.46.24-5.68a2.34,2.34,0,0,1,1.6-.78,10.27,10.27,0,0,1,1.84-.1c.54,0,.82-.16.82-.49a.47.47,0,0,0-.24-.43,5.59,5.59,0,0,0-1.82-.15l-7.18,0c-.25.6-.53,1.37-.85,2.29l-5.18,16c-.65,2-1.27,4.11-1.88,6.22q-5.09-14.07-6.19-17c-1.72-4.66-2.65-7.2-2.81-7.62-.79,0-2.14,0-4.07,0h-3.38c-.94,0-1.42.18-1.41.54s.25.4.77.43a11.22,11.22,0,0,1,2.71.39,1.34,1.34,0,0,1,.83.92c.06.23.09,1.69.09,4.37V113a8.56,8.56,0,0,1-.19,2.52c-.13.26-.58.39-1.36.39-1.84,0-2.76.21-2.76.53s.29.44.87.44l5.57-.2a9.71,9.71,0,0,1,1.21.1,6.6,6.6,0,0,0,1.17.1c.67,0,1-.18,1-.54s-.53-.48-1.59-.48c-1.33,0-2.1-.21-2.33-.63q-.15-.09-.15-9V88l1.93,5.17q6.51,17.59,7.91,22c.25.78.5,1.16.72,1.16s.52-.75,1-2.27l2.25-7.72Q145,94.6,147,88.73c.39-1.09.59-1.66.59-1.69v25.14c0,2-.08,3.09-.25,3.25q-.52.54-3,.54c-.94,0-1.4.16-1.4.48s.33.44,1,.44H156c.67,0,1-.14,1-.41s-.32-.41-1-.41h0Z"/>
<polygon class="cls-2" points="75.37 163.53 75.37 164.47 52.83 164.47 52.83 130.79 75.18 130.79 75.18 131.73 53.78 131.73 53.78 146.45 73.91 146.45 73.91 147.39 53.78 147.39 53.78 163.53 75.37 163.53"/>
<path class="cls-2" d="m106.51 139.42a14 14 0 0 0-3.35-5.16 11.59 11.59 0 0 0-4.62-2.69 17.42 17.42 0 0 0-5.07-0.78h-11.79v33.68h10.32a18.43 18.43 0 0 0 5.89-0.94 13.75 13.75 0 0 0 8.58-8.16 20.26 20.26 0 0 0 1.32-7.74 22.28 22.28 0 0 0-1.28-8.21zm0.35 8.21a19.53 19.53 0 0 1-1.16 7.06 13.59 13.59 0 0 1-3.15 4.95 12.8 12.8 0 0 1-4.67 2.92 16.39 16.39 0 0 1-5.63 1h-9.63v-31.8h10.61a17.84 17.84 0 0 1 5 0.71 10.75 10.75 0 0 1 4.36 2.52 13.06 13.06 0 0 1 3.11 4.89 21.9 21.9 0 0 1 1.16 7.75z"/>
<rect class="cls-3" x="115.77" y="130.79" width=".94" height="33.68"/>
<polygon class="cls-2" points="122.04 130.79 147.17 130.79 147.17 131.73 135.05 131.73 135.05 164.47 134.11 164.47 134.11 131.73 122.04 131.73 122.04 130.79"/>
</svg>
