<?xml version="1.0" encoding="UTF-8"?>
<svg id="b" data-name="Layer 1" viewBox="0 0 200 200" xmlns="http://www.w3.org/2000/svg">
<defs>
<style>.cls-1{fill:#fff;}.cls-2{fill:#0dbe98;}</style>
</defs>
<title>huffpost</title>
<rect width="200" height="200"/>
<g id="a" data-name="Layer 1">
<path class="cls-1" d="M40.686,108.977H46.53l3.133-17.931H43.819l-1.155,6.421H37.6l1.155-6.421H32.909l-3.133,17.931H35.62l1.178-6.71h5.066Z"/>
<path class="cls-1" d="M52.973,91.023,51.2,101a11.457,11.457,0,0,0-.222,2.244c0,5.288,4.622,6.088,7.4,6.088,5.821,0,8.332-1.933,9.243-7.155L69.571,91H63.727l-1.666,9.376c-.533,2.933-.911,4.466-3.088,4.466-1.422,0-2.111-.755-2.111-2.311a12.057,12.057,0,0,1,.267-2.244L58.817,91H52.973Z"/>
<path class="cls-1" d="m100.46 108.98h5.845l0.822-4.622h2.755c5.088 0 7.91-2.755 7.91-7.777 0-3.533-2.444-5.555-6.732-5.555h-7.466zm9.11-9.043h-1.689l0.778-4.222h1.578c1.289 0 1.978 0.644 1.978 1.822a2.337 2.337 0 0 1 -2.645 2.399z"/>
<path class="cls-1" d="m129.14 90.646c-6.355 0-10.154 4.111-10.154 11.021 0 4.8 3.022 7.688 8.088 7.688 6.355 0 10.154-4.111 10.154-11.021 0.022-4.822-2.999-7.688-8.088-7.688zm-1.71 14.064c-1.511 0-2.4-1.089-2.4-2.911a9.953 9.953 0 0 1 0.2 -1.978c0.444-2.355 1.2-4.51 3.577-4.51 1.511 0 2.4 1.089 2.4 2.911a9.953 9.953 0 0 1 -0.2 1.978c-0.445 2.333-1.2 4.51-3.577 4.51z"/>
<path class="cls-1" d="M157.559,108.977H163.4l2.311-13.132h4.4l.844-4.8H156l-.844,4.8h4.666Z"/>
<path class="cls-1" d="M147.871,97.667c-1.844-.578-2.6-.822-2.6-1.689,0-.578.378-1.266,1.489-1.266a1.866,1.866,0,0,1,1.778,1.155l5.155-1.4c-.6-2.533-2.777-3.822-6.532-3.822-7.066,0-7.621,4.733-7.621,6.177,0,2.933,1.555,4.733,4.933,5.666.889.244,1.911.511,1.911,1.489,0,.778-.578,1.266-1.578,1.266a2.359,2.359,0,0,1-2.222-1.466l-5.088,1.378c.555,2.666,3.066,4.177,7,4.177,3,0,8.021-.8,8.021-6.221C152.537,100.4,151,98.622,147.871,97.667Z"/>
<path class="cls-2" d="M26.51,108.977l3.155-17.931H20v17.931Z"/>
<path class="cls-2" d="M173.468,91.046l-3.133,17.931H180V91.046Z"/>
<polygon class="cls-1" points="72.904 91.023 69.771 108.98 75.614 108.98 76.548 103.69 81.458 103.69 82.258 99.178 77.348 99.178 77.903 95.845 84.769 95.845 85.613 91.023"/>
<polygon class="cls-1" points="88.235 91.023 85.102 108.98 90.946 108.98 91.857 103.69 96.789 103.69 97.589 99.178 92.679 99.178 93.234 95.845 100.1 95.845 100.94 91.023"/>
</g>
</svg>
