<?xml version="1.0" encoding="UTF-8"?>
<svg id="a" data-name="Layer 1" viewBox="0 0 200 200" xmlns="http://www.w3.org/2000/svg">
<defs>
<style>.cls-1{fill:#f0f0f0;}.cls-2{fill:#ec1c24;}.cls-2,.cls-3,.cls-4,.cls-5,.cls-6{fill-rule:evenodd;}.cls-3{fill:#262223;}.cls-4{fill:#fff;}.cls-6,.cls-7{fill:#ed1c24;}</style>
</defs>
<title>theedvocate</title>
<rect class="cls-1" width="200" height="200"/>
<path class="cls-2" d="M76.531,118.693A31.506,31.506,0,0,0,75.8,79.5v.209h-.729v3.646h-.729v.933h.729v2.188h1.458v1.984H74.344v1.458h-.729v.729h-.729V92.1h-.729v1.458h-.729v.729H67.985v-.729h-.729v-.729H65.8V92.1h-.729v-.729h-.729V89.917H63.61v-.729h-.933V91.58h.729v1.458h2.188v.729h.729V94.5h.729v.729H68.51v1.458h.729v.729h2.392V95.955h.729v-.729h.729V94.5h1.254v1.458h.729v.729H75.8v1.983H74.344V99.4H72.885v.729H70.172V99.4H68.714v-.729h-.729v-.729H65.8v-.729h-.2v.729H64.135v.2h1.458v.729h.729V99.6h.729v.729h.729v.729h.729v.729h.933v-.729H70.9v-.729h4.9v2.713h-.729V104.5h-.729v.2h.729v.729H75.8v2.188h.729v11.071ZM51.505,131.062a31.441,31.441,0,0,0,24.5-11.7V108.147h-.729V105.96h-.729v-.729h-.729v-1.254h.729v-1.458h.729v-1.662h-3.85v.729H69.968v.729H67.985v-.729h-.729v-.729h-.729v-.729H65.8V99.4h-.729v-.729H63.61V97.413h1.458v-.729h1.254v.729H68.51v.729h.729v.729H70.7V99.6H72.36v-.729h1.458v-.729h1.458v-.933h-.729V96.48h-.729V95.022h-.2v.729h-.729v.729h-.729v1.458H68.714v-.729h-.729V95.751H66.527v-.729H65.8v-.729h-.729v-.729H62.881V92.1h-.729V88.663h1.983v.729h.729v1.458h.729v.729h.729v.729h1.458v.729h.729v.729H70.9v-.729h.729V91.58h.729V90.122h.729v-.729h.729V87.934h2.188V87H74.548V84.813h-.729V82.83h.729V79.184h.729v-.3a31.5,31.5,0,1,0-23.772,52.18Z"/>
<path class="cls-3" d="M36.892,84.55v2.188h-.729V88.2h.729v1.458h.729v1.458h2.188v-.729H39.08v-.729h.729V86.009h.729V85.28H42v1.458H40.538v.729h2.188v-.729h.729V85.28h-.729V83.821H42v-.729H38.351v.729h-.729v.729Zm7.292,37.918h-.729v2.188h.729v2.188h-.729v.729h.729v.729h1.458v-1.458h.729v.729H47.1v-.729h.729v-5.1h.729v4.375h.729v1.458H47.83v.729h5.834v-2.917h-.729V115.177H50.018v1.458h-.729v2.917h-.729v-1.458H47.83v.729H47.1v-1.458h-.729v6.563h-.729V123.2h-.729v-8.75h-.729Zm12.4-18.23v-.729h-.729v-2.188h.729V99.864h1.458v.729h.729v.729h1.458v.729h.729v.729h.729v1.458h.729v.729h-.729v.729h-.729v.729h-.729v1.458H59.5v-.729h-.729v-.729h-.729V105.7H57.31v-1.458ZM31.059,76.529v3.646h.729V80.9h.729v.729h.729v2.188h-.729v-.729H31.059v-.729H26.684v.729h-.729v.729H24.5V85.28h-.729V93.3h1.458v-.729h.729v-.73h.729V88.926h.729v1.459h.729v.729h.729v.729H29.6v.73h2.917v5.833h-.729v2.188h.729v1.458H28.871v-.729H26.684v-.729h-.729v-.729h1.458V95.489h-.729v3.646H23.767v.729H24.5v1.458h-.729v3.646h-.729v7.292h.729v1.458H24.5v1.458h.729v1.458h.729v.729h.729v.729h.729v1.458h1.458v-.729H29.6v-.729h.729v-.729h1.458v5.1h.729v.729h.729v-5.1h-.729v-1.458h1.458V123.2H34.7v2.188h.729v.729h.729v.729h1.458v.729h2.188v.729h1.458v.729h2.188v.729h5.1v.729h3.646v-.729H59.5v-.729h2.188V128.3h-.729v-.729H59.5v-12.4h.729V110.8H59.5v-.729h-.729v-.729h-.729v-.729H57.31v-.729H56.58v-.729h-.729v-.729h-.729V105.7h-.729V103.51H52.205v-5.1h.729v-.729h.729v-.729h.729v.729h.729v6.563h.729v.729h.729v1.458h.729v.729h.729v.729h.729v.729h1.458v.729h1.458v-2.917h.729V105.7h.729v-.729h.729V103.51h-.729v-.729h-.729v-.729h-.729V96.218H60.226v1.458H59.5v1.458h-.729v-.729h-.729v-.729H57.31v-.729H55.851v-.729h-.729v-.729h-.729v.729H52.205V91.842H50.747V88.2h-.729V94.03h-.364V91.113h-.365V94.03h-.729V92.572H47.83V91.113H47.1v-.729H45.643v-.729h2.917v-.729H47.83V88.2H47.1V86.009H49.18V87.7h-.62V85.28H47.83V84.55h.729v-.729h1.458v.729h.729v.729h-.729v.729h.729v1.458h.729V83.092h-.729v-.729H49.289v-.729H46.372v.729h-.729v.729H44.184v8.021h.729v.729h.729v5.834H44.184V96.218h-.729v-.729h-.729V93.3H42v-.729H40.538V94.03h.729v2.188h-.729v-.729h-.729v-.729H39.08V93.3h-.729v-.729h-.729v-.73H36.163v.73h-.729V93.3h.729v5.1h.729v.729h-.729v1.458h1.458V99.135h3.646v.729h1.458v2.188h.729v1.458h-.729v.729H42v-.729H35.434v5.833H34.7V103.51h-.729v-1.458h-.729V95.489h.729V93.3H34.7V88.2h.729V86.009H34.7v.729h-.729V84.55H34.7v.729h.729V83.821h.729V82.363h.729V80.175h-.729V78.717h-.729v-.729h.729V75.071H32.517V75.8h-.729v.729ZM58.768,91.113H57.674v.729h1.458v-.729H59.5V88.926h-.729V87.467H55.122V88.2h-.729v.729h-.729V93.3h.729v.729h.729v.729h.729V91.842h.729V94.03h.729V91.113H56.58V89.655h2.188Z"/>
<polygon class="cls-3" points="74.111 83.092 74.111 84.55 74.84 84.55 74.84 86.738 76.299 86.738 76.299 88.197 74.111 88.197 74.111 89.655 73.382 89.655 73.382 90.384 72.653 90.384 72.653 91.842 71.924 91.842 71.924 93.301 71.195 93.301 71.195 94.03 68.278 94.03 68.278 93.301 67.549 93.301 67.549 92.572 66.09 92.572 66.09 91.842 65.361 91.842 65.361 91.113 64.632 91.113 64.632 89.655 63.903 89.655 63.903 88.926 62.444 88.926 62.444 91.842 63.173 91.842 63.173 93.301 65.361 93.301 65.361 94.03 66.09 94.03 66.09 94.759 66.82 94.759 66.82 95.489 68.278 95.489 68.278 96.947 69.007 96.947 69.007 97.676 71.924 97.676 71.924 96.218 72.653 96.218 72.653 95.489 73.382 95.489 73.382 94.759 74.111 94.759 74.111 96.218 74.84 96.218 74.84 96.947 75.57 96.947 75.57 98.405 74.111 98.405 74.111 99.135 72.653 99.135 72.653 99.864 70.465 99.864 70.465 99.135 69.007 99.135 69.007 98.405 68.278 98.405 68.278 97.676 66.09 97.676 66.09 96.947 65.361 96.947 65.361 97.676 63.903 97.676 63.903 98.405 65.361 98.405 65.361 99.135 66.09 99.135 66.09 99.864 66.82 99.864 66.82 100.59 67.549 100.59 67.549 101.32 68.278 101.32 68.278 102.05 69.736 102.05 69.736 101.32 71.195 101.32 71.195 100.59 75.57 100.59 75.57 102.78 74.84 102.78 74.84 104.24 74.111 104.24 74.111 104.97 74.84 104.97 74.84 105.7 75.57 105.7 75.57 107.88 76.299 107.88 76.299 129.03 73.382 129.03 73.382 131.22 74.111 131.22 74.111 131.95 77.028 131.95 77.028 131.22 79.216 131.22 79.216 131.95 81.403 131.95 81.403 112.26 82.132 112.26 82.132 109.34 82.862 109.34 82.862 107.88 83.591 107.88 83.591 106.43 84.32 106.43 84.32 101.32 83.591 101.32 83.591 99.864 85.049 99.864 85.049 91.842 84.32 91.842 84.32 90.384 83.591 90.384 83.591 88.926 82.862 88.926 82.862 87.467 82.132 87.467 82.132 80.175 81.403 80.175 81.403 79.446 80.674 79.446 80.674 78.717 75.57 78.717 75.57 79.446 74.84 79.446 74.84 83.092"/>
<path class="cls-4" d="M23.767,93.3v5.834h2.917V95.489h.729v4.375H25.955v.729h.729v.729h2.188v.729h3.646v-1.458h-.729V98.405h.729V92.572H29.6v-.73h-.729v-.729h-.729v-.729h-.729V88.926h-.729v2.917h-.729v.73h-.729V93.3ZM57.31,105.7h.729v.729h.729v.729H59.5v.729h.729v-1.458h.729V105.7h.729v-.729h.729v-.729h-.729V102.78h-.729v-.729h-.729v-.729H58.768v-.729h-.729v-.729H56.58v1.458h-.729v2.188h.729v.729h.729Zm2.917,5.1v-.729h.729v-.729h-.729v-.729H58.768v-.729h-.729v-.729H57.31v-.729H56.58v-1.458h-.729v-.729h-.729V97.676h-.729v-.729h-.729v.729h-.729v.729h-.729v5.1h2.188V105.7h.729v.729h.729v.729h.729v.729h.729v.729h.729v.729h.729v.729H59.5v.729ZM50.747,88.2V86.009h-.729V85.28h.729V84.55h-.729v-.729H48.559v.729H47.83v.729h.729v.729H47.1V88.2h.729v.729h.729v.729H45.643v.729H47.1v.729h.729v1.459h.729V94.03h1.458V88.2Zm5.1,6.563H57.31v.729H55.122v.729h.729v.729H57.31v.729h.729v.729h.729v.729H59.5V97.676h.729V96.218H58.039V94.03h.729V93.3H59.5V91.113h-.729V89.655H56.58v1.458h.729V94.03H56.58V91.842h-.729ZM29.6,85.28h-.729v1.458H29.6v.729H28.142v1.458H29.6v1.459h.729v-.729h.729v-5.1H29.6Zm7.292-2.917h1.458v-.729h-.729V80.175h.729V78.717h-.729V76.529h-.729V75.8h-.729v2.188h-.729v.729h.729v1.458h.729Zm5.833,5.1H40.538v-.729H42V85.28H40.538v.729h-.729v3.646H39.08v.729h.729v.729H37.622V89.655h-.729V88.2h-.729V86.738h.729V84.55h-.729v-.729h-.729V85.28H34.7V84.55h-.729v2.188H34.7v-.729h.729V88.2H34.7v5.1h-.729v2.188h-.729v6.563h.729v1.458H34.7v5.833h2.188v.729H39.08v.729h2.188v-1.458H42v-4.375H40.538v-.729H36.892v.729h-.729v1.458h.729v2.188H35.434v-5.1H42v.729h.729v-.729h.729v-1.458h-.729V99.864H41.268v-.729H37.622v1.458H36.163V99.135h.729v-.729h-.729V93.3h-.729v-.729h.729v-.73h1.458v.73h.729V93.3h.729v1.458h.729v.729h.729v.729h.729V94.03h-.729V92.572H42V93.3h.729v2.188h.729v.729h.729v1.458h.729v2.188h.729v.393h.729v.568H47.1v.393h.729v.569h.73v.218h.729v.568h1.459v-.393h-.729v-.568H49.29v-.218H48.56v-.744h-.73v-.393H47.1v-.569h-.729V99.3h-.729V97.5h0V91.842H42.726v-.729H40.538v-.729h.729v-.729H42V88.2h.729Z"/>
<polygon class="cls-5" points="93.078 82.678 94.522 82.678 97.154 82.678 98.951 82.678 98.983 82.678 98.983 85.799 97.86 85.799 97.437 83.93 94.522 83.93 94.522 93.782 94.522 94.366 95.934 94.937 95.934 95.771 94.522 95.771 94.522 95.771 93.078 95.771 93.078 95.771 91.666 95.771 91.666 94.937 93.078 94.366 93.078 93.782 93.078 83.93 90.196 83.93 89.773 85.799 88.65 85.799 88.65 83.93 88.65 82.678 90.479 82.678"/>
<polygon class="cls-5" points="101.57 82.678 101.57 82.678 103.01 82.678 104.42 82.678 104.42 83.513 103.01 84.084 103.01 84.668 103.01 88.303 110.01 88.303 110.01 84.084 108.59 83.513 108.59 82.678 110.01 82.678 110.01 82.678 111.45 82.678 111.45 82.678 112.86 82.678 112.86 83.513 111.45 84.084 111.45 88.303 111.45 89.555 111.45 94.366 112.86 94.937 112.86 95.771 111.45 95.771 111.45 95.771 110.01 95.771 110.01 95.771 108.59 95.771 108.59 94.937 110.01 94.366 110.01 89.555 103.01 89.555 103.01 93.782 103.01 94.366 104.42 94.937 104.42 95.771 103.01 95.771 103.01 95.771 101.57 95.771 101.57 95.771 100.15 95.771 100.15 94.937 101.57 94.366 101.57 89.555 101.57 88.303 101.57 84.084 100.15 83.513 100.15 82.678"/>
<path class="cls-6" d="M103.639,100.1v10.75h1.014a6.666,6.666,0,0,0,.926-.061c3.037-.418,4.335-2.923,4.269-5.375-.065-2.416-1.04-4.781-4.085-5.235a7.525,7.525,0,0,0-1.11-.079Zm-1.809-1.187h2.824c4.7,0,7.036,2.634,7.018,6.55-.017,3.6-2.659,6.548-7.018,6.543h-4.235v-.835l1.412-.571V100.317l-1.412-.571v-.834Z"/>
<polygon class="cls-6" points="116.39 112 116.78 112 118.14 112 118.35 112 122.08 100.29 123.42 99.746 123.42 98.911 122.52 98.911 121.65 98.911 120.88 98.911 120.56 98.911 119.71 98.911 119.71 99.746 120.48 100.2 117.47 109.8 114.45 99.87 114.8 99.746 114.8 98.911 114.16 98.911 114.05 98.911 112.84 98.911 112.1 98.911 111.2 98.911 111.2 99.746 112.55 100.29"/>
<path class="cls-7" d="m129.19 111.07c3.7 0 4.26-3.486 4.187-5.661-0.089-2.688-0.776-5.506-4.187-5.506-2.9 0-3.874 2.818-3.963 5.506-0.072 2.175 0.776 5.665 3.963 5.661m0-12.291c4.054-0.128 6.092 2.762 6.074 6.678-0.017 3.6-1.716 6.836-6.074 6.832-4.1 0-5.833-3.237-5.849-6.832-0.018-3.915 2.309-6.805 5.849-6.677z"/>
<path class="cls-7" d="M145.63,99.006a2.4,2.4,0,0,1,1.37,3.441h-1.538v-2.034c-2.678-1.83-6.827.269-6.962,5.091a5.2,5.2,0,0,0,8.094,4.794l.2,1.106a8.106,8.106,0,0,1-4.038.856c-4.1,0-6.221-2.931-6.235-6.526a6.894,6.894,0,0,1,9.108-6.729"/>
<path class="cls-6" d="M155.41,106.211l-1.822-5.685-1.905,5.685Zm-2.468-7.3h2.066l3.866,11.884.927.374V112H155.18v-.835l1.61-.651-1.031-3.216h-4.442l-1.062,3.17v.165l1.476.532V112H147.4v-.835l1.395-.564Z"/>
<polygon class="cls-6" points="163.43 98.911 165.24 98.911 167.6 98.911 169.39 98.911 169.43 98.911 169.43 102.03 168.3 102.03 167.88 100.16 165.24 100.16 165.24 110.71 166.38 111.17 166.38 112 165.24 112 164.97 112 163.52 112 163.43 112 162.11 112 162.11 111.17 163.43 110.64 163.43 100.16 160.64 100.16 160.22 102.03 159.09 102.03 159.09 100.16 159.09 100.16 159.09 98.911 159.09 98.911 160.92 98.911"/>
<polygon class="cls-6" points="90.972 98.911 92.352 98.911 92.781 98.911 96.652 98.911 98.481 98.911 98.481 100.16 98.481 102.03 97.358 102.03 96.935 100.16 92.781 100.16 92.781 104.81 95.944 104.81 96.371 103.86 97.037 103.86 97.037 104.81 97.037 105.44 97.037 106.06 97.037 106.06 97.037 107.02 96.371 107.02 95.944 106.06 92.781 106.06 92.781 110.75 97.256 110.75 97.679 108.88 98.802 108.88 98.802 112 98.481 112 96.973 112 92.781 112 92.352 112 90.972 112 90.908 112 89.496 112 89.496 111.17 90.972 110.57 90.972 106.06 90.972 104.81 90.972 100.34 89.496 99.746 89.496 98.911 90.908 98.911"/>
<polygon class="cls-6" points="172.06 98.911 173.44 98.911 173.87 98.911 177.74 98.911 179.57 98.911 179.57 100.16 179.57 102.03 178.44 102.03 178.02 100.16 173.87 100.16 173.87 104.81 177.03 104.81 177.46 103.86 178.12 103.86 178.12 104.81 178.12 105.44 178.12 106.06 178.12 106.06 178.12 107.02 177.46 107.02 177.03 106.06 173.87 106.06 173.87 110.75 178.34 110.75 178.76 108.88 179.89 108.88 179.89 112 179.57 112 178.06 112 173.87 112 173.44 112 172.06 112 171.99 112 170.58 112 170.58 111.17 172.06 110.57 172.06 100.34 170.58 99.746 170.58 98.911 171.99 98.911"/>
<polygon class="cls-5" points="116.04 82.678 117.42 82.678 117.48 82.678 121.72 82.678 123.55 82.678 123.55 83.93 123.55 85.799 122.42 85.799 122 83.93 117.48 83.93 117.48 88.578 121.01 88.578 121.44 87.624 122.1 87.624 122.1 88.578 122.1 89.204 122.1 89.83 122.1 89.83 122.1 90.784 121.44 90.784 121.01 89.83 117.48 89.83 117.48 94.52 122.32 94.52 122.75 92.651 123.87 92.651 123.87 95.771 123.55 95.771 122.04 95.771 117.48 95.771 117.48 95.771 116.04 95.771 116.04 95.771 115.97 95.771 114.56 95.771 114.56 94.937 116.04 94.34 116.04 89.83 116.04 88.578 116.04 84.11 114.56 83.513 114.56 82.678 115.97 82.678"/>
</svg>
