<?xml version="1.0" encoding="UTF-8"?>
<svg id="a" data-name="Layer 1" viewBox="0 0 200 200" xmlns="http://www.w3.org/2000/svg">
<defs>
<style>.cls-1{fill:#f42;}.cls-2{fill:#fff;}</style>
</defs>
<title>tnw</title>
<rect class="cls-1" width="200" height="200"/>
<path class="cls-2" d="M92.111,87.627a11.818,11.818,0,0,0-8.357-3.462H66.515v31.515H78.333v-19.7h3.789a3.946,3.946,0,0,1,2.788,1.154l4.082,4.079A3.944,3.944,0,0,1,90.151,104v11.678H101.97v-13.31A11.824,11.824,0,0,0,98.5,94.014Z"/>
<path class="cls-2" d="M153.182,84.166V95.844a3.944,3.944,0,0,1-1.159,2.786l-4.085,4.079a3.939,3.939,0,0,1-2.786,1.154h-5.677a11.8,11.8,0,0,0,1.888-6.387V84.166H129.545V95.844a3.944,3.944,0,0,1-1.159,2.786l-4.085,4.079a3.939,3.939,0,0,1-2.786,1.154h-3.789v-19.7H105.909v31.515h17.239a11.824,11.824,0,0,0,8.359-3.462l3.947-3.946v7.407h11.329a11.824,11.824,0,0,0,8.359-3.462l6.39-6.387A11.823,11.823,0,0,0,165,97.476V84.166Z"/>
<polygon class="cls-2" points="35 95.984 42.879 95.984 42.879 115.68 54.697 115.68 54.697 95.984 62.576 95.984 62.576 84.166 35 84.166"/>
</svg>
