<?xml version="1.0" encoding="UTF-8"?>
<svg id="a" data-name="Layer 1" viewBox="0 0 200 200" xmlns="http://www.w3.org/2000/svg">
<defs>
<style>.cls-1{fill:#005689;}.cls-2{fill:#fff;}.cls-3{fill:#aadce6;}</style>
</defs>
<title>theguardian</title>
<rect class="cls-1" width="200" height="200"/>
<path class="cls-2" d="M162.914,107.538h8.04V106.03l-1.508-.754V95.226a3.576,3.576,0,0,1,2.161-.553c1.407,0,1.859.452,1.859,2.06v8.543l-1.508.754v1.508H180V106.03l-1.508-.754V95.729c0-2.864-1.055-4.171-3.568-4.171a8.11,8.11,0,0,0-5.427,2.01V91.457h-.5l-6.231,1.106v1.357l1.658.8v10.553l-1.508.754ZM143.466,85.125a2.739,2.739,0,1,0,2.714,2.764A2.779,2.779,0,0,0,143.466,85.125ZM139.3,92.512v1.407l1.508.8v10.5l-1.508.754v1.558h8.04V105.98l-1.508-.754V91.507h-.5Zm-7.035,12.01a2.362,2.362,0,0,1-1.608.553c-2.01,0-2.965-1.658-2.965-5.478,0-4.372,1.206-5.829,2.814-5.829a2.137,2.137,0,0,1,1.759.7v10.051Zm0-12.262a4.6,4.6,0,0,0-2.513-.7c-3.719,0-7.287,2.211-7.287,8.442,0,5.98,3.568,7.89,5.93,7.89a4.6,4.6,0,0,0,3.819-1.709h.151v1.658h.452l5.98-.7V105.98l-1.508-.9V85.226h-.5l-6.332,1.005v1.407l1.809.754ZM111.154,93.97l1.508.754v10.5l-1.508.754v1.558H119.7V105.98l-2.01-.754V97.035a5.386,5.386,0,0,1,3.417-.955,5.874,5.874,0,0,1,1.106.151V91.708a1.874,1.874,0,0,0-.6-.1c-1.658,0-3.015,1.106-3.92,3.116V91.457h-.5l-6.03,1.005Zm-9.7-.4c1.96,0,2.663,1.005,2.663,2.965v1.759l-3.065.553c-2.965.553-5.226,1.457-5.226,4.674A4.121,4.121,0,0,0,100,107.89c1.91,0,3.719-.854,4.372-2.211h.151c.251,1.658,1.658,2.211,3.216,2.211a4.331,4.331,0,0,0,2.864-.8v-1.005l-1.457-.754V96.281c0-3.518-2.613-4.724-6.684-4.724a12.5,12.5,0,0,0-5.729,1.307v3.92h2.362l1.005-3.015A4.107,4.107,0,0,1,101.455,93.568Zm1.156,11.508c-.955,0-2.01-.553-2.01-2.312a2.826,2.826,0,0,1,2.412-2.513l1.106-.251v4.271S103.163,105.076,102.611,105.076Zm50.6-11.508c1.96,0,2.663,1.005,2.663,2.965v1.759l-3.065.553c-2.965.553-5.226,1.457-5.226,4.674a4.121,4.121,0,0,0,4.171,4.372c1.91,0,3.719-.854,4.372-2.211h.151c.251,1.658,1.658,2.211,3.216,2.211a4.331,4.331,0,0,0,2.864-.8v-1.005l-1.457-.754V96.281c0-3.518-2.613-4.724-6.684-4.724a12.5,12.5,0,0,0-5.729,1.307v3.92h2.362l1.005-3.015a4.107,4.107,0,0,1,1.357-.2Zm1.156,11.508c-.955,0-2.01-.553-2.01-2.312a2.826,2.826,0,0,1,2.412-2.513l1.106-.251v4.271S154.924,105.076,154.371,105.076Zm-69.7,2.814a2.866,2.866,0,0,0,.653-.05,6.115,6.115,0,0,0,4.221-2.111v2.06l6.03-.754V106.03l-1.508-1.005V91.457h-.5l-6.03,1.156V93.97l2.01.854v9.2a3.408,3.408,0,0,1-2.111.653c-1.256,0-2.412-.4-2.412-2.161V91.457h-.5l-6.03,1.256V94.02l2.01.8v8.191C80.5,105.729,81.6,107.89,84.67,107.89ZM68.439,104.02c-.6,0-1.256-.4-1.256-.955a1.61,1.61,0,0,1,.7-1.156,7.839,7.839,0,0,0,2.513.3c3.92,0,6.633-1.859,6.633-5.226a4.044,4.044,0,0,0-1.608-3.216l2.563.7V91.457l-4.121.8a10.639,10.639,0,0,0-3.518-.8c-3.92,0-6.633,2.06-6.633,5.427a4.873,4.873,0,0,0,2.513,4.422l.1.1c-.854.6-2.663,2.01-2.663,3.618a2.8,2.8,0,0,0,2.412,2.764c-1.709.4-3.668,1.256-3.668,3.266,0,2.06,2.965,4.02,7.789,4.02,5.93,0,8.292-2.864,8.292-6.533,0-3.065-1.407-4.523-4.774-4.523Zm3.769-7.035c0,2.864-.653,3.266-1.759,3.266s-2.01-.4-2.01-3.266c0-2.915.9-3.769,2.01-3.769S72.208,94.221,72.208,96.985ZM66.428,110.5a1.9,1.9,0,0,1,1.859-1.809H72.61a1.807,1.807,0,0,1,1.859,1.809c0,1.608-1.005,2.211-4.171,2.211C67.534,112.714,66.378,111.608,66.428,110.5Z"/>
<path class="cls-3" d="M61.906,100c0-6.533-2.563-8.493-6.533-8.493-4.523,0-7.538,3.116-7.538,8.241,0,5.277,2.764,8.141,7.94,8.141a7.3,7.3,0,0,0,5.628-2.362V104.02a10.52,10.52,0,0,1-3.869.6c-2.814,0-4.674-1.608-4.674-4.623Zm-6.583-6.734c1.256,0,1.91.9,1.91,4.824l-4.221.352C53.061,94.472,53.915,93.266,55.323,93.266ZM38.789,107.538V106.03l-1.508-.754v-9.8a4.516,4.516,0,0,1,2.412-.854A1.885,1.885,0,0,1,41.8,96.734v8.543l-1.508.754v1.508h8.04V106.03l-1.508-.754V95.729c0-2.864-1.658-4.171-3.869-4.171a8.712,8.712,0,0,0-5.679,1.91V84.924h-.5l-6.03,1.005v1.508l2.01.754v17.086l-1.508.754v1.508Zm-16.583-4.322c0,2.864,1.407,4.674,4.473,4.674a6.846,6.846,0,0,0,4.07-1.156v-1.91a4.426,4.426,0,0,1-1.457.251c-1.457,0-2.06-.8-2.06-2.312V94.472h3.518V91.96H27.231V88.191l-5.025.754V91.96l-2.01.5v2.01h2.01Z"/>
</svg>
