<?xml version="1.0" encoding="UTF-8"?>
<svg id="a" data-name="Layer 1" viewBox="0 0 200 200" xmlns="http://www.w3.org/2000/svg">
<defs>
<style>.cls-1{fill:#f0f0f0;}.cls-2{fill-rule:evenodd;}</style>
</defs>
<title>theoldschoolhouse</title>
<rect class="cls-1" width="200" height="200"/>
<path d="M136.172,113.028v.061q0,.482.372.482a.747.747,0,0,0,.464-.223,2.414,2.414,0,0,0,.47-.574,3.643,3.643,0,0,0,.348-.76,2.263,2.263,0,0,0,.134-.678.651.651,0,0,0-.1-.379.313.313,0,0,0-.27-.141.759.759,0,0,0-.5.253,2.754,2.754,0,0,0-.491.65,4.227,4.227,0,0,0-.328.711,1.9,1.9,0,0,0-.1.6m2.039-2.381h.543l-.739,2.577-.043.152-.012.1q0,.1.085.1.177,0,.519-.458l.122.085a2.259,2.259,0,0,1-.492.6.8.8,0,0,1-.5.211.315.315,0,0,1-.232-.091.322.322,0,0,1-.091-.238,1.3,1.3,0,0,1,.061-.33l.092-.324q-.22.289-.317.4a2.665,2.665,0,0,1-.25.249,1.451,1.451,0,0,1-.369.233.927.927,0,0,1-.376.1.551.551,0,0,1-.458-.232.979.979,0,0,1-.177-.61,2.13,2.13,0,0,1,.1-.641,3.815,3.815,0,0,1,.369-.775,2.834,2.834,0,0,1,.705-.788,1.368,1.368,0,0,1,.818-.342q.391,0,.507.476Zm-9.6,3.163h.067a.553.553,0,0,0,.3-.07.568.568,0,0,0,.168-.156,1.014,1.014,0,0,0,.113-.269l.988-3.45a.585.585,0,0,0-.183-.137,1.985,1.985,0,0,0-.365-.058l.043-.122h1.086l.337,3.441,2.3-3.441h1.177l-.043.14h-.067a1.106,1.106,0,0,0-.192.012.668.668,0,0,0-.176.073.487.487,0,0,0-.168.137.926.926,0,0,0-.11.272l-.9,3.133a.637.637,0,0,0-.033.131.824.824,0,0,0-.013.118q0,.244.342.244h.11l-.043.14h-1.649l.037-.14h.073a.613.613,0,0,0,.308-.069.553.553,0,0,0,.177-.154,1.145,1.145,0,0,0,.119-.272l.9-3.163L130.8,113.98h-.1l-.354-3.747-.883,3.083a.96.96,0,0,0-.045.24q0,.254.36.254h.11l-.043.14h-1.282Zm-6.833-2.308.029-.147.032-.184a.205.205,0,0,0-.232-.232h-.128l.043-.14,1.062-.184-.436,1.529c.13-.2.234-.36.311-.468s.248-.311.515-.612a1.149,1.149,0,0,1,.857-.45.382.382,0,0,1,.261.092.3.3,0,0,1,.1.232,1.335,1.335,0,0,1-.021.2,2.536,2.536,0,0,1-.058.267l-.507,1.777-.055.177-.036.159c0,.069.032.1.1.1q.2,0,.5-.428l.11.073a1.877,1.877,0,0,1-.43.519.747.747,0,0,1-.461.2q-.36,0-.36-.391l.018-.165.075-.238.468-1.642c.02-.077.039-.148.055-.212a.631.631,0,0,0,.024-.144.151.151,0,0,0-.049-.11.159.159,0,0,0-.116-.05c-.159,0-.357.137-.6.41a6.246,6.246,0,0,0-.6.8,2.784,2.784,0,0,0-.311.617l-.312,1.093h-.559Zm-4.857,1.63q0,.7.537.7a.7.7,0,0,0,.5-.22,2.872,2.872,0,0,0,.5-.858,3.234,3.234,0,0,0,.278-1.3q0-.659-.464-.66a.875.875,0,0,0-.879.614q-.238.614-.314.861t-.119.446A1.994,1.994,0,0,0,116.92,113.132Zm1.4-2.516a.911.911,0,0,1,.727.311,1.267,1.267,0,0,1,.269.855,2.282,2.282,0,0,1-.6,1.542,1.766,1.766,0,0,1-1.346.687.889.889,0,0,1-.724-.321,1.322,1.322,0,0,1-.266-.87l.006-.067a2.135,2.135,0,0,1,.6-1.481A1.784,1.784,0,0,1,118.324,110.616Zm-3.832-1.2a.352.352,0,0,1,.25.1.329.329,0,0,1,.1.25.36.36,0,0,1-.107.266.354.354,0,0,1-.259.107.361.361,0,0,1-.247-.089.291.291,0,0,1-.1-.229.41.41,0,0,1,.107-.284A.33.33,0,0,1,114.493,109.419Zm-1,4.592a.335.335,0,0,1-.238-.086.3.3,0,0,1-.092-.232,1.3,1.3,0,0,1,.05-.3l.549-1.893.036-.147a.614.614,0,0,0,.032-.177.211.211,0,0,0-.238-.238h-.122l.043-.14,1.05-.183-.745,2.6c-.008.033-.02.079-.037.14a.609.609,0,0,0-.024.122q0,.11.1.11a.188.188,0,0,0,.107-.03,1.024,1.024,0,0,0,.144-.134l.128-.134.079-.1.128.1a3.29,3.29,0,0,1-.522.559A.693.693,0,0,1,113.492,114.011Zm-2.507-.4a1.681,1.681,0,0,1-.339.3.567.567,0,0,1-.3.082.394.394,0,0,1-.281-.11.363.363,0,0,1-.116-.275,1.4,1.4,0,0,1,.062-.25l.711-2.48h-.511l.055-.178a1.883,1.883,0,0,0,.388-.123,1.437,1.437,0,0,0,.284-.178,1.6,1.6,0,0,0,.238-.227c.065-.077.153-.2.262-.356h.147l-.236.824h.474l-.067.238h-.469l-.679,2.345-.037.134a.675.675,0,0,0-.043.183q0,.073.086.073a.336.336,0,0,0,.232-.1,1.347,1.347,0,0,0,.165-.18l.1-.137.128.086q-.079.122-.11.162T110.985,113.614Zm-5.413-.586v.061q0,.482.372.482a.747.747,0,0,0,.464-.223,2.416,2.416,0,0,0,.47-.574,3.643,3.643,0,0,0,.348-.76,2.263,2.263,0,0,0,.134-.678.651.651,0,0,0-.1-.379.313.313,0,0,0-.27-.141.759.759,0,0,0-.5.253,2.756,2.756,0,0,0-.491.65,4.226,4.226,0,0,0-.328.711A1.9,1.9,0,0,0,105.572,113.028Zm2.039-2.381h.543l-.739,2.577-.043.152-.012.1q0,.1.085.1.177,0,.519-.458l.122.085a2.258,2.258,0,0,1-.491.6.8.8,0,0,1-.5.211.314.314,0,0,1-.232-.091.322.322,0,0,1-.091-.238,1.3,1.3,0,0,1,.061-.33l.091-.324q-.22.289-.317.4a2.665,2.665,0,0,1-.25.249,1.451,1.451,0,0,1-.369.233.927.927,0,0,1-.376.1.551.551,0,0,1-.458-.232.979.979,0,0,1-.177-.61,2.13,2.13,0,0,1,.1-.641,3.815,3.815,0,0,1,.369-.775,2.837,2.837,0,0,1,.705-.788,1.369,1.369,0,0,1,.818-.342q.391,0,.507.476Zm-4.564,2.54a2.321,2.321,0,0,1-.25.318,3.839,3.839,0,0,1-.385.311,1.236,1.236,0,0,1-.751.208.875.875,0,0,1-.684-.293,1.118,1.118,0,0,1-.263-.775,2.1,2.1,0,0,1,.116-.656,2.522,2.522,0,0,1,.324-.65,3.178,3.178,0,0,1,.617-.675,1.345,1.345,0,0,1,.892-.357.785.785,0,0,1,.522.162.534.534,0,0,1,.192.43.508.508,0,0,1-.119.345.371.371,0,0,1-.29.137.322.322,0,0,1-.2-.061.2.2,0,0,1-.08-.171.15.15,0,0,1,.019-.079.3.3,0,0,1,.061-.141l.122-.128a.2.2,0,0,0,.067-.147.18.18,0,0,0-.08-.147.321.321,0,0,0-.2-.061.916.916,0,0,0-.711.446,3.332,3.332,0,0,0-.482.867,2.424,2.424,0,0,0-.15.812,1.04,1.04,0,0,0,.159.617.537.537,0,0,0,.464.22.788.788,0,0,0,.412-.1,1.577,1.577,0,0,0,.269-.2,2.736,2.736,0,0,0,.272-.321Zm-5.694-.079a3.545,3.545,0,0,1-.669.62,1.069,1.069,0,0,1-.577.223.327.327,0,0,1-.247-.107.356.356,0,0,1-.1-.253l.013-.116.09-.293.473-1.679a1.533,1.533,0,0,0,.053-.193.7.7,0,0,0,.012-.131.209.209,0,0,0-.232-.239h-.122l.043-.14,1.05-.184-.714,2.469-.061.232-.006.037a.227.227,0,0,0,.037.116.144.144,0,0,0,.135.061c.167,0,.372-.137.615-.412a5.614,5.614,0,0,0,.616-.826,3.045,3.045,0,0,0,.331-.69l.272-.952h.56l-.757,2.6-.055.208v.037q0,.116.079.116a.219.219,0,0,0,.095-.03.671.671,0,0,0,.1-.064c.029-.022.07-.061.126-.116s.115-.119.18-.192l.1.073a1.881,1.881,0,0,1-.443.516.773.773,0,0,1-.467.186.339.339,0,0,1-.241-.089.315.315,0,0,1-.095-.241,1.073,1.073,0,0,1,.067-.342l.11-.428.128-.47q-.189.3-.284.425T97.353,113.107Zm-5.938-.178v.165q0,.466.354.465a.889.889,0,0,0,.6-.34,3.15,3.15,0,0,0,.577-.918,2.568,2.568,0,0,0,.253-1,.655.655,0,0,0-.095-.38.309.309,0,0,0-.267-.134.8.8,0,0,0-.49.254,2.423,2.423,0,0,0-.5.639l-.221.484-.142.355Zm2.15-2.716a.624.624,0,0,0,.042-.22q0-.275-.324-.275h-.067l.043-.135,1.081-.172-1.081,3.794-.043.116a.585.585,0,0,0-.018.067.353.353,0,0,0-.006.067.092.092,0,0,0,.1.1.384.384,0,0,0,.223-.125,2.277,2.277,0,0,0,.29-.333l.134.086c-.045.069-.083.126-.113.171s-.121.156-.272.333a.74.74,0,0,1-.592.266.362.362,0,0,1-.247-.082.273.273,0,0,1-.095-.217.808.808,0,0,1,.037-.232q.037-.122.061-.232t.049-.2a4.247,4.247,0,0,1-.629.7,1.035,1.035,0,0,1-.69.283.551.551,0,0,1-.458-.232.987.987,0,0,1-.177-.613,2.118,2.118,0,0,1,.128-.7,3.661,3.661,0,0,1,.417-.8,2.915,2.915,0,0,1,.7-.737,1.314,1.314,0,0,1,.76-.3.5.5,0,0,1,.255.064.527.527,0,0,1,.162.134.8.8,0,0,1,.1.2Zm-8.253,3.6h.073a.551.551,0,0,0,.29-.072.559.559,0,0,0,.178-.158,1,1,0,0,0,.113-.266l.031-.127.862-3a1.085,1.085,0,0,0,.047-.239q0-.256-.348-.256h-.1l.037-.14h3.041l-.3,1.038h-.147a1.516,1.516,0,0,0,.043-.2,1.2,1.2,0,0,0,.012-.162.452.452,0,0,0-.1-.33.5.5,0,0,0-.272-.134,3.741,3.741,0,0,0-.583-.031h-.629l-.513,1.8h.55a.733.733,0,0,0,.534-.159,1.5,1.5,0,0,0,.29-.525h.134l-.464,1.606h-.153a1.828,1.828,0,0,0,.061-.238.969.969,0,0,0,.018-.159.3.3,0,0,0-.1-.253.6.6,0,0,0-.349-.076H86.99l-.445,1.538a.974.974,0,0,0-.061.269.17.17,0,0,0,.11.177,1.5,1.5,0,0,0,.452.043,1.981,1.981,0,0,0,.91-.143,3.236,3.236,0,0,0,.308-.2,1.391,1.391,0,0,0,.15-.147,1.357,1.357,0,0,0,.153-.2q.067-.11.189-.348l.122.018-.354,1.215H85.269Zm-6.15-.171-.044-.879-.072-.9L79,111.3a.383.383,0,0,0-.134-.239.406.406,0,0,0-.267-.092,1.218,1.218,0,0,0-.215.031l.043-.147.934-.238.091.134a.89.89,0,0,1,.095.241,1.516,1.516,0,0,1,.034.351v.232l.122,1.838c.187-.236.339-.431.455-.588s.276-.385.479-.685a1.433,1.433,0,0,0,.305-.7.171.171,0,0,0-.11-.158l-.128-.043a.273.273,0,0,1-.165-.275.344.344,0,0,1,.095-.246.309.309,0,0,1,.235-.1.313.313,0,0,1,.253.113.484.484,0,0,1,.095.319,1.454,1.454,0,0,1-.1.5,5.176,5.176,0,0,1-.476.854,11.948,11.948,0,0,1-.861,1.161l-.721.872a2.933,2.933,0,0,1-.562.567.841.841,0,0,1-.482.165.367.367,0,0,1-.25-.085.286.286,0,0,1-.1-.226.356.356,0,0,1,.089-.253.3.3,0,0,1,.229-.095h.085a.124.124,0,0,1,.085.051q.025.038.043.073c.012.023.027.056.043.1s.057.061.122.061a.342.342,0,0,0,.226-.089,2.308,2.308,0,0,0,.232-.235l.183-.211q.055-.064.189-.241Zm-2.866-.079a1.931,1.931,0,0,1-.36.339.558.558,0,0,1-.311.1.428.428,0,0,1-.3-.1.332.332,0,0,1-.113-.259,1.55,1.55,0,0,1,.057-.287l.876-3.059a1.082,1.082,0,0,0,.056-.306q0-.256-.238-.256h-.122l.043-.14,1.069-.178-1.105,3.831-.049.183a.528.528,0,0,0-.024.116q0,.1.1.1.116,0,.317-.214l.122-.147.067-.073.116.079Zm-2.885-4.14a.353.353,0,0,1,.25.1.329.329,0,0,1,.1.25.361.361,0,0,1-.107.266.354.354,0,0,1-.26.107.361.361,0,0,1-.247-.089.29.29,0,0,1-.1-.229.41.41,0,0,1,.107-.284A.33.33,0,0,1,73.411,109.419Zm-1,4.592a.335.335,0,0,1-.238-.086.3.3,0,0,1-.092-.232,1.3,1.3,0,0,1,.05-.3l.549-1.893.036-.147a.612.612,0,0,0,.032-.177.211.211,0,0,0-.238-.238h-.122l.043-.14,1.05-.183-.745,2.6q-.012.049-.036.14a.6.6,0,0,0-.024.122q0,.11.1.11a.188.188,0,0,0,.107-.03,1.024,1.024,0,0,0,.144-.134l.128-.134.079-.1.128.1a3.283,3.283,0,0,1-.522.559A.693.693,0,0,1,72.41,114.011ZM66.022,111.5l.023-.147.029-.177a.213.213,0,0,0-.238-.244h-.122l.055-.135,1.062-.184-.425,1.5q.165-.258.272-.415t.506-.62a1.183,1.183,0,0,1,.912-.464.331.331,0,0,1,.244.092.346.346,0,0,1,.092.253,2.075,2.075,0,0,1-.079.486l-.212.7q.2-.295.311-.457c.078-.109.183-.243.315-.405a2.366,2.366,0,0,1,.523-.457,1.079,1.079,0,0,1,.563-.215.316.316,0,0,1,.251.106A.4.4,0,0,1,70.2,111a1.505,1.505,0,0,1-.055.352l-.537,1.875-.043.171-.036.134a.07.07,0,0,0,.079.079q.208,0,.507-.4l.116.086q-.453.708-.9.708a.354.354,0,0,1-.264-.1.374.374,0,0,1-.1-.272.821.821,0,0,1,.013-.153,1.646,1.646,0,0,1,.07-.239l.529-1.824a1.525,1.525,0,0,0,.041-.207.148.148,0,0,0-.165-.169.846.846,0,0,0-.567.365,6.582,6.582,0,0,0-.6.8,2.715,2.715,0,0,0-.338.671l-.31,1.07h-.565l.729-2.541.059-.231c0-.111-.053-.167-.159-.167q-.232,0-.583.393a5.674,5.674,0,0,0-.6.8,2.944,2.944,0,0,0-.33.675l-.305,1.075h-.571Zm-4.945,1.526v.061q0,.482.372.482a.747.747,0,0,0,.464-.223,2.418,2.418,0,0,0,.47-.574,3.648,3.648,0,0,0,.348-.76,2.263,2.263,0,0,0,.134-.678.651.651,0,0,0-.1-.379.313.313,0,0,0-.27-.141.759.759,0,0,0-.5.253,2.756,2.756,0,0,0-.49.65,4.223,4.223,0,0,0-.328.711A1.9,1.9,0,0,0,61.077,113.028Zm2.039-2.381h.543l-.739,2.577-.043.152-.012.1c0,.065.028.1.085.1q.177,0,.519-.458l.122.085a2.26,2.26,0,0,1-.491.6.8.8,0,0,1-.5.211.315.315,0,0,1-.232-.091.322.322,0,0,1-.091-.238,1.3,1.3,0,0,1,.061-.33l.091-.324q-.22.289-.317.4a2.676,2.676,0,0,1-.25.249,1.45,1.45,0,0,1-.369.233.928.928,0,0,1-.376.1.551.551,0,0,1-.458-.232.979.979,0,0,1-.177-.61,2.131,2.131,0,0,1,.1-.641,3.818,3.818,0,0,1,.369-.775,2.835,2.835,0,0,1,.705-.788,1.369,1.369,0,0,1,.818-.342q.391,0,.507.476Zm-7.465,3.163h.068a.588.588,0,0,0,.3-.072.581.581,0,0,0,.178-.151,1.02,1.02,0,0,0,.111-.272l.03-.115.863-3.011.03-.128a.378.378,0,0,0,.012-.112q0-.261-.348-.26h-.1l.037-.14h2.925l-.293,1.044H59.31q.037-.134.055-.223a.793.793,0,0,0,.018-.162.368.368,0,0,0-.147-.327.776.776,0,0,0-.257-.125,2,2,0,0,0-.379-.024h-.7l-.514,1.794h.367a2.333,2.333,0,0,0,.4-.021.55.55,0,0,0,.211-.1.636.636,0,0,0,.175-.2,1.829,1.829,0,0,0,.137-.357h.147l-.458,1.587h-.165a1.132,1.132,0,0,0,.092-.379.283.283,0,0,0-.119-.262.919.919,0,0,0-.442-.073h-.391l-.453,1.594a.834.834,0,0,0-.049.226.217.217,0,0,0,.119.2.73.73,0,0,0,.351.067h.11l-.037.14H55.609Zm-6.21-1.472a1.68,1.68,0,0,0,.421-.043,2.593,2.593,0,0,0,.449-.189,1.17,1.17,0,0,0,.614-.721.911.911,0,0,0,.049-.275.331.331,0,0,0-.082-.235.289.289,0,0,0-.223-.088.922.922,0,0,0-.662.436A3.548,3.548,0,0,0,49.442,112.338Zm-.092.641a.746.746,0,0,0,.171.519.617.617,0,0,0,.482.189,1.157,1.157,0,0,0,.672-.226,1.694,1.694,0,0,0,.348-.324l.134.1a2.844,2.844,0,0,1-.256.3,3.054,3.054,0,0,1-.406.3,1.343,1.343,0,0,1-.754.2.869.869,0,0,1-.69-.3,1.18,1.18,0,0,1-.263-.8,2.292,2.292,0,0,1,.3-1.108,2.608,2.608,0,0,1,.748-.876,1.55,1.55,0,0,1,.922-.324.75.75,0,0,1,.489.159.5.5,0,0,1,.2.409,1.1,1.1,0,0,1-.574.937,2.6,2.6,0,0,1-1.453.375A2.726,2.726,0,0,0,49.351,112.979Zm-4.576-2.687.055-.147a.285.285,0,0,0,.015-.055.5.5,0,0,0,.009-.1c0-.172-.079-.257-.238-.257H44.5l.037-.14,1.052-.178-.79,2.756q.153-.256.226-.366t.522-.647a1.262,1.262,0,0,1,.956-.537.327.327,0,0,1,.257.11.416.416,0,0,1,.1.287,2.1,2.1,0,0,1-.063.343l-.532,1.85-.053.17a.337.337,0,0,0-.03.134q0,.1.085.1a.36.36,0,0,0,.107-.018.264.264,0,0,0,.107-.067l.1-.107q.055-.058.177-.211l.122.067a3.569,3.569,0,0,1-.327.433.725.725,0,0,1-.571.287.327.327,0,0,1-.366-.373.749.749,0,0,1,.018-.143q.018-.089.049-.2l.507-1.783.053-.215.02-.121q0-.128-.153-.128-.281,0-.745.556l-.324.421-.269.464a2.767,2.767,0,0,0-.2.409l-.3,1.07H43.73Zm-5.519,3.517h.063a.844.844,0,0,0,.368-.069.561.561,0,0,0,.207-.158.963.963,0,0,0,.12-.27l.049-.157.974-3.408h-.463a.881.881,0,0,0-.612.2,1.909,1.909,0,0,0-.311.334,2.729,2.729,0,0,0-.2.406h-.128l.33-1.142H43.11l-.33,1.142h-.153a2.147,2.147,0,0,0,.055-.235,1.112,1.112,0,0,0,.012-.167q0-.539-.647-.538h-.433l-1.026,3.566a.938.938,0,0,0-.043.232q0,.263.427.263h.1l-.037.14H39.215Z"/>
<path d="M162.972,112.338a1.68,1.68,0,0,0,.421-.043,2.594,2.594,0,0,0,.449-.189,1.171,1.171,0,0,0,.614-.721.91.91,0,0,0,.049-.275.331.331,0,0,0-.082-.235.29.29,0,0,0-.223-.088.922.922,0,0,0-.662.436,3.547,3.547,0,0,0-.565,1.114m-.092.641a.747.747,0,0,0,.171.519.617.617,0,0,0,.482.189,1.157,1.157,0,0,0,.672-.226,1.7,1.7,0,0,0,.348-.324l.134.1a2.844,2.844,0,0,1-.257.3,3.05,3.05,0,0,1-.406.3,1.343,1.343,0,0,1-.754.2.869.869,0,0,1-.69-.3,1.18,1.18,0,0,1-.263-.8,2.291,2.291,0,0,1,.3-1.108,2.606,2.606,0,0,1,.748-.876,1.55,1.55,0,0,1,.922-.324.75.75,0,0,1,.489.159.5.5,0,0,1,.2.409,1.1,1.1,0,0,1-.574.937,2.605,2.605,0,0,1-1.453.375A2.723,2.723,0,0,0,162.88,112.979Zm-4.912-1.478.029-.147.032-.184a.205.205,0,0,0-.232-.232h-.128l.043-.14,1.062-.184-.436,1.529c.13-.2.234-.36.311-.468s.248-.311.515-.612a1.148,1.148,0,0,1,.857-.45.382.382,0,0,1,.261.092.3.3,0,0,1,.1.232,1.335,1.335,0,0,1-.021.2,2.536,2.536,0,0,1-.058.267l-.507,1.777-.055.177-.037.159c0,.069.032.1.1.1q.2,0,.5-.428l.11.073a1.877,1.877,0,0,1-.43.519.747.747,0,0,1-.461.2q-.36,0-.36-.391l.018-.165.075-.238.468-1.642c.02-.077.039-.148.055-.212a.631.631,0,0,0,.024-.144.151.151,0,0,0-.049-.11.159.159,0,0,0-.116-.05c-.159,0-.357.137-.6.41a6.246,6.246,0,0,0-.6.8,2.792,2.792,0,0,0-.311.617l-.312,1.093h-.559Zm-2.415-2.082a.353.353,0,0,1,.25.1.329.329,0,0,1,.1.25.361.361,0,0,1-.107.266.354.354,0,0,1-.26.107.361.361,0,0,1-.247-.089.29.29,0,0,1-.1-.229.41.41,0,0,1,.107-.284A.33.33,0,0,1,155.553,109.419Zm-1,4.592a.335.335,0,0,1-.238-.086.3.3,0,0,1-.092-.232,1.3,1.3,0,0,1,.05-.3l.549-1.893.036-.147a.611.611,0,0,0,.032-.177.211.211,0,0,0-.238-.238h-.122l.043-.14,1.05-.183-.745,2.6c-.008.033-.02.079-.037.14a.607.607,0,0,0-.024.122q0,.11.1.11a.188.188,0,0,0,.107-.03,1.024,1.024,0,0,0,.144-.134l.128-.134.079-.1.128.1a3.279,3.279,0,0,1-.522.559A.693.693,0,0,1,154.551,114.011Zm-4.825-.241L152,111.1h-1.069a.262.262,0,0,0-.113.027c-.039.019-.085.045-.137.077a.925.925,0,0,0-.159.152,1.214,1.214,0,0,0-.128.244h-.128l.275-.959h2.1l-2.406,2.809h1.215a.334.334,0,0,0,.122-.021,1.223,1.223,0,0,0,.15-.077.535.535,0,0,0,.152-.13,1.08,1.08,0,0,0,.125-.235h.134l-.281.959h-2.168Zm-4.133-.742v.061q0,.482.372.482a.747.747,0,0,0,.464-.223,2.42,2.42,0,0,0,.47-.574,3.648,3.648,0,0,0,.348-.76,2.26,2.26,0,0,0,.134-.678.651.651,0,0,0-.1-.379.313.313,0,0,0-.27-.141.759.759,0,0,0-.5.253,2.756,2.756,0,0,0-.49.65,4.228,4.228,0,0,0-.328.711A1.9,1.9,0,0,0,145.594,113.028Zm2.039-2.381h.543l-.739,2.577-.043.152-.012.1q0,.1.086.1.177,0,.519-.458l.122.085a2.262,2.262,0,0,1-.492.6.8.8,0,0,1-.5.211.314.314,0,0,1-.232-.091.322.322,0,0,1-.092-.238,1.3,1.3,0,0,1,.061-.33l.091-.324q-.22.289-.317.4a2.667,2.667,0,0,1-.25.249,1.448,1.448,0,0,1-.369.233.928.928,0,0,1-.376.1.551.551,0,0,1-.458-.232.979.979,0,0,1-.177-.61,2.13,2.13,0,0,1,.1-.641,3.816,3.816,0,0,1,.369-.775,2.833,2.833,0,0,1,.705-.788,1.368,1.368,0,0,1,.818-.342q.391,0,.507.476Zm-6.555,3.047a2.208,2.208,0,0,0-.394.382.516.516,0,0,0-.107.3.487.487,0,0,0,.254.424,1.24,1.24,0,0,0,.675.162,1.412,1.412,0,0,0,.721-.165.484.484,0,0,0,.281-.421q0-.36-.494-.464l-.385-.079q-.183-.037-.293-.064T141.078,113.693Zm.189-1.783v.159a.5.5,0,0,0,.128.348.433.433,0,0,0,.336.14.7.7,0,0,0,.366-.1,1.285,1.285,0,0,0,.369-.424,1.37,1.37,0,0,0,.2-.736.534.534,0,0,0-.132-.388.487.487,0,0,0-.37-.137.717.717,0,0,0-.565.321A1.758,1.758,0,0,0,141.268,111.91Zm-.537,1.368q0-.3.672-.6a1.931,1.931,0,0,1-.29-.134,1.289,1.289,0,0,1-.25-.223.673.673,0,0,1-.15-.473,1.134,1.134,0,0,1,.443-.876,1.5,1.5,0,0,1,1.011-.382c.041,0,.072,0,.095,0s.084.012.186.03a1.223,1.223,0,0,1,.4.18h.849l-.1.33h-.513a1.1,1.1,0,0,1,.116.407,1.089,1.089,0,0,1-.4.827,1.333,1.333,0,0,1-.922.359h-.251q-.043.025-.1.067l-.165.116a.233.233,0,0,0-.1.2.157.157,0,0,0,.095.147,1.362,1.362,0,0,0,.357.092c.175.028.291.049.348.061s.223.064.5.156a.556.556,0,0,1,.412.577.856.856,0,0,1-.44.727,1.9,1.9,0,0,1-1.081.293,2.01,2.01,0,0,1-.94-.183.56.56,0,0,1-.342-.507.665.665,0,0,1,.22-.44,2.029,2.029,0,0,1,.574-.409,1.067,1.067,0,0,1-.171-.183A.28.28,0,0,1,140.73,113.278Z"/>
<path d="M61.973,97.143c-1.566,5.66-3.583,8.491-4.7,8.491-.6,0-1.054-.9-1.054-2.589,0-4.034,1.837-6.985,4.065-6.985a2.228,2.228,0,0,1,1.686,1.084m2.83-9.785H63.6l-1.385,9.213A2.792,2.792,0,0,0,60.2,95.517c-2.77,0-5.42,3.553-5.42,7.557,0,2.138.753,3.342,1.957,3.342,1.806,0,3.372-2.348,5.179-7.075l.12.06a30.94,30.94,0,0,0-.843,5.42c0,1.054.422,1.626,1.054,1.626.843,0,1.6-.873,2.348-2.589l-.331-.151c-.662,1.235-1.144,1.867-1.535,1.867-.271,0-.361-.241-.361-.662a10.379,10.379,0,0,1,.12-1.746ZM53.344,89.616a9.88,9.88,0,0,0,.151-1.144c0-.964-.512-1.536-1.2-1.536-.933,0-1.716.933-2.318,2.74l.361.12c.512-1.325.933-2.017,1.385-2.017.331,0,.482.271.482.783a7.184,7.184,0,0,1-.09.933l-2.5,15.084a5.673,5.673,0,0,0-.09.9.86.86,0,0,0,.963.963c1.114,0,1.9-.813,2.559-2.529l-.331-.151c-.6,1.295-1.114,1.927-1.475,1.927a.383.383,0,0,1-.421-.361,4.868,4.868,0,0,1,.09-.994Zm-17.6,16.439c-5.48,0-8.792-3.553-8.792-9.454,0-6.835,4.095-11.2,10.207-11.2,5.359,0,8.731,3.673,8.731,9.695C45.89,101.75,41.915,106.055,35.743,106.055Zm.03.542a11.555,11.555,0,0,0,8.882-3.583A11.4,11.4,0,0,0,47.7,95.006c0-6.142-4-10.177-10.207-10.177A12.263,12.263,0,0,0,28.337,88.5a11.918,11.918,0,0,0-3.191,8.159C25.145,102.774,29.119,106.6,35.773,106.6Z"/>
<path d="M177.176,100.545c.361-3.221.873-4.486,2.589-4.486.422,0,.873.06,1.415.06h.271c-.3,3.252-.391,4.516-2.258,4.516-1.024,0-1.686-.06-2.017-.09m4.757,3.4-.3-.211a3.168,3.168,0,0,1-3.041,1.9c-1.235,0-1.716-.572-1.716-1.927,0-.693.12-1.6.241-2.74.994.06,1.686.12,2.077.12,1.746,0,2.68-.542,2.951-1.686.241-1.024.211-2.288.542-3.7l-.181-.181a4.765,4.765,0,0,1-.963.09c-.512,0-1.054-.09-1.6-.09a3.238,3.238,0,0,0-3.252,1.867,15.578,15.578,0,0,0-1.114,6.262c0,1.9.843,2.77,2.74,2.77A3.892,3.892,0,0,0,181.933,103.948ZM167.1,102.834a2.241,2.241,0,0,0-.271.963c0,1.445,1.325,2.65,3.342,2.65a3.22,3.22,0,0,0,3.282-3.222c0-1.084-.632-1.837-1.867-2.71-1.6-1.114-2.619-1.716-2.619-2.86A1.826,1.826,0,0,1,171.016,96a2.635,2.635,0,0,1,1.054.211,2.128,2.128,0,0,0,1.746,2.379,3.321,3.321,0,0,0,.151-.873c0-1.295-1.114-2.2-2.89-2.2a2.987,2.987,0,0,0-3.1,2.8c0,1.475,1.114,2.2,2.71,3.312,1.174.813,1.837,1.355,1.837,2.318a2.142,2.142,0,0,1-2.318,2.047,3.281,3.281,0,0,1-1.536-.421,2.914,2.914,0,0,0,.09-.692A1.946,1.946,0,0,0,167.1,102.834Zm-3.932-4.155c-2.92,4.456-4.637,6.744-5.269,6.744-.181,0-.271-.151-.271-.422a34.236,34.236,0,0,1,.572-4.215c.361-2.168.693-3.583.693-4.276,0-.632-.3-.993-.843-.993-.963,0-2.017,1.084-2.68,3.222l.361.151c.572-1.536,1.054-2.318,1.566-2.318.151,0,.241.181.241.482,0,2.318-1.144,5.419-1.144,8.219,0,.693.271,1.084.723,1.084,1.445,0,3.071-2.349,5.841-6.654a36.413,36.413,0,0,0-.843,5.118c0,1.054.482,1.656,1.2,1.656.9,0,1.686-.9,2.409-2.68l-.421-.181c-.542,1.385-1.084,2.047-1.445,2.047-.271,0-.452-.271-.452-.783a77.568,77.568,0,0,1,1.6-9.243l-1.325.151Zm-12.664-2.74c1.536,0,2.288,1.2,2.288,3.583,0,4.185-1.355,6.533-3.312,6.533-1.505,0-2.288-1.265-2.288-3.733C147.195,98.257,148.61,95.939,150.506,95.939Zm-.03-.421c-2.439,0-4.727,2.619-4.727,6.232,0,2.83,1.626,4.7,3.824,4.7,2.318,0,4.667-2.83,4.667-6.293C154.24,97.354,152.674,95.517,150.476,95.517Zm-5.859,8.25-.331-.12c-.6,1.355-1.2,2.017-1.566,2.017a.374.374,0,0,1-.391-.361c0-.181.06-.512.12-.994l.933-6.293a8.666,8.666,0,0,0,.09-1.084c0-.873-.482-1.415-1.2-1.415-1.867,0-3.191,3.161-5.57,9.364l-.151-.03c.964-9.063,2.348-14.452,2.348-16.379,0-.934-.512-1.536-1.114-1.536-.933,0-1.716.933-2.318,2.74l.391.12c.512-1.325.933-2.017,1.385-2.017.3,0,.452.271.452.783,0,.542-.482,3.282-1.265,8.219-.662,4.125-1.114,6.654-1.114,7.647,0,1.325.3,1.987.693,1.987.482,0,.964-1.2,1.837-3.342,1.776-4.426,2.83-6.654,3.854-6.654.391,0,.572.241.572.692a2.92,2.92,0,0,1-.06.6l-.994,6.835a4.4,4.4,0,0,0-.09.662,1.07,1.07,0,0,0,1.114,1.2C143.052,106.417,143.955,105.513,144.617,103.767ZM133.158,89.616a9.89,9.89,0,0,0,.151-1.144c0-.964-.512-1.536-1.2-1.536-.933,0-1.716.933-2.318,2.74l.361.12c.512-1.325.933-2.017,1.385-2.017.331,0,.482.271.482.783a7.179,7.179,0,0,1-.091.933l-2.5,15.084a5.682,5.682,0,0,0-.09.9.86.86,0,0,0,.963.963c1.114,0,1.9-.813,2.559-2.529l-.331-.151c-.6,1.295-1.114,1.927-1.475,1.927a.383.383,0,0,1-.422-.361,4.868,4.868,0,0,1,.09-.994Zm-9.382,6.323c1.536,0,2.288,1.2,2.288,3.583,0,4.185-1.355,6.533-3.312,6.533-1.505,0-2.288-1.265-2.288-3.733C120.464,98.257,121.879,95.939,123.776,95.939Zm-.03-.421c-2.439,0-4.727,2.619-4.727,6.232,0,2.83,1.626,4.7,3.824,4.7,2.318,0,4.667-2.83,4.667-6.293C127.51,97.354,125.944,95.517,123.746,95.517Zm-9.532.421c1.536,0,2.288,1.2,2.288,3.583,0,4.185-1.355,6.533-3.312,6.533-1.505,0-2.288-1.265-2.288-3.733C110.9,98.257,112.317,95.939,114.214,95.939Zm-.03-.421c-2.439,0-4.727,2.619-4.727,6.232,0,2.83,1.626,4.7,3.824,4.7,2.318,0,4.667-2.83,4.667-6.293C117.947,97.354,116.382,95.517,114.184,95.517Zm-5.859,8.25-.331-.12c-.6,1.355-1.2,2.017-1.566,2.017a.374.374,0,0,1-.391-.361c0-.181.06-.512.12-.994l.933-6.293a8.666,8.666,0,0,0,.09-1.084c0-.873-.482-1.415-1.2-1.415-1.867,0-3.191,3.161-5.57,9.364l-.151-.03c.964-9.063,2.348-14.452,2.348-16.379,0-.934-.512-1.536-1.114-1.536-.933,0-1.716.933-2.318,2.74l.391.12c.512-1.325.933-2.017,1.385-2.017.3,0,.452.271.452.783,0,.542-.482,3.282-1.265,8.219-.662,4.125-1.114,6.654-1.114,7.647,0,1.325.3,1.987.693,1.987.482,0,.964-1.2,1.837-3.342,1.776-4.426,2.83-6.654,3.854-6.654.391,0,.572.241.572.692a2.92,2.92,0,0,1-.06.6l-.994,6.835a4.4,4.4,0,0,0-.09.662,1.07,1.07,0,0,0,1.114,1.2C106.759,106.417,107.662,105.513,108.324,103.767Zm-11.459-.12-.331-.181c-.873,1.445-1.6,2.047-2.77,2.047-1.445,0-2.047-.723-2.047-2.379,0-4.637,1.054-7.045,3.011-7.045a2.223,2.223,0,0,1,.572.091c.03,1.114.6,1.776,1.445,1.776a2.025,2.025,0,0,0,.542-.09,1.459,1.459,0,0,0,.03-.361c0-1.174-.873-1.987-2.379-1.987-2.65,0-4.637,2.74-4.637,7.437,0,2.288.9,3.4,2.8,3.4A4.133,4.133,0,0,0,96.865,103.647ZM75.32,98.076c-2.017.632-3.071,1.837-3.071,3.432,0,2.619,3.342,5.118,7.949,5.118,4.546,0,7.5-2.71,7.5-5.871a4.959,4.959,0,0,0-2.228-4.125,35.265,35.265,0,0,0-5.179-2.68c-3.071-1.475-4.667-2.619-4.667-4.577,0-2.138,1.957-3.824,5.088-3.824,3.583,0,6.172,2.228,6.172,4.456a2.473,2.473,0,0,1-1.265,2.047l.241.331A3.692,3.692,0,0,0,88.116,89.1c0-2.439-2.439-4.275-6.473-4.275-4.275,0-7.106,2.439-7.106,5.359a4.089,4.089,0,0,0,1.415,3.131c1.385,1.2,3.764,2.258,6.925,3.794,2.469,1.2,3.643,2.378,3.643,4.245,0,2.559-2.469,4.727-5.9,4.727a7.839,7.839,0,0,1-4.938-1.746,4.673,4.673,0,0,1-1.957-3.432A2.637,2.637,0,0,1,75.5,98.468Z"/>
<path d="M26.844,92.569c.171-1.522.412-2.119,1.223-2.119.2,0,.412.028.668.028h.128c-.142,1.536-.185,2.133-1.067,2.133-.484,0-.8-.028-.953-.043m2.247,1.607-.142-.1a1.5,1.5,0,0,1-1.437.9c-.583,0-.811-.27-.811-.91,0-.327.057-.754.114-1.294.469.028.8.057.981.057.825,0,1.266-.256,1.394-.8.114-.484.1-1.081.256-1.749l-.085-.085a2.254,2.254,0,0,1-.455.043c-.242,0-.5-.043-.754-.043a1.529,1.529,0,0,0-1.536.882,7.355,7.355,0,0,0-.526,2.958c0,.9.4,1.309,1.294,1.309A1.839,1.839,0,0,0,29.091,94.176Zm-2.631-.086-.157-.057c-.284.64-.569.953-.74.953a.177.177,0,0,1-.185-.171c0-.085.028-.242.057-.469l.441-2.973a4.076,4.076,0,0,0,.043-.512c0-.412-.227-.668-.569-.668-.882,0-1.508,1.493-2.631,4.423l-.071-.014c.455-4.281,1.109-6.827,1.109-7.737,0-.441-.242-.726-.526-.726-.441,0-.811.441-1.1,1.294l.185.057c.242-.626.441-.953.654-.953.142,0,.213.128.213.37s-.228,1.55-.6,3.883c-.313,1.949-.526,3.143-.526,3.613,0,.626.142.939.327.939.228,0,.455-.569.868-1.579C24.1,91.673,24.6,90.62,25.08,90.62c.185,0,.27.114.27.327a1.38,1.38,0,0,1-.028.284l-.469,3.229a2.1,2.1,0,0,0-.043.313.505.505,0,0,0,.526.569C25.72,95.342,26.147,94.916,26.46,94.091ZM16.29,95.385a10.468,10.468,0,0,1,1.565-.156,13.375,13.375,0,0,1,1.764.128l.029-.27c-.5-.057-.9-.114-1.223-.142l1.152-6.912a4.357,4.357,0,0,1,.413-1.408l.412.1a6.356,6.356,0,0,0,1.223.228c.512,0,.839-.469,1.18-1.437l-.2-.071c-.256.583-.469.839-.9.839a11.3,11.3,0,0,1-2.048-.484,12.46,12.46,0,0,0-2.517-.654,3.408,3.408,0,0,0-1.806.882,3.442,3.442,0,0,0-1,2.29,2.54,2.54,0,0,0,.811,1.892l.156-.142a2.607,2.607,0,0,1-.7-1.821,2.339,2.339,0,0,1,2.29-2.432,10.54,10.54,0,0,1,1.977.455l.8.256a3.868,3.868,0,0,0-1,2.432l-1,5.988a12.5,12.5,0,0,0-1.422.171Z"/>
<path d="M185.338,95.651h0a1.094,1.094,0,0,1-1.542.005h0l-.005-.005a1.094,1.094,0,1,1,1.548-1.548l.005.005h0a1.093,1.093,0,0,1,0,1.542m-.774.122a.892.892,0,0,0,.633-.262h0a.895.895,0,0,0,0-1.264h0l0,0a.9.9,0,1,0-1.266,1.266l0,0h0a.893.893,0,0,0,.631.26Z"/>
<path class="cls-2" d="M184.737,94.676a.2.2,0,0,0-.018-.091.142.142,0,0,0-.047-.055.177.177,0,0,0-.067-.028.409.409,0,0,0-.077-.007h-.114v.388h.122a.209.209,0,0,0,.151-.049.212.212,0,0,0,.051-.158m.13-.283a.285.285,0,0,1,.09.107.377.377,0,0,1,.034.171.391.391,0,0,1-.07.245.33.33,0,0,1-.118.1l.236.423h-.264l-.2-.378h-.159v.378h-.251V94.322h.423a.748.748,0,0,1,.151.016A.344.344,0,0,1,184.867,94.393Z"/>
</svg>
