<svg xmlns="http://www.w3.org/2000/svg" width="36" height="36"><g fill="none" fill-rule="evenodd"><path fill="#FFF" fill-opacity="0" fill-rule="nonzero" d="M0 0h36v36H0z"/><path fill="#000" d="M25.087 31.5H10.914A6.413 6.413 0 014.5 25.087V10.912A6.413 6.413 0 0110.914 4.5h14.173a6.413 6.413 0 016.413 6.412v14.175a6.413 6.413 0 01-6.413 6.413"/><path fill="#00F2EA" d="M16.238 15.911v-.868a6.734 6.734 0 00-.91-.066 6.758 6.758 0 00-6.75 6.751 6.75 6.75 0 002.88 5.528 6.733 6.733 0 01-1.813-4.596c0-3.67 2.943-6.663 6.593-6.749"/><path fill="#00F2EA" d="M27.183 13.064v-.817a5.076 5.076 0 01-2.78-.827 5.106 5.106 0 002.78 1.644M16.398 25.742a3.085 3.085 0 003.077-2.968l.006-14.7h2.685a5.084 5.084 0 01-.086-.93h-3.669l-.006 14.7a3.082 3.082 0 01-3.075 2.966 3.058 3.058 0 01-1.43-.354 3.074 3.074 0 002.5 1.285"/><path fill="#FF004F" d="M15.328 18.645a3.088 3.088 0 00-3.084 3.084 3.091 3.091 0 001.653 2.728 3.07 3.07 0 01-.583-1.798 3.087 3.087 0 013.084-3.083c.318 0 .622.051.909.143v-3.746a6.925 6.925 0 00-.91-.066c-.053 0-.104.003-.16.005v2.875a3.003 3.003 0 00-.909-.142m9.077-7.224a5.083 5.083 0 01-1.256-3.345h-.982a5.108 5.108 0 002.238 3.345"/><path fill="#FF004F" d="M27.183 13.064v2.85a8.718 8.718 0 01-5.103-1.64v7.454a6.759 6.759 0 01-6.751 6.752 6.718 6.718 0 01-3.869-1.224 6.735 6.735 0 004.938 2.154 6.76 6.76 0 006.752-6.752v-7.453a8.713 8.713 0 005.103 1.64v-3.667c-.368 0-.725-.04-1.07-.113"/><path fill="#FFF" d="M22.08 21.728v-7.455a8.727 8.727 0 005.103 1.643v-2.852a5.097 5.097 0 01-2.778-1.644 5.105 5.105 0 01-2.238-3.345h-2.685l-.006 14.7a3.086 3.086 0 01-3.078 2.967 3.082 3.082 0 01-2.5-1.285 3.086 3.086 0 01-1.654-2.729 3.09 3.09 0 013.084-3.084c.318 0 .623.053.909.144v-2.877c-3.648.086-6.591 3.078-6.591 6.749 0 1.774.69 3.39 1.814 4.596a6.713 6.713 0 003.868 1.224 6.76 6.76 0 006.752-6.752"/></g></svg>