<?xml version="1.0" encoding="UTF-8"?>
<svg id="a" data-name="Layer 1" viewBox="0 0 200 200" xmlns="http://www.w3.org/2000/svg">
<defs>
<style>.cls-1{fill:#f0f0f0;}.cls-2{fill:#1075ba;}.cls-3{fill:#25aae0;}</style>
</defs>
<title>toynews</title>
<rect class="cls-1" width="200" height="200"/>
<path class="cls-2" d="m76 89.06-4.4 10.62-3.85-10.62h-9.61l1.1 2.29a9.3 9.3 0 0 0-6.11-2.29h-5.68a9.3 9.3 0 0 0-8 4.47v-4.47h-4.58v-6.88l-6.55 0.66-1.61 6.22h-3.71v6.46h3.67v9.21c0 2.55 2.06 5.2 4.61 5.2h8.22v-4.48a9.31 9.31 0 0 0 8 4.48h5.68a9.32 9.32 0 0 0 9.32-9.32v-2.24-0.37l5.32 11.11-3.22 7.69 8.53 1 12.09-28.74zm-39.7 15.15a1.38 1.38 0 0 1-1.38-1.38v-7.31h3.72a9.29 9.29 0 0 0-0.45 2.85v2.24a9.18 9.18 0 0 0 0.72 3.6zm17.42-2.63a2.55 2.55 0 0 1-2.55 2.55h-1.58a2.55 2.55 0 0 1-2.59-2.55v-4.26a2.55 2.55 0 0 1 2.55-2.55h1.53a2.55 2.55 0 0 1 2.55 2.55z"/>
<path class="cls-3" d="M165.79,95.41c0-2,8.07-1.27,10-.06l-.08-5.51a34,34,0,0,0-10.52-.78,11.28,11.28,0,0,0-5.82,2.18l.58-2.18h-8.57l-1.93,12.81h-.68l-2.67-12.81H139l-2.67,12.81h-.68l-1.93-12.81h-8.57l.88,3.32a7.63,7.63,0,0,0-5.67-3.32h-4.56a9.42,9.42,0,0,0-9,6.66V93.94a4.88,4.88,0,0,0-4.89-4.88h-3a9.43,9.43,0,0,0-2.12.23C93.53,90,92.18,91,91.27,92v-3H83.65v20.87h8.78V96.68a5.35,5.35,0,0,1,3.85-1.5h0a1.65,1.65,0,0,1,1.59,1.65v13.09h8.87v-6.59c1.16,3.68,4.63,6.21,8.73,6.9,3.54.59,8.22.32,11.28-1.41a.11.11,0,0,0,.06-.1l0-5.31a.1.1,0,0,0-.13-.11,38.69,38.69,0,0,1-8.94.82,2.8,2.8,0,0,1-2.54-2.55v-.1h12.5a8.46,8.46,0,0,0,0-.87V99.15l2.85,10.78h9.71l1.84-11.72h.63l1.84,11.72h9.71l3.27-12.34c1.62,5.78,10.95,3.76,10.95,5.9,0,1.43-3.54,2.21-11.24.12v5.16C163.31,111,177,111.19,177,103.3,177,94.09,165.79,98.54,165.79,95.41Zm-45.06,2.14h-5.37a.12.12,0,0,1-.11-.12,2.66,2.66,0,0,1,2.66-2.66h.16a2.66,2.66,0,0,1,2.66,2.66Z"/>
</svg>
