<?xml version="1.0" encoding="UTF-8"?>
<svg id="a" data-name="Layer 1" viewBox="0 0 200 200" xmlns="http://www.w3.org/2000/svg">
<defs>
<style>.cls-1{fill:#f0f0f0;}.cls-2{fill:#8cc63f;}.cls-2,.cls-3,.cls-4,.cls-5,.cls-7{fill-rule:evenodd;}.cls-3{fill:#af3984;}.cls-4{fill:#29abe2;}.cls-5{fill:#f89a1c;}.cls-6,.cls-7{fill:#f15a24;}.cls-8{fill:#666;}</style>
</defs>
<title>toysaretools</title>
<rect class="cls-1" width="200" height="200"/>
<path class="cls-2" d="M67.132,65.768a11.674,11.674,0,0,1,7.91,3.078L59.377,84.511v-15.8a11.671,11.671,0,0,1,7.755-2.939"/>
<path class="cls-2" d="m30.584 95.062a17.914 17.914 0 0 0 16.768 13.35v-13.35z"/>
<path class="cls-3" d="M47.352,72.619A17.916,17.916,0,0,0,30.3,93.772H47.352Z"/>
<path class="cls-4" d="m65.718 109.81h-16.633c5.831 6.606 11.047 6.245 16.633 5.877v-5.877"/>
<path class="cls-5" d="M58.087,85.37H48.642V71.964c1.73-2.321,6.2-2.885,9.445-2.92Z"/>
<polygon class="cls-2" points="67.008 86.494 80.982 86.494 90.305 95.492 103.65 108.52 67.008 108.52"/>
<path class="cls-3" d="M82.939,86.494h24.237c5.741,2.267,10.922,15.718-.675,22.029h-1.009Z"/>
<rect class="cls-6" x="48.642" y="86.494" width="17.076" height="22.029"/>
<path class="cls-4" d="M60.509,85.2H93.885V70.616c0-1.329-7.612-7.412-15.194-3.594Z"/>
<path class="cls-5" d="M95.175,85.2h10.009A14.384,14.384,0,0,0,95.175,71.665V85.2"/>
<path class="cls-4" d="m92.1 109.81h12.867c0.4 8.336-7.28 14.957-12.867 14.59v-14.59"/>
<path class="cls-5" d="M67.008,109.813H89.629L79.314,120.128a14.119,14.119,0,0,1-12.306-4.438v-5.877"/>
<polygon class="cls-2" points="90.808 110.46 84.261 117 90.808 123.62"/>
<polygon class="cls-7" points="83.349 117.92 80.024 121.24 89.702 134.23 94.517 134.23 91.924 126.49"/>
<path class="cls-8" d="M126.008,86.122l-.665-1.705c-1.315.774-2.5.642-2.5-1.033V76.449h2.945V74.3h-2.945V69.872h-2.586V74.3H118.4v2.148h1.858v6.843c0,3.736,3.655,4.694,5.752,2.83"/>
<path class="cls-8" d="m136.45 80.607c0 2.468-1.165 4.054-3.154 4.054s-3.154-1.586-3.154-4.054 1.165-4.054 3.154-4.054 3.154 1.586 3.154 4.054m2.853 0c0-3.7-2.419-6.248-6.007-6.248s-6.007 2.546-6.007 6.248 2.419 6.248 6.007 6.248 6.002-2.546 6.002-6.248z"/>
<polygon class="cls-8" points="141.42 94.084 144.08 94.084 152.33 74.522 149.67 74.522 146.21 82.882 142.81 74.522 140.16 74.522 144.91 85.714"/>
<path class="cls-8" d="M153.089,77.538c0,1.828,1.172,3.015,4.257,3.881,2.033.571,2.283,1.093,2.283,1.985,0,.8-.65,1.368-2.021,1.368a5.07,5.07,0,0,1-3.428-1.71L152.5,84.57a6.692,6.692,0,0,0,5.221,2.507c3.039,0,4.561-1.638,4.561-3.809,0-1.965-.962-3.2-3.543-3.95-2.262-.661-3.052-1.185-3.052-1.848,0-.686.46-1.25,1.8-1.25a4.183,4.183,0,0,1,2.964,1.364l1.229-1.463a5.216,5.216,0,0,0-4.089-1.985c-2.788,0-4.508,1.459-4.508,3.4"/>
<path class="cls-8" d="M124.066,106.34c-1.462,0-2.4-.548-2.4-1.668s.937-1.668,2.4-1.668a4.062,4.062,0,0,1,2.788,1.051v1.234a4,4,0,0,1-2.788,1.051m2.788-4.5a5.387,5.387,0,0,0-3.252-1.032c-2.582,0-4.567,1.6-4.567,3.862s1.985,3.862,4.567,3.862a4.406,4.406,0,0,0,3.252-1.257v.983h2.7v-6.97c0-3.039-1.276-5.142-5.184-5.142a6.365,6.365,0,0,0-4.447,1.76l1.222,1.554a5.018,5.018,0,0,1,3.127-1.1c2.057,0,2.586.984,2.586,2.468Z"/>
<path class="cls-8" d="M139.869,96.194c-.229-.023-1.167-.1-1.419-.1a4.277,4.277,0,0,0-3.565,1.769v-1.44H132.41V108.26h2.475v-8.09a4.2,4.2,0,0,1,3.47-1.782c.343,0,.953.023,1.181.046Z"/>
<path class="cls-8" d="M146.5,98.342a2.961,2.961,0,0,1,3.017,2.925h-6.079a3.012,3.012,0,0,1,3.062-2.925m5.957,4.068c0-3.679-2.552-6.372-5.957-6.372-3.474,0-5.893,2.716-5.893,6.3a6.379,6.379,0,0,0,11.324,3.839l-1.9-1.348a3.913,3.913,0,0,1-3.059,1.508,3.434,3.434,0,0,1-3.516-3.017h8.951A6.138,6.138,0,0,0,152.461,102.409Z"/>
<rect class="cls-8" x="155.9" y="103.84" width="2.475" height="25.987"/>
<path class="cls-8" d="M126.008,129.369l-.665-1.7c-1.315.774-2.5.642-2.5-1.034V119.7h2.945v-2.148h-2.945v-4.428h-2.586v4.428H118.4V119.7h1.858v6.844c0,3.735,3.655,4.694,5.752,2.83"/>
<path class="cls-8" d="m136.45 123.85c0 2.468-1.165 4.054-3.154 4.054s-3.154-1.586-3.154-4.054 1.165-4.055 3.154-4.055 3.154 1.586 3.154 4.055m2.853 0c0-3.7-2.419-6.248-6.007-6.248s-6.007 2.546-6.007 6.248 2.419 6.248 6.007 6.248 6.002-2.546 6.002-6.248z"/>
<path class="cls-8" d="m150.42 123.85c0 2.468-1.165 4.054-3.154 4.054s-3.154-1.586-3.154-4.054 1.165-4.055 3.154-4.055 3.154 1.586 3.154 4.055m2.853 0c0-3.7-2.419-6.248-6.007-6.248s-6.007 2.546-6.007 6.248 2.419 6.248 6.007 6.248 6.007-2.546 6.007-6.248z"/>
<path class="cls-8" d="M160.8,120.785c0,1.828,1.172,3.015,4.257,3.882,2.033.571,2.283,1.093,2.283,1.985,0,.8-.65,1.368-2.021,1.368a5.07,5.07,0,0,1-3.428-1.71l-1.675,1.508a6.692,6.692,0,0,0,5.221,2.507c3.039,0,4.561-1.639,4.561-3.809,0-1.965-.962-3.2-3.543-3.95-2.262-.661-3.052-1.185-3.052-1.847,0-.686.46-1.25,1.8-1.25a4.183,4.183,0,0,1,2.964,1.364l1.229-1.463a5.216,5.216,0,0,0-4.089-1.985c-2.788,0-4.508,1.459-4.508,3.4"/>
</svg>
