<?xml version="1.0" encoding="UTF-8"?>
<svg id="a" data-name="Layer 1" viewBox="0 0 200 200" xmlns="http://www.w3.org/2000/svg">
<defs>
<style>.cls-1{fill:#110d0a;}.cls-2{fill:#fff;}.cls-10,.cls-11,.cls-12,.cls-13,.cls-2,.cls-3,.cls-4,.cls-5,.cls-6,.cls-7,.cls-8,.cls-9{fill-rule:evenodd;}.cls-10,.cls-11,.cls-12,.cls-13,.cls-3,.cls-4,.cls-5,.cls-6,.cls-7,.cls-8,.cls-9{fill:#8cc63f;}.cls-4{fill-opacity:0.1;}.cls-5{fill-opacity:0.19;}.cls-6{fill-opacity:0.28;}.cls-7{fill-opacity:0.37;}.cls-8{fill-opacity:0.46;}.cls-9{fill-opacity:0.55;}.cls-10{fill-opacity:0.64;}.cls-11{fill-opacity:0.73;}.cls-12{fill-opacity:0.82;}.cls-13{fill-opacity:0.91;}</style>
</defs>
<title>upload</title>
<rect class="cls-1" width="200" height="200"/>
<path class="cls-2" d="M35,85.812h3.992V98.718c0,1.616.7,2.626,2.313,2.626h7.658c1.614,0,2.313-1.012,2.313-2.626V85.812h3.992v14.209a5.059,5.059,0,0,1-5.042,5.042H40.043A5.058,5.058,0,0,1,35,100.021Z"/>
<path class="cls-2" d="M73.083,90.2a1,1,0,0,0-1.047-.939H61.9V94.5H72.037a1,1,0,0,0,1.047-.939ZM57.9,85.812H73.465c3.038,0,3.611,2.128,3.611,4.4V93.55c0,2.274-.573,4.4-3.611,4.4H61.9v7.033H57.9Z"/>
<path class="cls-2" d="M82.77,104.985H96.808v-3.448H84.884c-.882,0-1.253-.358-1.253-1.253V85.812H79.639v16.041a3.013,3.013,0,0,0,3.131,3.131"/>
<path class="cls-2" d="M107.987,105.6a10.676,10.676,0,0,1-4.654-20.385c1.336-.62,1.138,1.58,1.138.7v3.344a6.584,6.584,0,0,0-3.214,5.639,6.731,6.731,0,0,0,13.46,0,6.584,6.584,0,0,0-3.214-5.639V85.912c0,.881-.2-1.319,1.138-.7a10.676,10.676,0,0,1-4.654,20.385"/>
<path class="cls-3" d="m107.99 94.26a1.33 1.33 0 0 0 1.326 -1.326v-7.505a1.326 1.326 0 0 0 -2.652 0v7.505a1.331 1.331 0 0 0 1.326 1.326"/>
<path class="cls-2" d="M129.941,85.2a3.424,3.424,0,0,1,3.3,2.139c3.3,6.148,5.781,11.33,8.943,17.649h-4.5c-2.467-4.929-4.852-9.781-7.322-14.63-.127-.249-.311-.357-.418-.348-.106-.009-.291.1-.418.348-2.47,4.849-4.855,9.7-7.322,14.63h-4.5c3.162-6.319,5.644-11.5,8.943-17.649a3.424,3.424,0,0,1,3.3-2.139"/>
<path class="cls-2" d="M147.845,85.616H156.1c6.242,0,8.9,4.842,8.9,9.684s-2.651,9.684-8.9,9.684H143.743V85.616Zm0,15.69h4.971c2.872,0,4.886-.339,6.182-1.259s1.874-2.421,1.874-4.746c0-4.648-2.307-6.005-8.056-6.005h-4.971Z"/>
<path class="cls-3" d="M160.519,116.33a2.739,2.739,0,1,0-2.739-2.739,2.739,2.739,0,0,0,2.739,2.739"/>
<path class="cls-4" d="M37.833,116.33a2.739,2.739,0,1,0-2.739-2.739,2.739,2.739,0,0,0,2.739,2.739"/>
<path class="cls-5" d="M50.1,116.33a2.739,2.739,0,1,0-2.739-2.739A2.739,2.739,0,0,0,50.1,116.33"/>
<path class="cls-6" d="M62.37,116.33a2.739,2.739,0,1,0-2.739-2.739,2.739,2.739,0,0,0,2.739,2.739"/>
<path class="cls-7" d="M74.638,116.33a2.739,2.739,0,1,0-2.739-2.739,2.739,2.739,0,0,0,2.739,2.739"/>
<path class="cls-8" d="M86.907,116.33a2.739,2.739,0,1,0-2.739-2.739,2.739,2.739,0,0,0,2.739,2.739"/>
<path class="cls-9" d="M99.176,116.33a2.739,2.739,0,1,0-2.739-2.739,2.739,2.739,0,0,0,2.739,2.739"/>
<path class="cls-10" d="M111.444,116.33a2.739,2.739,0,1,0-2.739-2.739,2.739,2.739,0,0,0,2.739,2.739"/>
<path class="cls-11" d="M123.713,116.33a2.739,2.739,0,1,0-2.739-2.739,2.739,2.739,0,0,0,2.739,2.739"/>
<path class="cls-12" d="M135.981,116.33a2.739,2.739,0,1,0-2.739-2.739,2.739,2.739,0,0,0,2.739,2.739"/>
<path class="cls-13" d="M148.25,116.33a2.739,2.739,0,1,0-2.739-2.739,2.739,2.739,0,0,0,2.739,2.739"/>
</svg>
