<?xml version="1.0" encoding="UTF-8"?>
<svg id="b" data-name="Layer 1" viewBox="0 0 200 200" xmlns="http://www.w3.org/2000/svg">
<defs>
<style>.cls-1{fill:none;}.cls-2{fill:#f0f0f0;}.cls-3{clip-path:url(#a);}</style>
<clipPath id="a">
<rect class="cls-1" x="20" y="83.984" width="160" height="32.032"/>
</clipPath>
</defs>
<title>wired</title>
<rect class="cls-2" width="200" height="200"/>
<path d="M75.576,107.367v3.684H60.361v-3.684h5.445V92.633H60.361V88.949H75.576v3.684H70.131v14.735Z"/>
<g class="cls-3">
<path d="M49.79,88.949H45.626l-3.043,17.457L39.059,90.23c-.16-1.121-.64-1.281-1.6-1.281H35.215c-.961,0-1.441.32-1.6,1.281L30.09,106.406,27.047,88.949H22.563l4.325,20.981c.16.961.48,1.121,1.6,1.121h3.043c.961,0,1.281-.16,1.6-1.121L36.5,94.715l3.364,15.215c.16.961.48,1.121,1.6,1.121h2.883c.961,0,1.441-.16,1.6-1.121Zm2.242,27.067H20V83.984H52.032Z"/>
</g>
<g class="cls-3">
<path d="M104.725,105.285a26,26,0,0,0,.48,5.606h4.325a45.731,45.731,0,0,1-.321-5.926c-.16-3.2-1.121-3.684-3.364-4.164,2.563-.48,3.683-1.6,3.683-5.606,0-3.2-.48-4.484-1.441-5.285-.64-.641-1.762-.961-3.524-.961H91.11v22.1h4.484V102.4h6.246a3.544,3.544,0,0,1,2.242.48c.48.32.64.8.64,2.4m-9.129-6.406V92.793H102.8c.961,0,1.281.16,1.441.32.321.32.64.8.64,2.723s-.321,2.563-.64,2.883c-.16.16-.48.32-1.441.32l-7.207-.16Zm20.341,17.137H83.9V83.984h32.032Z"/>
</g>
<g class="cls-3">
<path d="M155.016,88.949v22.1h10.891c3.043,0,4.8-.48,6.086-1.6,1.6-1.441,2.4-4,2.4-9.449s-.8-8.008-2.4-9.449c-1.281-1.121-3.043-1.6-6.086-1.6ZM169.91,100c0,4.8-.321,5.926-1.281,6.567a4.761,4.761,0,0,1-3.043.641H159.5V92.633h6.086c1.6,0,2.4,0,3.043.641.961.8,1.281,1.922,1.281,6.727M180,116.016H147.968V83.984H180Z"/>
</g>
<path d="M121.862,92.633V88.949h18.9V96h-4V92.633h-7.687v5.285h6.086v3.524h-6.086v5.926h7.848v-3.844h4v7.528H121.862v-3.684h3.043V92.633Z"/>
</svg>
