<?xml version="1.0" encoding="UTF-8"?>
<svg id="a" data-name="Layer 1" viewBox="0 0 200 200" xmlns="http://www.w3.org/2000/svg">
<defs>
<style>.cls-1{fill:#f0f0f0;}.cls-2{fill:#1c1c21;}</style>
</defs>
<title>wsj</title>
<rect class="cls-1" width="200" height="200"/>
<path class="cls-2" d="M87.43,74.968l1.611.306c2.3.46,2.837,1.841,1.764,7.517l-5.59,27.525L79.53,81.181c-.614-2.992-1-5.446,1.535-5.907l1.686-.306V73.587h-14.8v1.381l1,.23c1.535.383,1.765,1.3,2.378,4.219l1.452,6.98-4.493,23.7L62.425,81.181c-.69-3.145-.921-5.523,1.534-5.983l1.152-.23V73.587H50v1.381l1.457.383c1.38.384,2.148,1.074,3.068,5.292l9.741,45.945h3.145L74.032,91.56l7.262,35.029h2.762L93.413,82.1c1-4.679,1.534-6.289,3.375-6.751l1.457-.383V73.587H87.43Z"/>
<path class="cls-2" d="m109.85 75.274c5.523 0 7.594 7.134 8.515 15.8h1.457v-17.487h-0.921c-0.384 1.687-1.074 2.455-2.07 2.455-1.765 0-2.685-2.762-6.9-2.762-6.52 0-10.969 5.446-10.969 12.579 0 12.963 17.258 18.408 17.258 30.374 0 5.445-2.532 8.514-5.983 8.514-5.139 0-8.514-6.058-9.434-15.8h-1.46v17.487h0.921c0.767-2.531 1.764-2.761 2.607-2.761 1.458 0 2.992 3.068 7.44 3.068 6.827 0 12.042-5.906 12.042-14.037 0-15.724-17.257-19.865-17.257-31.294 0-2.453 0.92-6.136 4.754-6.136z"/>
<path class="cls-2" d="M134.124,73.587v1.381l1.917.46c1.534.384,2.379.921,2.379,3.145v36.894c0,5.139-.461,9.28-4.3,9.28-2.455,0-4.3-1.918-4.218-3.3.228-2.379,4.218-2.224,4.525-6.06a3.534,3.534,0,0,0-3.145-4.141c-2.378-.308-5.291,1.686-5.37,5.675-.077,5.139,3.3,9.818,9.051,9.818,6.367,0,11.276-4.3,11.276-12.5V78.649h0c0-2.147.537-2.837,2.069-3.221l1.687-.46V73.587Z"/>
</svg>
