<svg version="1.1" id="Layer_1" xmlns="http://www.w3.org/2000/svg" x="0" y="0" viewBox="0 0 218.7 27.5" xml:space="preserve" width="96" height="96"><style>.st2{opacity:.3}</style><path d="M51.2 16.1l8.3-13.6h3.1v22.8h-4.4V12.6l-5.5 8.9h-3.1l-5.5-8.9v12.7h-4.4V2.5h3.1l8.4 13.6zM70.9 6.4v4.7h7V15h-7v6.3h9.6v3.9h-14V2.5h13.7v3.9h-9.3zM83.8 2.5h4.4v18.9h9.6v3.9h-14V2.5zM110.5 19.2c1.3 1.4 3.3 2.5 5.4 2.5 2 0 3.3-1.2 3.3-2.9 0-2.9-4.2-3.3-7.3-5.1-1.8-1-3.2-2.6-3.2-5.2 0-4.1 3.7-6.4 7.5-6.4 2.3 0 4.5.6 6.6 2.1l-2.3 3.3c-.9-.8-2.4-1.5-3.9-1.5-1.7 0-3.5.7-3.5 2.5 0 3.7 10.5 2.5 10.5 10.2 0 4-3.6 6.8-7.7 6.8-3.1 0-5.9-1.3-8.2-3.4l2.8-2.9zM141 22c-1.9 2.5-4.2 3.5-7.2 3.5-4.9 0-8.5-3.6-8.5-8.2s3.7-8.2 8.5-8.2c2.7 0 5.2 1.3 6.6 3.2l-3 2.6c-.8-1.1-2.1-1.9-3.6-1.9-2.4 0-4.3 1.9-4.3 4.3 0 2.5 1.8 4.3 4.4 4.3 1.7 0 3.1-1 3.8-2.1L141 22zM145.4 1.2c1.5 0 2.8 1.2 2.8 2.7 0 1.5-1.2 2.7-2.8 2.7-1.5 0-2.8-1.2-2.8-2.7 0-1.6 1.3-2.7 2.8-2.7zm2.1 24h-4.2V9.5h4.2v15.7zM165.1 22.7c-1.5 1.8-4 2.8-6.5 2.8-4.7 0-8.3-3.3-8.3-8.2 0-4.4 3-8.2 7.7-8.2 4.4 0 7.5 3.7 7.5 8.1 0 .4 0 .8-.1 1.2h-10.9c.2 2.2 2 3.7 4.3 3.7 1.8 0 3.2-1 4-1.8l2.3 2.4zm-3.9-7.4c-.1-1.4-1.4-2.8-3.1-2.8-1.8 0-3.2 1.3-3.4 2.8h6.5zM168.5 25.2V9.5h4.1v1.3c1.2-1 2.7-1.6 4.5-1.6 2.2 0 4.2 1 5.5 2.5 1 1.2 1.6 2.8 1.6 5.5v8H180v-8.4c0-1.6-.4-2.4-.9-3-.6-.6-1.4-.9-2.4-.9-1.8 0-3.3 1.1-3.8 2v10.3h-4.4zM202.4 22c-1.9 2.5-4.2 3.5-7.2 3.5-4.9 0-8.5-3.6-8.5-8.2s3.7-8.2 8.5-8.2c2.7 0 5.2 1.3 6.6 3.2l-3 2.6c-.8-1.1-2.1-1.9-3.6-1.9-2.4 0-4.3 1.9-4.3 4.3 0 2.5 1.8 4.3 4.4 4.3 1.7 0 3.1-1 3.8-2.1l3.3 2.5zM218.4 22.7c-1.5 1.8-4 2.8-6.5 2.8-4.7 0-8.3-3.3-8.3-8.2 0-4.4 3-8.2 7.7-8.2 4.4 0 7.5 3.7 7.5 8.1 0 .4 0 .8-.1 1.2h-10.9c.2 2.2 2 3.7 4.3 3.7 1.8 0 3.2-1 4-1.8l2.3 2.4zm-4-7.4c-.1-1.4-1.4-2.8-3.1-2.8-1.8 0-3.2 1.3-3.4 2.8h6.5z"/><g><path class="st2" d="M22.6 16.1c-1.3 0-2.4-1.1-2.4-2.4s1.1-2.4 2.4-2.4h2.5v4.8h-2.5zM4.9 16.1c1.3 0 2.4-1.1 2.4-2.4s-1.1-2.4-2.4-2.4H2.4v4.8h2.5zM16.1 4.9c0 1.3-1.1 2.4-2.4 2.4s-2.4-1.1-2.4-2.4V2.4h4.8v2.5zM16.1 22.6c0-1.3-1.1-2.4-2.4-2.4s-2.4 1.1-2.4 2.4v2.5h4.8v-2.5z"/><circle cx="13.8" cy="13.8" r="2.4"/><circle cx="13.8" cy="2.4" r="2.4"/><circle cx="13.8" cy="25.1" r="2.4"/><circle cx="25.1" cy="13.8" r="2.4"/><path class="st2" d="M21.7 25.1c-.9-.9-.9-2.4 0-3.4.9-.9 2.4-.9 3.4 0l1.7 1.7-3.4 3.4-1.7-1.7z"/><circle cx="25.1" cy="25.1" r="2.4"/><path class="st2" d="M5.8 2.4c.9.9.9 2.4 0 3.4s-2.4.9-3.4 0L.7 4.1 4.1.7l1.7 1.7z"/><circle cx="2.4" cy="2.4" r="2.4"/><path class="st2" d="M25.1 5.8c-.9.9-2.4.9-3.4 0-.9-.9-.9-2.4 0-3.4L23.4.7l3.4 3.4-1.7 1.7z"/><circle cx="25.1" cy="2.4" r="2.4"/><g><path class="st2" d="M2.4 21.7c.9-.9 2.4-.9 3.4 0 .9.9.9 2.4 0 3.4l-1.7 1.7-3.4-3.4 1.7-1.7z"/><circle cx="2.4" cy="25.1" r="2.4"/></g><circle cx="2.4" cy="13.8" r="2.4"/></g></svg>