<svg xmlns="http://www.w3.org/2000/svg" width="36" height="36"><g fill="none" fill-rule="evenodd"><path fill="#A5A5A5" fill-opacity="0" d="M0 0h36v36H0z"/><circle cx="18" cy="18" r="13.5" fill="#FFF" fill-rule="nonzero"/><path fill="#E60019" fill-rule="nonzero" d="M18.011 4.5C10.55 4.5 4.5 10.54 4.5 17.989c0 5.717 3.558 10.602 8.585 12.567-.122-1.065-.223-2.709.044-3.874.245-1.055 1.58-6.706 1.58-6.706s-.4-.81-.4-1.998c0-1.876 1.089-3.275 2.446-3.275 1.156 0 1.712.866 1.712 1.898 0 1.155-.734 2.887-1.123 4.496-.323 1.344.678 2.443 2.002 2.443 2.401 0 4.247-2.531 4.247-6.173 0-3.23-2.324-5.484-5.649-5.484-3.847 0-6.105 2.875-6.105 5.85 0 1.155.445 2.399 1.001 3.076a.402.402 0 01.09.388c-.1.422-.334 1.344-.379 1.532-.056.245-.2.3-.456.178-1.69-.788-2.747-3.242-2.747-5.229 0-4.252 3.092-8.16 8.93-8.16 4.682 0 8.329 3.33 8.329 7.794 0 4.651-2.936 8.393-7.006 8.393-1.368 0-2.657-.71-3.091-1.555l-.845 3.209c-.3 1.177-1.123 2.642-1.68 3.541 1.268.39 2.603.6 4.004.6 7.462 0 13.511-6.04 13.511-13.489C31.522 10.54 25.473 4.5 18.011 4.5z"/></g></svg>